<svg width="2585" height="6935" viewBox="0 0 2585 6935" fill="none" xmlns="http://www.w3.org/2000/svg">
<g filter="url(#filter0_f_168_317)">
<path fill-rule="evenodd" clip-rule="evenodd" d="M497 4408.07C756.574 4408.07 967 4203.23 967 3950.54C967 3697.85 756.574 3493 497 3493C237.426 3493 27 3697.85 27 3950.54C27 4203.23 237.426 4408.07 497 4408.07ZM497 4362.32C730.616 4362.32 920 4177.96 920 3950.54C920 3723.11 730.616 3538.75 497 3538.75C263.384 3538.75 74 3723.11 74 3950.54C74 4177.96 263.384 4362.32 497 4362.32Z" fill="#B9AFC8" fill-opacity="0.5"/>
<path fill-rule="evenodd" clip-rule="evenodd" d="M497 4331.81C713.311 4331.81 888.666 4161.11 888.666 3950.54C888.666 3739.96 713.311 3569.26 497 3569.26C280.689 3569.26 105.334 3739.96 105.334 3950.54C105.334 4161.11 280.689 4331.81 497 4331.81ZM496.999 4286.06C687.353 4286.06 841.666 4135.84 841.666 3950.54C841.666 3765.23 687.353 3615.01 496.999 3615.01C306.645 3615.01 152.333 3765.23 152.333 3950.54C152.333 4135.84 306.645 4286.06 496.999 4286.06Z" fill="#B9AFC8" fill-opacity="0.5"/>
<path fill-rule="evenodd" clip-rule="evenodd" d="M497 4255.56C670.049 4255.56 810.333 4119 810.333 3950.54C810.333 3782.08 670.049 3645.51 497 3645.51C323.951 3645.51 183.667 3782.08 183.667 3950.54C183.667 4119 323.951 4255.56 497 4255.56ZM496.999 4209.81C644.091 4209.81 763.332 4093.73 763.332 3950.54C763.332 3807.35 644.091 3691.27 496.999 3691.27C349.907 3691.27 230.666 3807.35 230.666 3950.54C230.666 4093.73 349.907 4209.81 496.999 4209.81Z" fill="#B9AFC8" fill-opacity="0.5"/>
<path fill-rule="evenodd" clip-rule="evenodd" d="M496.999 4179.3C626.786 4179.3 731.999 4076.88 731.999 3950.54C731.999 3824.19 626.786 3721.77 496.999 3721.77C367.213 3721.77 262 3824.19 262 3950.54C262 4076.88 367.213 4179.3 496.999 4179.3ZM496.999 4133.55C600.829 4133.55 684.999 4051.61 684.999 3950.54C684.999 3849.46 600.829 3767.52 496.999 3767.52C393.17 3767.52 308.999 3849.46 308.999 3950.54C308.999 4051.61 393.17 4133.55 496.999 4133.55Z" fill="#B9AFC8" fill-opacity="0.5"/>
<path fill-rule="evenodd" clip-rule="evenodd" d="M497 4103.05C583.524 4103.05 653.666 4034.77 653.666 3950.54C653.666 3866.31 583.524 3798.02 497 3798.02C410.475 3798.02 340.333 3866.31 340.333 3950.54C340.333 4034.77 410.475 4103.05 497 4103.05ZM496.999 4057.29C557.566 4057.29 606.666 4009.5 606.666 3950.54C606.666 3891.58 557.566 3843.78 496.999 3843.78C436.432 3843.78 387.333 3891.58 387.333 3950.54C387.333 4009.5 436.432 4057.29 496.999 4057.29Z" fill="#B9AFC8" fill-opacity="0.5"/>
</g>
<g filter="url(#filter1_f_168_317)">
<path fill-rule="evenodd" clip-rule="evenodd" d="M1116.5 5528.92C1471.34 5528.92 1759 5248.89 1759 4903.46C1759 4558.03 1471.34 4278 1116.5 4278C761.657 4278 474 4558.03 474 4903.46C474 5248.89 761.657 5528.92 1116.5 5528.92ZM1116.5 5466.38C1435.86 5466.38 1694.75 5214.35 1694.75 4903.46C1694.75 4592.57 1435.86 4340.55 1116.5 4340.55C797.142 4340.55 538.25 4592.57 538.25 4903.46C538.25 5214.35 797.142 5466.38 1116.5 5466.38Z" fill="#B9AFC8" fill-opacity="0.5"/>
<path fill-rule="evenodd" clip-rule="evenodd" d="M1116.5 5424.68C1412.2 5424.68 1651.92 5191.32 1651.92 4903.46C1651.92 4615.6 1412.2 4382.24 1116.5 4382.24C820.798 4382.24 581.084 4615.6 581.084 4903.46C581.084 5191.32 820.798 5424.68 1116.5 5424.68ZM1116.5 5362.13C1376.72 5362.13 1587.67 5156.78 1587.67 4903.46C1587.67 4650.14 1376.72 4444.79 1116.5 4444.79C856.282 4444.79 645.333 4650.14 645.333 4903.46C645.333 5156.78 856.282 5362.13 1116.5 5362.13Z" fill="#B9AFC8" fill-opacity="0.5"/>
<path fill-rule="evenodd" clip-rule="evenodd" d="M1116.5 5320.44C1353.06 5320.44 1544.83 5133.75 1544.83 4903.46C1544.83 4673.17 1353.06 4486.49 1116.5 4486.49C879.939 4486.49 688.167 4673.17 688.167 4903.46C688.167 5133.75 879.939 5320.44 1116.5 5320.44ZM1116.5 5257.89C1317.58 5257.89 1480.58 5099.21 1480.58 4903.46C1480.58 4707.72 1317.58 4549.03 1116.5 4549.03C915.422 4549.03 752.416 4707.72 752.416 4903.46C752.416 5099.21 915.422 5257.89 1116.5 5257.89Z" fill="#B9AFC8" fill-opacity="0.5"/>
<path fill-rule="evenodd" clip-rule="evenodd" d="M1116.5 5216.19C1293.92 5216.19 1437.75 5076.18 1437.75 4903.46C1437.75 4730.75 1293.92 4590.73 1116.5 4590.73C939.078 4590.73 795.25 4730.75 795.25 4903.46C795.25 5076.18 939.078 5216.19 1116.5 5216.19ZM1116.5 5153.65C1258.44 5153.65 1373.5 5041.63 1373.5 4903.46C1373.5 4765.29 1258.44 4653.28 1116.5 4653.28C974.563 4653.28 859.5 4765.29 859.5 4903.46C859.5 5041.63 974.563 5153.65 1116.5 5153.65Z" fill="#B9AFC8" fill-opacity="0.5"/>
<path fill-rule="evenodd" clip-rule="evenodd" d="M1116.5 5111.95C1234.78 5111.95 1330.67 5018.61 1330.67 4903.46C1330.67 4788.32 1234.78 4694.98 1116.5 4694.98C998.22 4694.98 902.334 4788.32 902.334 4903.46C902.334 5018.61 998.22 5111.95 1116.5 5111.95ZM1116.5 5049.4C1199.3 5049.4 1266.42 4984.06 1266.42 4903.46C1266.42 4822.86 1199.3 4757.52 1116.5 4757.52C1033.7 4757.52 966.583 4822.86 966.583 4903.46C966.583 4984.06 1033.7 5049.4 1116.5 5049.4Z" fill="#B9AFC8" fill-opacity="0.5"/>
</g>
<g filter="url(#filter2_f_168_317)">
<path fill-rule="evenodd" clip-rule="evenodd" d="M1916.63 6907.92C2180.41 6907.92 2394.26 6699.75 2394.26 6442.96C2394.26 6186.17 2180.41 5978 1916.63 5978C1652.84 5978 1439 6186.17 1439 6442.96C1439 6699.75 1652.84 6907.92 1916.63 6907.92ZM1916.63 6861.43C2154.04 6861.43 2346.49 6674.07 2346.49 6442.96C2346.49 6211.85 2154.04 6024.5 1916.63 6024.5C1679.22 6024.5 1486.76 6211.85 1486.76 6442.96C1486.76 6674.07 1679.22 6861.43 1916.63 6861.43Z" fill="#B9AFC8" fill-opacity="0.5"/>
<path fill-rule="evenodd" clip-rule="evenodd" d="M1916.63 6830.43C2136.45 6830.43 2314.65 6656.95 2314.65 6442.96C2314.65 6228.97 2136.45 6055.49 1916.63 6055.49C1696.81 6055.49 1518.61 6228.97 1518.61 6442.96C1518.61 6656.95 1696.81 6830.43 1916.63 6830.43ZM1916.63 6783.93C2110.07 6783.93 2266.89 6631.27 2266.89 6442.96C2266.89 6254.65 2110.07 6101.99 1916.63 6101.99C1723.18 6101.99 1566.37 6254.65 1566.37 6442.96C1566.37 6631.27 1723.18 6783.93 1916.63 6783.93Z" fill="#B9AFC8" fill-opacity="0.5"/>
<path fill-rule="evenodd" clip-rule="evenodd" d="M1916.63 6752.94C2092.49 6752.94 2235.05 6614.16 2235.05 6442.96C2235.05 6271.77 2092.49 6132.99 1916.63 6132.99C1740.77 6132.99 1598.21 6271.77 1598.21 6442.96C1598.21 6614.16 1740.77 6752.94 1916.63 6752.94ZM1916.63 6706.44C2066.11 6706.44 2187.28 6588.48 2187.28 6442.96C2187.28 6297.45 2066.11 6179.48 1916.63 6179.48C1767.15 6179.48 1645.97 6297.45 1645.97 6442.96C1645.97 6588.48 1767.15 6706.44 1916.63 6706.44Z" fill="#B9AFC8" fill-opacity="0.5"/>
<path fill-rule="evenodd" clip-rule="evenodd" d="M1916.63 6675.44C2048.52 6675.44 2155.44 6571.36 2155.44 6442.96C2155.44 6314.57 2048.52 6210.48 1916.63 6210.48C1784.73 6210.48 1677.81 6314.57 1677.81 6442.96C1677.81 6571.36 1784.73 6675.44 1916.63 6675.44ZM1916.63 6628.95C2022.14 6628.95 2107.68 6545.68 2107.68 6442.96C2107.68 6340.24 2022.14 6256.98 1916.63 6256.98C1811.11 6256.98 1725.58 6340.24 1725.58 6442.96C1725.58 6545.68 1811.11 6628.95 1916.63 6628.95Z" fill="#B9AFC8" fill-opacity="0.5"/>
<path fill-rule="evenodd" clip-rule="evenodd" d="M1916.63 6597.95C2004.56 6597.95 2075.84 6528.56 2075.84 6442.96C2075.84 6357.37 2004.56 6287.98 1916.63 6287.98C1828.7 6287.98 1757.42 6357.37 1757.42 6442.96C1757.42 6528.56 1828.7 6597.95 1916.63 6597.95ZM1916.63 6551.45C1978.18 6551.45 2028.07 6502.88 2028.07 6442.96C2028.07 6383.04 1978.18 6334.47 1916.63 6334.47C1855.08 6334.47 1805.18 6383.04 1805.18 6442.96C1805.18 6502.88 1855.08 6551.45 1916.63 6551.45Z" fill="#B9AFC8" fill-opacity="0.5"/>
</g>
<g filter="url(#filter3_f_168_317)">
<path fill-rule="evenodd" clip-rule="evenodd" d="M605 1686.01C802.718 1686.01 963 1529.98 963 1337.51C963 1145.03 802.718 989 605 989C407.282 989 247 1145.03 247 1337.51C247 1529.98 407.282 1686.01 605 1686.01ZM605 1651.16C782.946 1651.16 927.2 1510.73 927.2 1337.51C927.2 1164.28 782.946 1023.85 605 1023.85C427.054 1023.85 282.8 1164.28 282.8 1337.51C282.8 1510.73 427.054 1651.16 605 1651.16Z" fill="#B9AFC8" fill-opacity="0.5"/>
<path fill-rule="evenodd" clip-rule="evenodd" d="M605 1627.93C769.765 1627.93 903.333 1497.9 903.333 1337.51C903.333 1177.11 769.765 1047.08 605 1047.08C440.235 1047.08 306.667 1177.11 306.667 1337.51C306.667 1497.9 440.235 1627.93 605 1627.93ZM605 1593.08C749.993 1593.08 867.533 1478.65 867.533 1337.51C867.533 1196.36 749.993 1081.93 605 1081.93C460.007 1081.93 342.467 1196.36 342.467 1337.51C342.467 1478.65 460.007 1593.08 605 1593.08Z" fill="#B9AFC8" fill-opacity="0.5"/>
<path fill-rule="evenodd" clip-rule="evenodd" d="M605 1569.84C736.812 1569.84 843.666 1465.82 843.666 1337.51C843.666 1209.19 736.812 1105.17 605 1105.17C473.188 1105.17 366.333 1209.19 366.333 1337.51C366.333 1465.82 473.188 1569.84 605 1569.84ZM604.999 1534.99C717.039 1534.99 807.866 1446.57 807.866 1337.51C807.866 1228.44 717.039 1140.02 604.999 1140.02C492.959 1140.02 402.133 1228.44 402.133 1337.51C402.133 1446.57 492.959 1534.99 604.999 1534.99Z" fill="#B9AFC8" fill-opacity="0.5"/>
<path fill-rule="evenodd" clip-rule="evenodd" d="M605 1511.76C703.858 1511.76 783.999 1433.74 783.999 1337.51C783.999 1241.27 703.858 1163.25 605 1163.25C506.141 1163.25 426 1241.27 426 1337.51C426 1433.74 506.141 1511.76 605 1511.76ZM605 1476.91C684.087 1476.91 748.199 1414.5 748.199 1337.51C748.199 1260.52 684.087 1198.1 605 1198.1C525.912 1198.1 461.8 1260.52 461.8 1337.51C461.8 1414.5 525.912 1476.91 605 1476.91Z" fill="#B9AFC8" fill-opacity="0.5"/>
<path fill-rule="evenodd" clip-rule="evenodd" d="M605 1453.67C670.906 1453.67 724.333 1401.66 724.333 1337.51C724.333 1273.35 670.906 1221.34 605 1221.34C539.094 1221.34 485.667 1273.35 485.667 1337.51C485.667 1401.66 539.094 1453.67 605 1453.67ZM605 1418.82C651.134 1418.82 688.533 1382.42 688.533 1337.51C688.533 1292.6 651.134 1256.19 605 1256.19C558.865 1256.19 521.466 1292.6 521.466 1337.51C521.466 1382.42 558.865 1418.82 605 1418.82Z" fill="#B9AFC8" fill-opacity="0.5"/>
</g>
<g filter="url(#filter4_f_168_317)">
<path fill-rule="evenodd" clip-rule="evenodd" d="M581.5 6929.42C899.892 6929.42 1158 6678.16 1158 6368.21C1158 6058.26 899.892 5807 581.5 5807C263.108 5807 5 6058.26 5 6368.21C5 6678.16 263.108 6929.42 581.5 6929.42ZM581.5 6873.3C868.053 6873.3 1100.35 6647.16 1100.35 6368.21C1100.35 6089.26 868.053 5863.12 581.5 5863.12C294.947 5863.12 62.6501 6089.26 62.6501 6368.21C62.6501 6647.16 294.947 6873.3 581.5 6873.3Z" fill="#B9AFC8" fill-opacity="0.5"/>
<path fill-rule="evenodd" clip-rule="evenodd" d="M581.5 6835.89C846.826 6835.89 1061.92 6626.5 1061.92 6368.21C1061.92 6109.92 846.826 5900.54 581.5 5900.54C316.173 5900.54 101.084 6109.92 101.084 6368.21C101.084 6626.5 316.173 6835.89 581.5 6835.89ZM581.5 6779.77C814.987 6779.77 1004.27 6595.51 1004.27 6368.21C1004.27 6140.92 814.987 5956.66 581.5 5956.66C348.012 5956.66 158.733 6140.92 158.733 6368.21C158.733 6595.51 348.012 6779.77 581.5 6779.77Z" fill="#B9AFC8" fill-opacity="0.5"/>
<path fill-rule="evenodd" clip-rule="evenodd" d="M581.5 6742.35C793.761 6742.35 965.833 6574.84 965.833 6368.21C965.833 6161.58 793.761 5994.07 581.5 5994.07C369.239 5994.07 197.167 6161.58 197.167 6368.21C197.167 6574.84 369.239 6742.35 581.5 6742.35ZM581.499 6686.23C761.921 6686.23 908.182 6543.85 908.182 6368.21C908.182 6192.57 761.921 6050.19 581.499 6050.19C401.077 6050.19 254.816 6192.57 254.816 6368.21C254.816 6543.85 401.077 6686.23 581.499 6686.23Z" fill="#B9AFC8" fill-opacity="0.5"/>
<path fill-rule="evenodd" clip-rule="evenodd" d="M581.499 6648.82C740.695 6648.82 869.749 6523.19 869.749 6368.21C869.749 6213.24 740.695 6087.61 581.499 6087.61C422.303 6087.61 293.25 6213.24 293.25 6368.21C293.25 6523.19 422.303 6648.82 581.499 6648.82ZM581.499 6592.7C708.856 6592.7 812.099 6492.19 812.099 6368.21C812.099 6244.23 708.856 6143.73 581.499 6143.73C454.143 6143.73 350.9 6244.23 350.9 6368.21C350.9 6492.19 454.143 6592.7 581.499 6592.7Z" fill="#B9AFC8" fill-opacity="0.5"/>
<path fill-rule="evenodd" clip-rule="evenodd" d="M581.5 6555.28C687.631 6555.28 773.667 6471.53 773.667 6368.21C773.667 6264.9 687.631 6181.14 581.5 6181.14C475.37 6181.14 389.334 6264.9 389.334 6368.21C389.334 6471.53 475.37 6555.28 581.5 6555.28ZM581.499 6499.16C655.791 6499.16 716.016 6440.53 716.016 6368.21C716.016 6295.89 655.791 6237.26 581.499 6237.26C507.208 6237.26 446.983 6295.89 446.983 6368.21C446.983 6440.53 507.208 6499.16 581.499 6499.16Z" fill="#B9AFC8" fill-opacity="0.5"/>
</g>
<g filter="url(#filter5_f_168_317)">
<path fill-rule="evenodd" clip-rule="evenodd" d="M627.116 2827C931.488 2827 1178.23 2586.8 1178.23 2290.5C1178.23 1994.2 931.488 1754 627.116 1754C322.743 1754 76 1994.2 76 2290.5C76 2586.8 322.743 2827 627.116 2827ZM627.116 2773.35C901.051 2773.35 1123.12 2557.17 1123.12 2290.5C1123.12 2023.83 901.051 1807.65 627.116 1807.65C353.18 1807.65 131.112 2023.83 131.112 2290.5C131.112 2557.17 353.18 2773.35 627.116 2773.35Z" fill="#B9AFC8" fill-opacity="0.5"/>
<path fill-rule="evenodd" clip-rule="evenodd" d="M627.116 2737.58C880.759 2737.58 1086.38 2537.42 1086.38 2290.5C1086.38 2043.58 880.759 1843.42 627.116 1843.42C373.472 1843.42 167.853 2043.58 167.853 2290.5C167.853 2537.42 373.472 2737.58 627.116 2737.58ZM627.115 2683.93C850.321 2683.93 1031.27 2507.79 1031.27 2290.5C1031.27 2073.21 850.321 1897.07 627.115 1897.07C403.908 1897.07 222.964 2073.21 222.964 2290.5C222.964 2507.79 403.908 2683.93 627.115 2683.93Z" fill="#B9AFC8" fill-opacity="0.5"/>
<path fill-rule="evenodd" clip-rule="evenodd" d="M627.115 2648.17C830.03 2648.17 994.525 2488.03 994.525 2290.5C994.525 2092.97 830.03 1932.83 627.115 1932.83C424.2 1932.83 259.705 2092.97 259.705 2290.5C259.705 2488.03 424.2 2648.17 627.115 2648.17ZM627.115 2594.52C799.592 2594.52 939.413 2458.4 939.413 2290.5C939.413 2122.6 799.592 1986.48 627.115 1986.48C454.637 1986.48 314.816 2122.6 314.816 2290.5C314.816 2458.4 454.637 2594.52 627.115 2594.52Z" fill="#B9AFC8" fill-opacity="0.5"/>
<path fill-rule="evenodd" clip-rule="evenodd" d="M627.115 2558.75C779.301 2558.75 902.672 2438.65 902.672 2290.5C902.672 2142.35 779.301 2022.25 627.115 2022.25C474.928 2022.25 351.557 2142.35 351.557 2290.5C351.557 2438.65 474.928 2558.75 627.115 2558.75ZM627.115 2505.1C748.864 2505.1 847.561 2409.02 847.561 2290.5C847.561 2171.98 748.864 2075.9 627.115 2075.9C505.366 2075.9 406.669 2171.98 406.669 2290.5C406.669 2409.02 505.366 2505.1 627.115 2505.1Z" fill="#B9AFC8" fill-opacity="0.5"/>
<path fill-rule="evenodd" clip-rule="evenodd" d="M627.116 2469.33C728.573 2469.33 810.821 2389.27 810.821 2290.5C810.821 2191.73 728.573 2111.67 627.116 2111.67C525.658 2111.67 443.411 2191.73 443.411 2290.5C443.411 2389.27 525.658 2469.33 627.116 2469.33ZM627.115 2415.68C698.135 2415.68 755.708 2359.64 755.708 2290.5C755.708 2221.36 698.135 2165.32 627.115 2165.32C556.094 2165.32 498.521 2221.36 498.521 2290.5C498.521 2359.64 556.094 2415.68 627.115 2415.68Z" fill="#B9AFC8" fill-opacity="0.5"/>
</g>
<g filter="url(#filter6_f_168_317)">
<path fill-rule="evenodd" clip-rule="evenodd" d="M2124 5860.53C2326.69 5860.53 2491 5700.58 2491 5503.27C2491 5305.95 2326.69 5146 2124 5146C1921.31 5146 1757 5305.95 1757 5503.27C1757 5700.58 1921.31 5860.53 2124 5860.53ZM2124 5824.81C2306.42 5824.81 2454.3 5680.85 2454.3 5503.27C2454.3 5325.69 2306.42 5181.73 2124 5181.73C1941.58 5181.73 1793.7 5325.69 1793.7 5503.27C1793.7 5680.85 1941.58 5824.81 2124 5824.81Z" fill="#B9AFC8" fill-opacity="0.5"/>
<path fill-rule="evenodd" clip-rule="evenodd" d="M2124 5800.99C2292.91 5800.99 2429.83 5667.69 2429.83 5503.27C2429.83 5338.84 2292.91 5205.54 2124 5205.54C1955.09 5205.54 1818.17 5338.84 1818.17 5503.27C1818.17 5667.69 1955.09 5800.99 2124 5800.99ZM2124 5765.26C2272.64 5765.26 2393.13 5647.96 2393.13 5503.27C2393.13 5358.57 2272.64 5241.27 2124 5241.27C1975.36 5241.27 1854.87 5358.57 1854.87 5503.27C1854.87 5647.96 1975.36 5765.26 2124 5765.26Z" fill="#B9AFC8" fill-opacity="0.5"/>
<path fill-rule="evenodd" clip-rule="evenodd" d="M2124 5741.45C2259.13 5741.45 2368.67 5634.81 2368.67 5503.27C2368.67 5371.73 2259.13 5265.09 2124 5265.09C1988.87 5265.09 1879.33 5371.73 1879.33 5503.27C1879.33 5634.81 1988.87 5741.45 2124 5741.45ZM2124 5705.72C2238.86 5705.72 2331.97 5615.08 2331.97 5503.27C2331.97 5391.46 2238.86 5300.82 2124 5300.82C2009.14 5300.82 1916.03 5391.46 1916.03 5503.27C1916.03 5615.08 2009.14 5705.72 2124 5705.72Z" fill="#B9AFC8" fill-opacity="0.5"/>
<path fill-rule="evenodd" clip-rule="evenodd" d="M2124 5681.9C2225.34 5681.9 2307.5 5601.92 2307.5 5503.27C2307.5 5404.61 2225.34 5324.63 2124 5324.63C2022.66 5324.63 1940.5 5404.61 1940.5 5503.27C1940.5 5601.92 2022.66 5681.9 2124 5681.9ZM2124 5646.17C2205.07 5646.17 2270.8 5582.19 2270.8 5503.27C2270.8 5424.34 2205.07 5360.36 2124 5360.36C2042.92 5360.36 1977.2 5424.34 1977.2 5503.27C1977.2 5582.19 2042.92 5646.17 2124 5646.17Z" fill="#B9AFC8" fill-opacity="0.5"/>
<path fill-rule="evenodd" clip-rule="evenodd" d="M2124 5622.36C2191.56 5622.36 2246.33 5569.04 2246.33 5503.27C2246.33 5437.5 2191.56 5384.18 2124 5384.18C2056.44 5384.18 2001.67 5437.5 2001.67 5503.27C2001.67 5569.04 2056.44 5622.36 2124 5622.36ZM2124 5586.63C2171.29 5586.63 2209.63 5549.31 2209.63 5503.27C2209.63 5457.23 2171.29 5419.91 2124 5419.91C2076.71 5419.91 2038.37 5457.23 2038.37 5503.27C2038.37 5549.31 2076.71 5586.63 2124 5586.63Z" fill="#B9AFC8" fill-opacity="0.5"/>
</g>
<g filter="url(#filter7_f_168_317)">
<path fill-rule="evenodd" clip-rule="evenodd" d="M1169 3646.29C1280.56 3646.29 1371 3558.25 1371 3449.64C1371 3341.04 1280.56 3253 1169 3253C1057.44 3253 967 3341.04 967 3449.64C967 3558.25 1057.44 3646.29 1169 3646.29ZM1169 3626.62C1269.41 3626.62 1350.8 3547.39 1350.8 3449.64C1350.8 3351.9 1269.41 3272.66 1169 3272.66C1068.59 3272.66 987.2 3351.9 987.2 3449.64C987.2 3547.39 1068.59 3626.62 1169 3626.62Z" fill="#B9AFC8" fill-opacity="0.5"/>
<path fill-rule="evenodd" clip-rule="evenodd" d="M1169 3613.51C1261.97 3613.51 1337.33 3540.15 1337.33 3449.64C1337.33 3359.14 1261.97 3285.77 1169 3285.77C1076.03 3285.77 1000.67 3359.14 1000.67 3449.64C1000.67 3540.15 1076.03 3613.51 1169 3613.51ZM1169 3593.85C1250.81 3593.85 1317.13 3529.28 1317.13 3449.64C1317.13 3370 1250.81 3305.44 1169 3305.44C1087.19 3305.44 1020.87 3370 1020.87 3449.64C1020.87 3529.28 1087.19 3593.85 1169 3593.85Z" fill="#B9AFC8" fill-opacity="0.5"/>
<path fill-rule="evenodd" clip-rule="evenodd" d="M1169 3580.74C1243.37 3580.74 1303.67 3522.05 1303.67 3449.64C1303.67 3377.24 1243.37 3318.55 1169 3318.55C1094.63 3318.55 1034.33 3377.24 1034.33 3449.64C1034.33 3522.05 1094.63 3580.74 1169 3580.74ZM1169 3561.07C1232.22 3561.07 1283.47 3511.18 1283.47 3449.64C1283.47 3388.1 1232.22 3338.21 1169 3338.21C1105.78 3338.21 1054.53 3388.1 1054.53 3449.64C1054.53 3511.18 1105.78 3561.07 1169 3561.07Z" fill="#B9AFC8" fill-opacity="0.5"/>
<path fill-rule="evenodd" clip-rule="evenodd" d="M1169 3547.96C1224.78 3547.96 1270 3503.94 1270 3449.64C1270 3395.34 1224.78 3351.32 1169 3351.32C1113.22 3351.32 1068 3395.34 1068 3449.64C1068 3503.94 1113.22 3547.96 1169 3547.96ZM1169 3528.3C1213.62 3528.3 1249.8 3493.08 1249.8 3449.64C1249.8 3406.2 1213.62 3370.99 1169 3370.99C1124.38 3370.99 1088.2 3406.2 1088.2 3449.64C1088.2 3493.08 1124.38 3528.3 1169 3528.3Z" fill="#B9AFC8" fill-opacity="0.5"/>
<path fill-rule="evenodd" clip-rule="evenodd" d="M1169 3515.19C1206.19 3515.19 1236.33 3485.84 1236.33 3449.64C1236.33 3413.44 1206.19 3384.1 1169 3384.1C1131.81 3384.1 1101.67 3413.44 1101.67 3449.64C1101.67 3485.84 1131.81 3515.19 1169 3515.19ZM1169 3495.53C1195.03 3495.53 1216.13 3474.98 1216.13 3449.64C1216.13 3424.3 1195.03 3403.76 1169 3403.76C1142.97 3403.76 1121.87 3424.3 1121.87 3449.64C1121.87 3474.98 1142.97 3495.53 1169 3495.53Z" fill="#B9AFC8" fill-opacity="0.5"/>
</g>
<g filter="url(#filter8_f_168_317)">
<path fill-rule="evenodd" clip-rule="evenodd" d="M564.5 3389.34C706.713 3389.34 822 3277.11 822 3138.67C822 3000.23 706.713 2888 564.5 2888C422.287 2888 307 3000.23 307 3138.67C307 3277.11 422.287 3389.34 564.5 3389.34ZM564.5 3364.27C692.492 3364.27 796.25 3263.27 796.25 3138.67C796.25 3014.07 692.492 2913.07 564.5 2913.07C436.508 2913.07 332.75 3014.07 332.75 3138.67C332.75 3263.27 436.508 3364.27 564.5 3364.27Z" fill="#B9AFC8" fill-opacity="0.5"/>
<path fill-rule="evenodd" clip-rule="evenodd" d="M564.5 3347.56C683.011 3347.56 779.083 3254.04 779.083 3138.67C779.083 3023.3 683.011 2929.78 564.5 2929.78C445.989 2929.78 349.917 3023.3 349.917 3138.67C349.917 3254.04 445.989 3347.56 564.5 3347.56ZM564.5 3322.5C668.79 3322.5 753.333 3240.19 753.333 3138.67C753.333 3037.15 668.79 2954.85 564.5 2954.85C460.21 2954.85 375.667 3037.15 375.667 3138.67C375.667 3240.19 460.21 3322.5 564.5 3322.5Z" fill="#B9AFC8" fill-opacity="0.5"/>
<path fill-rule="evenodd" clip-rule="evenodd" d="M564.5 3305.79C659.309 3305.79 736.166 3230.97 736.166 3138.67C736.166 3046.38 659.309 2971.56 564.5 2971.56C469.691 2971.56 392.833 3046.38 392.833 3138.67C392.833 3230.97 469.691 3305.79 564.5 3305.79ZM564.5 3280.72C645.087 3280.72 710.416 3217.12 710.416 3138.67C710.416 3060.22 645.087 2996.62 564.5 2996.62C483.912 2996.62 418.583 3060.22 418.583 3138.67C418.583 3217.12 483.912 3280.72 564.5 3280.72Z" fill="#B9AFC8" fill-opacity="0.5"/>
<path fill-rule="evenodd" clip-rule="evenodd" d="M564.5 3264.01C635.606 3264.01 693.25 3207.89 693.25 3138.67C693.25 3069.45 635.606 3013.34 564.5 3013.34C493.393 3013.34 435.75 3069.45 435.75 3138.67C435.75 3207.89 493.393 3264.01 564.5 3264.01ZM564.5 3238.94C621.385 3238.94 667.499 3194.05 667.499 3138.67C667.499 3083.29 621.385 3038.4 564.5 3038.4C507.614 3038.4 461.5 3083.29 461.5 3138.67C461.5 3194.05 507.614 3238.94 564.5 3238.94Z" fill="#B9AFC8" fill-opacity="0.5"/>
<path fill-rule="evenodd" clip-rule="evenodd" d="M564.5 3222.23C611.904 3222.23 650.333 3184.82 650.333 3138.67C650.333 3092.52 611.904 3055.11 564.5 3055.11C517.096 3055.11 478.667 3092.52 478.667 3138.67C478.667 3184.82 517.096 3222.23 564.5 3222.23ZM564.5 3197.16C597.683 3197.16 624.583 3170.97 624.583 3138.67C624.583 3106.37 597.683 3080.18 564.5 3080.18C531.316 3080.18 504.416 3106.37 504.416 3138.67C504.416 3170.97 531.316 3197.16 564.5 3197.16Z" fill="#B9AFC8" fill-opacity="0.5"/>
</g>
<g filter="url(#filter9_f_168_317)">
<path fill-rule="evenodd" clip-rule="evenodd" d="M1443.54 3225C1590.2 3225 1709.08 3109.27 1709.08 2966.5C1709.08 2823.73 1590.2 2708 1443.54 2708C1296.89 2708 1178 2823.73 1178 2966.5C1178 3109.27 1296.89 3225 1443.54 3225ZM1443.54 3199.15C1575.53 3199.15 1682.53 3094.99 1682.53 2966.5C1682.53 2838.01 1575.53 2733.85 1443.54 2733.85C1311.55 2733.85 1204.55 2838.01 1204.55 2966.5C1204.55 3094.99 1311.55 3199.15 1443.54 3199.15Z" fill="#B9AFC8" fill-opacity="0.5"/>
<path fill-rule="evenodd" clip-rule="evenodd" d="M1443.54 3181.92C1565.75 3181.92 1664.83 3085.47 1664.83 2966.5C1664.83 2847.53 1565.75 2751.08 1443.54 2751.08C1321.33 2751.08 1222.26 2847.53 1222.26 2966.5C1222.26 3085.47 1321.33 3181.92 1443.54 3181.92ZM1443.54 3156.07C1551.09 3156.07 1638.27 3071.19 1638.27 2966.5C1638.27 2861.81 1551.09 2776.93 1443.54 2776.93C1336 2776.93 1248.81 2861.81 1248.81 2966.5C1248.81 3071.19 1336 3156.07 1443.54 3156.07Z" fill="#B9AFC8" fill-opacity="0.5"/>
<path fill-rule="evenodd" clip-rule="evenodd" d="M1443.54 3138.83C1541.31 3138.83 1620.57 3061.68 1620.57 2966.5C1620.57 2871.32 1541.31 2794.17 1443.54 2794.17C1345.77 2794.17 1266.51 2871.32 1266.51 2966.5C1266.51 3061.68 1345.77 3138.83 1443.54 3138.83ZM1443.54 3112.98C1526.65 3112.98 1594.02 3047.4 1594.02 2966.5C1594.02 2885.6 1526.65 2820.02 1443.54 2820.02C1360.44 2820.02 1293.07 2885.6 1293.07 2966.5C1293.07 3047.4 1360.44 3112.98 1443.54 3112.98Z" fill="#B9AFC8" fill-opacity="0.5"/>
<path fill-rule="evenodd" clip-rule="evenodd" d="M1443.54 3095.75C1516.87 3095.75 1576.31 3037.88 1576.31 2966.5C1576.31 2895.12 1516.87 2837.25 1443.54 2837.25C1370.21 2837.25 1310.77 2895.12 1310.77 2966.5C1310.77 3037.88 1370.21 3095.75 1443.54 3095.75ZM1443.54 3069.9C1502.2 3069.9 1549.76 3023.61 1549.76 2966.5C1549.76 2909.39 1502.2 2863.1 1443.54 2863.1C1384.88 2863.1 1337.32 2909.39 1337.32 2966.5C1337.32 3023.61 1384.88 3069.9 1443.54 3069.9Z" fill="#B9AFC8" fill-opacity="0.5"/>
<path fill-rule="evenodd" clip-rule="evenodd" d="M1443.54 3052.67C1492.43 3052.67 1532.06 3014.09 1532.06 2966.5C1532.06 2918.91 1492.43 2880.33 1443.54 2880.33C1394.66 2880.33 1355.03 2918.91 1355.03 2966.5C1355.03 3014.09 1394.66 3052.67 1443.54 3052.67ZM1443.54 3026.82C1477.76 3026.82 1505.5 2999.81 1505.5 2966.5C1505.5 2933.19 1477.76 2906.18 1443.54 2906.18C1409.32 2906.18 1381.58 2933.19 1381.58 2966.5C1381.58 2999.81 1409.32 3026.82 1443.54 3026.82Z" fill="#B9AFC8" fill-opacity="0.5"/>
</g>
<g filter="url(#filter10_f_168_317)">
<path fill-rule="evenodd" clip-rule="evenodd" d="M2236 3580.75C2425.99 3580.75 2580 3430.82 2580 3245.88C2580 3060.93 2425.99 2911 2236 2911C2046.01 2911 1892 3060.93 1892 3245.88C1892 3430.82 2046.01 3580.75 2236 3580.75ZM2236 3547.27C2406.99 3547.27 2545.6 3412.33 2545.6 3245.88C2545.6 3079.42 2406.99 2944.49 2236 2944.49C2065.01 2944.49 1926.4 3079.42 1926.4 3245.88C1926.4 3412.33 2065.01 3547.27 2236 3547.27Z" fill="#B9AFC8" fill-opacity="0.5"/>
<path fill-rule="evenodd" clip-rule="evenodd" d="M2236 3524.94C2394.32 3524.94 2522.67 3400 2522.67 3245.88C2522.67 3091.75 2394.32 2966.81 2236 2966.81C2077.68 2966.81 1949.33 3091.75 1949.33 3245.88C1949.33 3400 2077.68 3524.94 2236 3524.94ZM2236 3491.45C2375.32 3491.45 2488.27 3381.5 2488.27 3245.88C2488.27 3110.25 2375.32 3000.3 2236 3000.3C2096.68 3000.3 1983.73 3110.25 1983.73 3245.88C1983.73 3381.5 2096.68 3491.45 2236 3491.45Z" fill="#B9AFC8" fill-opacity="0.5"/>
<path fill-rule="evenodd" clip-rule="evenodd" d="M2236 3469.13C2362.66 3469.13 2465.33 3369.18 2465.33 3245.88C2465.33 3122.58 2362.66 3022.63 2236 3022.63C2109.34 3022.63 2006.67 3122.58 2006.67 3245.88C2006.67 3369.18 2109.34 3469.13 2236 3469.13ZM2236 3435.64C2343.66 3435.64 2430.93 3350.68 2430.93 3245.88C2430.93 3141.07 2343.66 3056.11 2236 3056.11C2128.34 3056.11 2041.07 3141.07 2041.07 3245.88C2041.07 3350.68 2128.34 3435.64 2236 3435.64Z" fill="#B9AFC8" fill-opacity="0.5"/>
<path fill-rule="evenodd" clip-rule="evenodd" d="M2236 3413.32C2330.99 3413.32 2408 3338.35 2408 3245.88C2408 3153.4 2330.99 3078.44 2236 3078.44C2141.01 3078.44 2064 3153.4 2064 3245.88C2064 3338.35 2141.01 3413.32 2236 3413.32ZM2236 3379.83C2311.99 3379.83 2373.6 3319.86 2373.6 3245.88C2373.6 3171.9 2311.99 3111.93 2236 3111.93C2160 3111.93 2098.4 3171.9 2098.4 3245.88C2098.4 3319.86 2160 3379.83 2236 3379.83Z" fill="#B9AFC8" fill-opacity="0.5"/>
<path fill-rule="evenodd" clip-rule="evenodd" d="M2236 3357.5C2299.33 3357.5 2350.67 3307.53 2350.67 3245.88C2350.67 3184.23 2299.33 3134.25 2236 3134.25C2172.67 3134.25 2121.33 3184.23 2121.33 3245.88C2121.33 3307.53 2172.67 3357.5 2236 3357.5ZM2236 3324.02C2280.33 3324.02 2316.27 3289.03 2316.27 3245.88C2316.27 3202.72 2280.33 3167.74 2236 3167.74C2191.67 3167.74 2155.73 3202.72 2155.73 3245.88C2155.73 3289.03 2191.67 3324.02 2236 3324.02Z" fill="#B9AFC8" fill-opacity="0.5"/>
</g>
<g filter="url(#filter11_f_168_317)">
<path fill-rule="evenodd" clip-rule="evenodd" d="M1963.12 2763.87C2081.37 2763.87 2177.23 2670.55 2177.23 2555.44C2177.23 2440.32 2081.37 2347 1963.12 2347C1844.86 2347 1749 2440.32 1749 2555.44C1749 2670.55 1844.86 2763.87 1963.12 2763.87ZM1963.12 2743.03C2069.54 2743.03 2155.82 2659.04 2155.82 2555.44C2155.82 2451.83 2069.54 2367.84 1963.12 2367.84C1856.69 2367.84 1770.41 2451.83 1770.41 2555.44C1770.41 2659.04 1856.69 2743.03 1963.12 2743.03Z" fill="#B9AFC8" fill-opacity="0.5"/>
<path fill-rule="evenodd" clip-rule="evenodd" d="M1963.12 2729.13C2061.66 2729.13 2141.54 2651.37 2141.54 2555.44C2141.54 2459.51 2061.66 2381.74 1963.12 2381.74C1864.57 2381.74 1784.69 2459.51 1784.69 2555.44C1784.69 2651.37 1864.57 2729.13 1963.12 2729.13ZM1963.12 2708.29C2049.83 2708.29 2120.13 2639.86 2120.13 2555.44C2120.13 2471.02 2049.83 2402.58 1963.12 2402.58C1876.4 2402.58 1806.1 2471.02 1806.1 2555.44C1806.1 2639.86 1876.4 2708.29 1963.12 2708.29Z" fill="#B9AFC8" fill-opacity="0.5"/>
<path fill-rule="evenodd" clip-rule="evenodd" d="M1963.12 2694.4C2041.95 2694.4 2105.86 2632.18 2105.86 2555.44C2105.86 2478.69 2041.95 2416.48 1963.12 2416.48C1884.28 2416.48 1820.37 2478.69 1820.37 2555.44C1820.37 2632.18 1884.28 2694.4 1963.12 2694.4ZM1963.12 2673.55C2030.12 2673.55 2084.45 2620.67 2084.45 2555.44C2084.45 2490.2 2030.12 2437.32 1963.12 2437.32C1896.11 2437.32 1841.78 2490.2 1841.78 2555.44C1841.78 2620.67 1896.11 2673.55 1963.12 2673.55Z" fill="#B9AFC8" fill-opacity="0.5"/>
<path fill-rule="evenodd" clip-rule="evenodd" d="M1963.12 2659.66C2022.24 2659.66 2070.17 2613 2070.17 2555.44C2070.17 2497.88 2022.24 2451.22 1963.12 2451.22C1903.99 2451.22 1856.06 2497.88 1856.06 2555.44C1856.06 2613 1903.99 2659.66 1963.12 2659.66ZM1963.12 2638.81C2010.42 2638.81 2048.76 2601.48 2048.76 2555.44C2048.76 2509.39 2010.42 2472.06 1963.12 2472.06C1915.81 2472.06 1877.47 2509.39 1877.47 2555.44C1877.47 2601.48 1915.81 2638.81 1963.12 2638.81Z" fill="#B9AFC8" fill-opacity="0.5"/>
<path fill-rule="evenodd" clip-rule="evenodd" d="M1963.12 2624.92C2002.53 2624.92 2034.49 2593.81 2034.49 2555.44C2034.49 2517.07 2002.53 2485.96 1963.12 2485.96C1923.7 2485.96 1891.74 2517.07 1891.74 2555.44C1891.74 2593.81 1923.7 2624.92 1963.12 2624.92ZM1963.12 2604.07C1990.71 2604.07 2013.08 2582.3 2013.08 2555.44C2013.08 2528.58 1990.71 2506.8 1963.12 2506.8C1935.52 2506.8 1913.15 2528.58 1913.15 2555.44C1913.15 2582.3 1935.52 2604.07 1963.12 2604.07Z" fill="#B9AFC8" fill-opacity="0.5"/>
</g>
<g filter="url(#filter12_f_168_317)">
<path fill-rule="evenodd" clip-rule="evenodd" d="M1823.21 975C2098.37 975 2321.43 757.858 2321.43 490C2321.43 222.142 2098.37 5 1823.21 5C1548.06 5 1325 222.142 1325 490C1325 757.858 1548.06 975 1823.21 975ZM1823.21 926.5C2070.85 926.5 2271.6 731.072 2271.6 490C2271.6 248.927 2070.85 53.4996 1823.21 53.4996C1575.57 53.4996 1374.82 248.927 1374.82 490C1374.82 731.072 1575.57 926.5 1823.21 926.5Z" fill="#B9AFC8" fill-opacity="0.5"/>
<path fill-rule="evenodd" clip-rule="evenodd" d="M1823.21 894.167C2052.51 894.167 2238.39 713.215 2238.39 490C2238.39 266.785 2052.51 85.8334 1823.21 85.8334C1593.92 85.8334 1408.04 266.785 1408.04 490C1408.04 713.215 1593.92 894.167 1823.21 894.167ZM1823.21 845.667C2024.99 845.667 2188.57 686.429 2188.57 490C2188.57 293.571 2024.99 134.333 1823.21 134.333C1621.43 134.333 1457.86 293.571 1457.86 490C1457.86 686.429 1621.43 845.667 1823.21 845.667Z" fill="#B9AFC8" fill-opacity="0.5"/>
<path fill-rule="evenodd" clip-rule="evenodd" d="M1823.21 813.334C2006.65 813.334 2155.35 668.573 2155.35 490.001C2155.35 311.429 2006.65 166.668 1823.21 166.668C1639.78 166.668 1491.07 311.429 1491.07 490.001C1491.07 668.573 1639.78 813.334 1823.21 813.334ZM1823.21 764.834C1979.13 764.834 2105.53 641.787 2105.53 490.001C2105.53 338.215 1979.13 215.167 1823.21 215.167C1667.29 215.167 1540.89 338.215 1540.89 490.001C1540.89 641.787 1667.29 764.834 1823.21 764.834Z" fill="#B9AFC8" fill-opacity="0.5"/>
<path fill-rule="evenodd" clip-rule="evenodd" d="M1823.21 732.5C1960.79 732.5 2072.32 623.929 2072.32 490C2072.32 356.071 1960.79 247.5 1823.21 247.5C1685.63 247.5 1574.11 356.071 1574.11 490C1574.11 623.929 1685.63 732.5 1823.21 732.5ZM1823.21 684C1933.27 684 2022.5 597.143 2022.5 490C2022.5 382.857 1933.27 296 1823.21 296C1713.15 296 1623.93 382.857 1623.93 490C1623.93 597.143 1713.15 684 1823.21 684Z" fill="#B9AFC8" fill-opacity="0.5"/>
<path fill-rule="evenodd" clip-rule="evenodd" d="M1823.21 651.667C1914.93 651.667 1989.28 579.287 1989.28 490.001C1989.28 400.715 1914.93 328.334 1823.21 328.334C1731.49 328.334 1657.14 400.715 1657.14 490.001C1657.14 579.287 1731.49 651.667 1823.21 651.667ZM1823.21 603.168C1887.41 603.168 1939.46 552.502 1939.46 490.001C1939.46 427.501 1887.41 376.835 1823.21 376.835C1759.01 376.835 1706.96 427.501 1706.96 490.001C1706.96 552.502 1759.01 603.168 1823.21 603.168Z" fill="#B9AFC8" fill-opacity="0.5"/>
</g>
<g filter="url(#filter13_f_168_317)">
<path fill-rule="evenodd" clip-rule="evenodd" d="M1963.32 4530.33C2205.95 4530.33 2402.64 4338.86 2402.64 4102.67C2402.64 3866.47 2205.95 3675 1963.32 3675C1720.69 3675 1524 3866.47 1524 4102.67C1524 4338.86 1720.69 4530.33 1963.32 4530.33ZM1963.32 4487.57C2181.68 4487.57 2358.7 4315.24 2358.7 4102.67C2358.7 3890.09 2181.68 3717.77 1963.32 3717.77C1744.95 3717.77 1567.93 3890.09 1567.93 4102.67C1567.93 4315.24 1744.95 4487.57 1963.32 4487.57Z" fill="#B9AFC8" fill-opacity="0.5"/>
<path fill-rule="evenodd" clip-rule="evenodd" d="M1963.32 4459.06C2165.51 4459.06 2329.42 4299.5 2329.42 4102.67C2329.42 3905.84 2165.51 3746.28 1963.32 3746.28C1761.13 3746.28 1597.22 3905.84 1597.22 4102.67C1597.22 4299.5 1761.13 4459.06 1963.32 4459.06ZM1963.32 4416.29C2141.25 4416.29 2285.48 4275.88 2285.48 4102.67C2285.48 3929.46 2141.25 3789.04 1963.32 3789.04C1785.39 3789.04 1641.15 3929.46 1641.15 4102.67C1641.15 4275.88 1785.39 4416.29 1963.32 4416.29Z" fill="#B9AFC8" fill-opacity="0.5"/>
<path fill-rule="evenodd" clip-rule="evenodd" d="M1963.32 4387.78C2125.07 4387.78 2256.2 4260.13 2256.2 4102.67C2256.2 3945.21 2125.07 3817.56 1963.32 3817.56C1801.57 3817.56 1670.44 3945.21 1670.44 4102.67C1670.44 4260.13 1801.57 4387.78 1963.32 4387.78ZM1963.32 4345.01C2100.81 4345.01 2212.26 4236.51 2212.26 4102.67C2212.26 3968.82 2100.81 3860.32 1963.32 3860.32C1825.83 3860.32 1714.37 3968.82 1714.37 4102.67C1714.37 4236.51 1825.83 4345.01 1963.32 4345.01Z" fill="#B9AFC8" fill-opacity="0.5"/>
<path fill-rule="evenodd" clip-rule="evenodd" d="M1963.32 4316.5C2084.63 4316.5 2182.98 4220.76 2182.98 4102.67C2182.98 3984.57 2084.63 3888.83 1963.32 3888.83C1842 3888.83 1743.66 3984.57 1743.66 4102.67C1743.66 4220.76 1842 4316.5 1963.32 4316.5ZM1963.32 4273.73C2060.37 4273.73 2139.04 4197.14 2139.04 4102.67C2139.04 4008.19 2060.37 3931.6 1963.32 3931.6C1866.27 3931.6 1787.59 4008.19 1787.59 4102.67C1787.59 4197.14 1866.27 4273.73 1963.32 4273.73Z" fill="#B9AFC8" fill-opacity="0.5"/>
<path fill-rule="evenodd" clip-rule="evenodd" d="M1963.32 4245.22C2044.19 4245.22 2109.76 4181.4 2109.76 4102.67C2109.76 4023.94 2044.19 3960.11 1963.32 3960.11C1882.44 3960.11 1816.88 4023.94 1816.88 4102.67C1816.88 4181.4 1882.44 4245.22 1963.32 4245.22ZM1963.32 4202.46C2019.93 4202.46 2065.82 4157.78 2065.82 4102.67C2065.82 4047.56 2019.93 4002.88 1963.32 4002.88C1906.7 4002.88 1860.81 4047.56 1860.81 4102.67C1860.81 4157.78 1906.7 4202.46 1963.32 4202.46Z" fill="#B9AFC8" fill-opacity="0.5"/>
</g>
<g filter="url(#filter14_f_168_317)">
<path fill-rule="evenodd" clip-rule="evenodd" d="M2010.07 1764.33C2164.19 1764.33 2289.14 1642.7 2289.14 1492.67C2289.14 1342.63 2164.19 1221 2010.07 1221C1855.94 1221 1731 1342.63 1731 1492.67C1731 1642.7 1855.94 1764.33 2010.07 1764.33ZM2010.07 1737.17C2148.78 1737.17 2261.23 1627.7 2261.23 1492.67C2261.23 1357.63 2148.78 1248.17 2010.07 1248.17C1871.36 1248.17 1758.91 1357.63 1758.91 1492.67C1758.91 1627.7 1871.36 1737.17 2010.07 1737.17Z" fill="#B9AFC8" fill-opacity="0.5"/>
<path fill-rule="evenodd" clip-rule="evenodd" d="M2010.07 1719.06C2138.51 1719.06 2242.62 1617.7 2242.62 1492.67C2242.62 1367.64 2138.51 1266.28 2010.07 1266.28C1881.63 1266.28 1777.51 1367.64 1777.51 1492.67C1777.51 1617.7 1881.63 1719.06 2010.07 1719.06ZM2010.07 1691.89C2123.09 1691.89 2214.72 1602.69 2214.72 1492.67C2214.72 1382.64 2123.09 1293.44 2010.07 1293.44C1897.04 1293.44 1805.42 1382.64 1805.42 1492.67C1805.42 1602.69 1897.04 1691.89 2010.07 1691.89Z" fill="#B9AFC8" fill-opacity="0.5"/>
<path fill-rule="evenodd" clip-rule="evenodd" d="M2010.07 1673.78C2112.82 1673.78 2196.11 1592.69 2196.11 1492.67C2196.11 1392.64 2112.82 1311.56 2010.07 1311.56C1907.32 1311.56 1824.02 1392.64 1824.02 1492.67C1824.02 1592.69 1907.32 1673.78 2010.07 1673.78ZM2010.07 1646.61C2097.41 1646.61 2168.21 1577.69 2168.21 1492.67C2168.21 1407.65 2097.41 1338.72 2010.07 1338.72C1922.73 1338.72 1851.93 1407.65 1851.93 1492.67C1851.93 1577.69 1922.73 1646.61 2010.07 1646.61Z" fill="#B9AFC8" fill-opacity="0.5"/>
<path fill-rule="evenodd" clip-rule="evenodd" d="M2010.07 1628.5C2087.13 1628.5 2149.6 1567.69 2149.6 1492.67C2149.6 1417.65 2087.13 1356.83 2010.07 1356.83C1933.01 1356.83 1870.53 1417.65 1870.53 1492.67C1870.53 1567.69 1933.01 1628.5 2010.07 1628.5ZM2010.07 1601.33C2071.72 1601.33 2121.7 1552.68 2121.7 1492.67C2121.7 1432.65 2071.72 1384 2010.07 1384C1948.42 1384 1898.44 1432.65 1898.44 1492.67C1898.44 1552.68 1948.42 1601.33 2010.07 1601.33Z" fill="#B9AFC8" fill-opacity="0.5"/>
<path fill-rule="evenodd" clip-rule="evenodd" d="M2010.07 1583.22C2061.44 1583.22 2103.09 1542.68 2103.09 1492.67C2103.09 1442.66 2061.44 1402.11 2010.07 1402.11C1958.69 1402.11 1917.05 1442.66 1917.05 1492.67C1917.05 1542.68 1958.69 1583.22 2010.07 1583.22ZM2010.07 1556.06C2046.03 1556.06 2075.18 1527.68 2075.18 1492.67C2075.18 1457.66 2046.03 1429.28 2010.07 1429.28C1974.11 1429.28 1944.95 1457.66 1944.95 1492.67C1944.95 1527.68 1974.11 1556.06 2010.07 1556.06Z" fill="#B9AFC8" fill-opacity="0.5"/>
</g>
<g filter="url(#filter15_f_168_317)">
<path fill-rule="evenodd" clip-rule="evenodd" d="M1708 2336.14C1873.13 2336.14 2007 2205.82 2007 2045.07C2007 1884.32 1873.13 1754 1708 1754C1542.87 1754 1409 1884.32 1409 2045.07C1409 2205.82 1542.87 2336.14 1708 2336.14ZM1708 2307.03C1856.62 2307.03 1977.1 2189.75 1977.1 2045.07C1977.1 1900.39 1856.62 1783.11 1708 1783.11C1559.38 1783.11 1438.9 1900.39 1438.9 2045.07C1438.9 2189.75 1559.38 2307.03 1708 2307.03Z" fill="#B9AFC8" fill-opacity="0.5"/>
<path fill-rule="evenodd" clip-rule="evenodd" d="M1708 2287.63C1845.61 2287.63 1957.17 2179.03 1957.17 2045.07C1957.17 1911.11 1845.61 1802.51 1708 1802.51C1570.39 1802.51 1458.83 1911.11 1458.83 2045.07C1458.83 2179.03 1570.39 2287.63 1708 2287.63ZM1708 2258.52C1829.1 2258.52 1927.27 2162.96 1927.27 2045.07C1927.27 1927.18 1829.1 1831.62 1708 1831.62C1586.9 1831.62 1488.73 1927.18 1488.73 2045.07C1488.73 2162.96 1586.9 2258.52 1708 2258.52Z" fill="#B9AFC8" fill-opacity="0.5"/>
<path fill-rule="evenodd" clip-rule="evenodd" d="M1708 2239.12C1818.09 2239.12 1907.33 2152.24 1907.33 2045.07C1907.33 1937.9 1818.09 1851.02 1708 1851.02C1597.91 1851.02 1508.67 1937.9 1508.67 2045.07C1508.67 2152.24 1597.91 2239.12 1708 2239.12ZM1708 2210.01C1801.57 2210.01 1877.43 2136.16 1877.43 2045.07C1877.43 1953.98 1801.57 1880.13 1708 1880.13C1614.42 1880.13 1538.57 1953.98 1538.57 2045.07C1538.57 2136.16 1614.42 2210.01 1708 2210.01Z" fill="#B9AFC8" fill-opacity="0.5"/>
<path fill-rule="evenodd" clip-rule="evenodd" d="M1708 2190.61C1790.57 2190.61 1857.5 2125.45 1857.5 2045.07C1857.5 1964.69 1790.57 1899.54 1708 1899.54C1625.43 1899.54 1558.5 1964.69 1558.5 2045.07C1558.5 2125.45 1625.43 2190.61 1708 2190.61ZM1708 2161.5C1774.05 2161.5 1827.6 2109.37 1827.6 2045.07C1827.6 1980.77 1774.05 1928.64 1708 1928.64C1641.95 1928.64 1588.4 1980.77 1588.4 2045.07C1588.4 2109.37 1641.95 2161.5 1708 2161.5Z" fill="#B9AFC8" fill-opacity="0.5"/>
<path fill-rule="evenodd" clip-rule="evenodd" d="M1708 2142.09C1763.04 2142.09 1807.67 2098.66 1807.67 2045.07C1807.67 1991.49 1763.04 1948.05 1708 1948.05C1652.96 1948.05 1608.33 1991.49 1608.33 2045.07C1608.33 2098.66 1652.96 2142.09 1708 2142.09ZM1708 2112.99C1746.53 2112.99 1777.77 2082.58 1777.77 2045.07C1777.77 2007.56 1746.53 1977.16 1708 1977.16C1669.47 1977.16 1638.23 2007.56 1638.23 2045.07C1638.23 2082.58 1669.47 2112.99 1708 2112.99Z" fill="#B9AFC8" fill-opacity="0.5"/>
</g>
<g filter="url(#filter16_f_168_317)">
<path fill-rule="evenodd" clip-rule="evenodd" d="M678.621 844C889.384 844 1060.24 677.674 1060.24 472.5C1060.24 267.326 889.384 101 678.621 101C467.857 101 297 267.326 297 472.5C297 677.674 467.857 844 678.621 844ZM678.621 806.85C868.307 806.85 1022.08 657.156 1022.08 472.5C1022.08 287.843 868.307 138.15 678.621 138.15C488.934 138.15 335.162 287.843 335.162 472.5C335.162 657.156 488.934 806.85 678.621 806.85Z" fill="#B9AFC8" fill-opacity="0.5"/>
<path fill-rule="evenodd" clip-rule="evenodd" d="M678.621 782.083C854.257 782.083 996.638 643.478 996.638 472.5C996.638 301.522 854.257 162.917 678.621 162.917C502.985 162.917 360.604 301.522 360.604 472.5C360.604 643.478 502.985 782.083 678.621 782.083ZM678.621 744.933C833.18 744.933 958.476 622.961 958.476 472.5C958.476 322.039 833.18 200.067 678.621 200.067C524.061 200.067 398.766 322.039 398.766 472.5C398.766 622.961 524.061 744.933 678.621 744.933Z" fill="#B9AFC8" fill-opacity="0.5"/>
<path fill-rule="evenodd" clip-rule="evenodd" d="M678.621 720.167C819.129 720.167 933.034 609.283 933.034 472.501C933.034 335.718 819.129 224.834 678.621 224.834C538.112 224.834 424.207 335.718 424.207 472.501C424.207 609.283 538.112 720.167 678.621 720.167ZM678.62 683.017C798.053 683.017 894.872 588.766 894.872 472.501C894.872 356.235 798.053 261.984 678.62 261.984C559.188 261.984 462.368 356.235 462.368 472.501C462.368 588.766 559.188 683.017 678.62 683.017Z" fill="#B9AFC8" fill-opacity="0.5"/>
<path fill-rule="evenodd" clip-rule="evenodd" d="M678.62 658.25C784.002 658.25 869.431 575.087 869.431 472.5C869.431 369.913 784.002 286.75 678.62 286.75C573.239 286.75 487.81 369.913 487.81 472.5C487.81 575.087 573.239 658.25 678.62 658.25ZM678.62 621.1C762.926 621.1 831.269 554.569 831.269 472.5C831.269 390.43 762.926 323.9 678.62 323.9C594.315 323.9 525.972 390.43 525.972 472.5C525.972 554.569 594.315 621.1 678.62 621.1Z" fill="#B9AFC8" fill-opacity="0.5"/>
<path fill-rule="evenodd" clip-rule="evenodd" d="M678.621 596.334C748.875 596.334 805.828 540.892 805.828 472.501C805.828 404.109 748.875 348.667 678.621 348.667C608.367 348.667 551.414 404.109 551.414 472.501C551.414 540.892 608.367 596.334 678.621 596.334ZM678.62 559.184C727.798 559.184 767.665 520.375 767.665 472.501C767.665 424.627 727.798 385.818 678.62 385.818C629.442 385.818 589.575 424.627 589.575 472.501C589.575 520.375 629.442 559.184 678.62 559.184Z" fill="#B9AFC8" fill-opacity="0.5"/>
</g>
<defs>
<filter id="filter0_f_168_317" x="22" y="3488" width="950" height="925.071" filterUnits="userSpaceOnUse" color-interpolation-filters="sRGB">
<feFlood flood-opacity="0" result="BackgroundImageFix"/>
<feBlend mode="normal" in="SourceGraphic" in2="BackgroundImageFix" result="shape"/>
<feGaussianBlur stdDeviation="2.5" result="effect1_foregroundBlur_168_317"/>
</filter>
<filter id="filter1_f_168_317" x="469" y="4273" width="1295" height="1260.92" filterUnits="userSpaceOnUse" color-interpolation-filters="sRGB">
<feFlood flood-opacity="0" result="BackgroundImageFix"/>
<feBlend mode="normal" in="SourceGraphic" in2="BackgroundImageFix" result="shape"/>
<feGaussianBlur stdDeviation="2.5" result="effect1_foregroundBlur_168_317"/>
</filter>
<filter id="filter2_f_168_317" x="1434" y="5973" width="965.256" height="939.923" filterUnits="userSpaceOnUse" color-interpolation-filters="sRGB">
<feFlood flood-opacity="0" result="BackgroundImageFix"/>
<feBlend mode="normal" in="SourceGraphic" in2="BackgroundImageFix" result="shape"/>
<feGaussianBlur stdDeviation="2.5" result="effect1_foregroundBlur_168_317"/>
</filter>
<filter id="filter3_f_168_317" x="242" y="984" width="726" height="707.012" filterUnits="userSpaceOnUse" color-interpolation-filters="sRGB">
<feFlood flood-opacity="0" result="BackgroundImageFix"/>
<feBlend mode="normal" in="SourceGraphic" in2="BackgroundImageFix" result="shape"/>
<feGaussianBlur stdDeviation="2.5" result="effect1_foregroundBlur_168_317"/>
</filter>
<filter id="filter4_f_168_317" x="0" y="5802" width="1163" height="1132.42" filterUnits="userSpaceOnUse" color-interpolation-filters="sRGB">
<feFlood flood-opacity="0" result="BackgroundImageFix"/>
<feBlend mode="normal" in="SourceGraphic" in2="BackgroundImageFix" result="shape"/>
<feGaussianBlur stdDeviation="2.5" result="effect1_foregroundBlur_168_317"/>
</filter>
<filter id="filter5_f_168_317" x="71" y="1749" width="1112.23" height="1083" filterUnits="userSpaceOnUse" color-interpolation-filters="sRGB">
<feFlood flood-opacity="0" result="BackgroundImageFix"/>
<feBlend mode="normal" in="SourceGraphic" in2="BackgroundImageFix" result="shape"/>
<feGaussianBlur stdDeviation="2.5" result="effect1_foregroundBlur_168_317"/>
</filter>
<filter id="filter6_f_168_317" x="1752" y="5141" width="744" height="724.534" filterUnits="userSpaceOnUse" color-interpolation-filters="sRGB">
<feFlood flood-opacity="0" result="BackgroundImageFix"/>
<feBlend mode="normal" in="SourceGraphic" in2="BackgroundImageFix" result="shape"/>
<feGaussianBlur stdDeviation="2.5" result="effect1_foregroundBlur_168_317"/>
</filter>
<filter id="filter7_f_168_317" x="962" y="3248" width="414" height="403.286" filterUnits="userSpaceOnUse" color-interpolation-filters="sRGB">
<feFlood flood-opacity="0" result="BackgroundImageFix"/>
<feBlend mode="normal" in="SourceGraphic" in2="BackgroundImageFix" result="shape"/>
<feGaussianBlur stdDeviation="2.5" result="effect1_foregroundBlur_168_317"/>
</filter>
<filter id="filter8_f_168_317" x="302" y="2883" width="525" height="511.342" filterUnits="userSpaceOnUse" color-interpolation-filters="sRGB">
<feFlood flood-opacity="0" result="BackgroundImageFix"/>
<feBlend mode="normal" in="SourceGraphic" in2="BackgroundImageFix" result="shape"/>
<feGaussianBlur stdDeviation="2.5" result="effect1_foregroundBlur_168_317"/>
</filter>
<filter id="filter9_f_168_317" x="1173" y="2703" width="541.084" height="527" filterUnits="userSpaceOnUse" color-interpolation-filters="sRGB">
<feFlood flood-opacity="0" result="BackgroundImageFix"/>
<feBlend mode="normal" in="SourceGraphic" in2="BackgroundImageFix" result="shape"/>
<feGaussianBlur stdDeviation="2.5" result="effect1_foregroundBlur_168_317"/>
</filter>
<filter id="filter10_f_168_317" x="1887" y="2906" width="698" height="679.754" filterUnits="userSpaceOnUse" color-interpolation-filters="sRGB">
<feFlood flood-opacity="0" result="BackgroundImageFix"/>
<feBlend mode="normal" in="SourceGraphic" in2="BackgroundImageFix" result="shape"/>
<feGaussianBlur stdDeviation="2.5" result="effect1_foregroundBlur_168_317"/>
</filter>
<filter id="filter11_f_168_317" x="1744" y="2342" width="438.231" height="426.875" filterUnits="userSpaceOnUse" color-interpolation-filters="sRGB">
<feFlood flood-opacity="0" result="BackgroundImageFix"/>
<feBlend mode="normal" in="SourceGraphic" in2="BackgroundImageFix" result="shape"/>
<feGaussianBlur stdDeviation="2.5" result="effect1_foregroundBlur_168_317"/>
</filter>
<filter id="filter12_f_168_317" x="1320" y="0" width="1006.43" height="980" filterUnits="userSpaceOnUse" color-interpolation-filters="sRGB">
<feFlood flood-opacity="0" result="BackgroundImageFix"/>
<feBlend mode="normal" in="SourceGraphic" in2="BackgroundImageFix" result="shape"/>
<feGaussianBlur stdDeviation="2.5" result="effect1_foregroundBlur_168_317"/>
</filter>
<filter id="filter13_f_168_317" x="1520.5" y="3671.5" width="885.636" height="862.334" filterUnits="userSpaceOnUse" color-interpolation-filters="sRGB">
<feFlood flood-opacity="0" result="BackgroundImageFix"/>
<feBlend mode="normal" in="SourceGraphic" in2="BackgroundImageFix" result="shape"/>
<feGaussianBlur stdDeviation="1.75" result="effect1_foregroundBlur_168_317"/>
</filter>
<filter id="filter14_f_168_317" x="1727.5" y="1217.5" width="565.136" height="550.334" filterUnits="userSpaceOnUse" color-interpolation-filters="sRGB">
<feFlood flood-opacity="0" result="BackgroundImageFix"/>
<feBlend mode="normal" in="SourceGraphic" in2="BackgroundImageFix" result="shape"/>
<feGaussianBlur stdDeviation="1.75" result="effect1_foregroundBlur_168_317"/>
</filter>
<filter id="filter15_f_168_317" x="1405.5" y="1750.5" width="605" height="589.141" filterUnits="userSpaceOnUse" color-interpolation-filters="sRGB">
<feFlood flood-opacity="0" result="BackgroundImageFix"/>
<feBlend mode="normal" in="SourceGraphic" in2="BackgroundImageFix" result="shape"/>
<feGaussianBlur stdDeviation="1.75" result="effect1_foregroundBlur_168_317"/>
</filter>
<filter id="filter16_f_168_317" x="293.5" y="97.5" width="770.241" height="750" filterUnits="userSpaceOnUse" color-interpolation-filters="sRGB">
<feFlood flood-opacity="0" result="BackgroundImageFix"/>
<feBlend mode="normal" in="SourceGraphic" in2="BackgroundImageFix" result="shape"/>
<feGaussianBlur stdDeviation="1.75" result="effect1_foregroundBlur_168_317"/>
</filter>
</defs>
</svg>
