<svg width="892" height="87" viewBox="0 0 892 87" fill="none" xmlns="http://www.w3.org/2000/svg">
<g filter="url(#filter0_d_305_3)">
<rect x="5" y="1" width="882" height="77" rx="38.5" fill="url(#paint0_linear_305_3)" shape-rendering="crispEdges"/>
<rect x="4.75" y="0.75" width="882.5" height="77.5" rx="38.75" stroke="white" stroke-width="0.5" shape-rendering="crispEdges"/>
</g>
<path d="M34.6797 26.4746V53H33.0801V24.875H50.6582V53H49.0762V26.4746H34.6797ZM58.4805 49.7656C59.9688 51.125 61.7383 51.8047 63.7891 51.8047C65.9922 51.8047 67.873 51.0254 69.4316 49.4668C69.6309 49.2676 69.8184 49.0625 69.9941 48.8516L71.6641 49.4492C71.3594 49.8711 71.0137 50.2754 70.627 50.6621C68.7402 52.5488 66.4609 53.4922 63.7891 53.4922C61.1289 53.4922 58.8555 52.5488 56.9688 50.6621C55.082 48.7754 54.1387 46.4961 54.1387 43.8242C54.1387 41.1641 55.082 38.8906 56.9688 37.0039C58.8555 35.1172 61.1289 34.1738 63.7891 34.1738C66.0742 34.1738 68.0723 34.8594 69.7832 36.2305C70.0645 36.4648 70.3457 36.7227 70.627 37.0039C70.7324 37.1094 70.832 37.2148 70.9258 37.3203L69.7305 38.5156L58.4805 49.7656ZM68.5703 37.4434C67.1992 36.3887 65.6055 35.8613 63.7891 35.8613C61.5977 35.8613 59.7227 36.6406 58.1641 38.1992C56.6055 39.7461 55.8262 41.6211 55.8262 43.8242C55.8262 45.6406 56.3535 47.2344 57.4082 48.6055L68.5703 37.4434ZM75.9004 35.7383H77.4824V38.1641C77.7754 37.7656 78.1094 37.3789 78.4844 37.0039C80.3711 35.1289 82.6445 34.1914 85.3047 34.1914C87.9766 34.1914 90.25 35.1348 92.125 37.0215C94.0117 38.8965 94.9551 41.1699 94.9551 43.8418C94.9551 46.502 94.0117 48.7754 92.125 50.6621C90.25 52.5488 87.9766 53.4922 85.3047 53.4922C82.6445 53.4922 80.3711 52.5488 78.4844 50.6621C78.1094 50.2871 77.7754 49.9004 77.4824 49.502V59.5918H75.9004V35.7383ZM77.4824 42.1895V45.4941C77.7871 47.0059 78.5137 48.3359 79.6621 49.4844C81.2207 51.043 83.1016 51.8223 85.3047 51.8223C87.5078 51.8223 89.3887 51.043 90.9473 49.4844C92.5059 47.9258 93.2852 46.0449 93.2852 43.8418C93.2852 41.6387 92.5059 39.7578 90.9473 38.1992C89.3887 36.6406 87.5078 35.8613 85.3047 35.8613C83.1016 35.8613 81.2207 36.6406 79.6621 38.1992C78.5137 39.3477 77.7871 40.6777 77.4824 42.1895ZM100.264 43.4727H105.186V43.4551C106.322 43.4082 107.195 43.0742 107.805 42.4531C108.426 41.832 108.736 41.1406 108.736 40.3789C108.736 39.6172 108.426 38.9316 107.805 38.3223C107.195 37.7012 106.322 37.3613 105.186 37.3027V37.2852H100.264V43.4727ZM100.264 45.2305V51.418H105.186V51.4004C106.322 51.3418 107.195 51.0078 107.805 50.3984C108.426 49.7773 108.736 49.0859 108.736 48.3242C108.736 47.5625 108.426 46.8711 107.805 46.25C107.195 45.6289 106.322 45.2949 105.186 45.248V45.2305H100.264ZM98.6992 35.7031H105.238V35.7207C106.762 35.791 107.992 36.2949 108.93 37.2324C109.867 38.1582 110.336 39.207 110.336 40.3789V40.3965C110.336 41.5566 109.873 42.6055 108.947 43.543C108.607 43.8711 108.25 44.1406 107.875 44.3516C108.25 44.5625 108.607 44.8262 108.947 45.1426C109.873 46.0918 110.336 47.1465 110.336 48.3066V48.3242C110.336 49.4961 109.867 50.5508 108.93 51.4883C107.992 52.4141 106.762 52.9121 105.238 52.9824V53H98.6992V35.7031ZM122.957 34.1738C125.629 34.1738 127.902 35.1172 129.777 37.0039C131.664 38.8906 132.607 41.1699 132.607 43.8418C132.607 46.502 131.664 48.7754 129.777 50.6621C127.902 52.5488 125.629 53.4922 122.957 53.4922C120.297 53.4922 118.023 52.5488 116.137 50.6621C114.25 48.7754 113.307 46.502 113.307 43.8418C113.307 41.1699 114.25 38.8906 116.137 37.0039C118.023 35.1172 120.297 34.1738 122.957 34.1738ZM122.957 35.8613C120.754 35.8613 118.873 36.6406 117.314 38.1992C115.756 39.7578 114.977 41.6387 114.977 43.8418C114.977 46.0449 115.756 47.9258 117.314 49.4844C118.873 51.0312 120.754 51.8047 122.957 51.8047C125.16 51.8047 127.041 51.0312 128.6 49.4844C130.158 47.9258 130.938 46.0449 130.938 43.8418C130.938 41.6387 130.158 39.7578 128.6 38.1992C127.041 36.6406 125.16 35.8613 122.957 35.8613ZM140.113 49.7656C141.602 51.125 143.371 51.8047 145.422 51.8047C147.625 51.8047 149.506 51.0254 151.064 49.4668C151.264 49.2676 151.451 49.0625 151.627 48.8516L153.297 49.4492C152.992 49.8711 152.646 50.2754 152.26 50.6621C150.373 52.5488 148.094 53.4922 145.422 53.4922C142.762 53.4922 140.488 52.5488 138.602 50.6621C136.715 48.7754 135.771 46.4961 135.771 43.8242C135.771 41.1641 136.715 38.8906 138.602 37.0039C140.488 35.1172 142.762 34.1738 145.422 34.1738C147.707 34.1738 149.705 34.8594 151.416 36.2305C151.697 36.4648 151.979 36.7227 152.26 37.0039C152.365 37.1094 152.465 37.2148 152.559 37.3203L151.363 38.5156L140.113 49.7656ZM150.203 37.4434C148.832 36.3887 147.238 35.8613 145.422 35.8613C143.23 35.8613 141.355 36.6406 139.797 38.1992C138.238 39.7461 137.459 41.6211 137.459 43.8242C137.459 45.6406 137.986 47.2344 139.041 48.6055L150.203 37.4434ZM170.893 43.4727H175.814V43.4551C176.951 43.4082 177.824 43.0742 178.434 42.4531C179.055 41.832 179.365 41.1406 179.365 40.3789C179.365 39.6172 179.055 38.9316 178.434 38.3223C177.824 37.7012 176.951 37.3613 175.814 37.3027V37.2852H170.893V43.4727ZM170.893 45.2305V51.418H175.814V51.4004C176.951 51.3418 177.824 51.0078 178.434 50.3984C179.055 49.7773 179.365 49.0859 179.365 48.3242C179.365 47.5625 179.055 46.8711 178.434 46.25C177.824 45.6289 176.951 45.2949 175.814 45.248V45.2305H170.893ZM169.328 35.7031H175.867V35.7207C177.391 35.791 178.621 36.2949 179.559 37.2324C180.496 38.1582 180.965 39.207 180.965 40.3789V40.3965C180.965 41.5566 180.502 42.6055 179.576 43.543C179.236 43.8711 178.879 44.1406 178.504 44.3516C178.879 44.5625 179.236 44.8262 179.576 45.1426C180.502 46.0918 180.965 47.1465 180.965 48.3066V48.3242C180.965 49.4961 180.496 50.5508 179.559 51.4883C178.621 52.4141 177.391 52.9121 175.867 52.9824V53H169.328V35.7031ZM212.764 41.3457C212.389 40.1973 211.732 39.1484 210.795 38.1992C209.236 36.6406 207.355 35.8613 205.152 35.8613C202.949 35.8613 201.068 36.6406 199.51 38.1992C198.865 38.8438 198.361 39.5645 197.998 40.3613H196.223C196.621 39.1309 197.318 38.0117 198.314 37.0039C200.189 35.1289 202.469 34.1914 205.152 34.1914C207.801 34.1914 210.068 35.1348 211.955 37.0215C213.854 38.8965 214.803 41.1758 214.803 43.8594C214.803 46.5078 213.854 48.7754 211.955 50.6621C210.068 52.5488 207.801 53.4922 205.152 53.4922C202.469 53.4922 200.189 52.5488 198.314 50.6621C197.939 50.2988 197.641 49.9824 197.418 49.7129H199.756C201.268 51.1074 203.066 51.8047 205.152 51.8047C207.355 51.8047 209.236 51.0312 210.795 49.4844C212.354 47.9375 213.133 46.0625 213.133 43.8594C213.133 43.543 213.109 43.2441 213.062 42.9629H202.27V41.3457H212.764ZM226.598 37.3379V53H225.033V37.3379H217.914V35.7383H233.734V37.3379H226.598ZM246.566 34.1738C249.238 34.1738 251.512 35.1172 253.387 37.0039C255.273 38.8906 256.217 41.1699 256.217 43.8418C256.217 46.502 255.273 48.7754 253.387 50.6621C251.512 52.5488 249.238 53.4922 246.566 53.4922C243.906 53.4922 241.633 52.5488 239.746 50.6621C237.859 48.7754 236.916 46.502 236.916 43.8418C236.916 41.1699 237.859 38.8906 239.746 37.0039C241.633 35.1172 243.906 34.1738 246.566 34.1738ZM246.566 35.8613C244.363 35.8613 242.482 36.6406 240.924 38.1992C239.365 39.7578 238.586 41.6387 238.586 43.8418C238.586 46.0449 239.365 47.9258 240.924 49.4844C242.482 51.0312 244.363 51.8047 246.566 51.8047C248.77 51.8047 250.65 51.0312 252.209 49.4844C253.768 47.9258 254.547 46.0449 254.547 43.8418C254.547 41.6387 253.768 39.7578 252.209 38.1992C250.65 36.6406 248.77 35.8613 246.566 35.8613ZM267.555 50.6445L274.006 35.7383H275.693V53H274.111V39.6406L268.328 53H266.764L260.963 39.6406V53H259.398V35.7383H261.086L267.555 50.6445ZM293.799 59.5742H292.023L296.576 49.8008L290.02 35.7383H291.795L297.455 47.7969L303.15 35.7383H304.908L293.799 59.5742ZM322.855 38.7266V35.6152H324.438V53H322.855V43.1562C322.598 43.5312 322.299 43.877 321.959 44.1934C320.33 45.8223 318.15 46.6367 315.42 46.6367C312.689 46.6367 310.545 45.8223 308.986 44.1934C307.416 42.5879 306.631 40.0625 306.631 36.6172V35.6152H308.354L308.336 36.7754C308.336 39.5762 308.998 41.7031 310.322 43.1562C311.6 44.5508 313.264 45.248 315.314 45.248H315.613C317.805 45.1777 319.562 44.4453 320.887 43.0508C322.082 41.8086 322.738 40.3672 322.855 38.7266ZM332.172 49.7656C333.66 51.125 335.43 51.8047 337.48 51.8047C339.684 51.8047 341.564 51.0254 343.123 49.4668C343.322 49.2676 343.51 49.0625 343.686 48.8516L345.355 49.4492C345.051 49.8711 344.705 50.2754 344.318 50.6621C342.432 52.5488 340.152 53.4922 337.48 53.4922C334.82 53.4922 332.547 52.5488 330.66 50.6621C328.773 48.7754 327.83 46.4961 327.83 43.8242C327.83 41.1641 328.773 38.8906 330.66 37.0039C332.547 35.1172 334.82 34.1738 337.48 34.1738C339.766 34.1738 341.764 34.8594 343.475 36.2305C343.756 36.4648 344.037 36.7227 344.318 37.0039C344.424 37.1094 344.523 37.2148 344.617 37.3203L343.422 38.5156L332.172 49.7656ZM342.262 37.4434C340.891 36.3887 339.297 35.8613 337.48 35.8613C335.289 35.8613 333.414 36.6406 331.855 38.1992C330.297 39.7461 329.518 41.6211 329.518 43.8242C329.518 45.6406 330.045 47.2344 331.1 48.6055L342.262 37.4434ZM353.67 38.2168C352.111 39.7754 351.332 41.6562 351.332 43.8594C351.332 46.0625 352.111 47.9375 353.67 49.4844C355.229 51.0312 357.109 51.8047 359.312 51.8047C361.516 51.8047 363.396 51.0312 364.955 49.4844C366.514 47.9375 367.293 46.0625 367.293 43.8594C367.293 41.6562 366.514 39.7754 364.955 38.2168C363.396 36.6465 361.516 35.8613 359.312 35.8613C357.109 35.8613 355.229 36.6465 353.67 38.2168ZM350.559 39.7285C351.027 38.7559 351.678 37.8477 352.51 37.0039C354.396 35.1289 356.664 34.1914 359.312 34.1914C361.984 34.1914 364.258 35.1348 366.133 37.0215C368.02 38.8965 368.963 41.1758 368.963 43.8594C368.963 46.5078 368.02 48.7754 366.133 50.6621C364.258 52.5488 361.984 53.4922 359.312 53.4922C356.664 53.4922 354.396 52.5488 352.51 50.6621C350.822 48.9863 349.885 47.0059 349.697 44.7207H349.557C349.111 42.4941 348.889 40.4492 348.889 38.5859C348.889 34.8594 349.768 31.8066 351.525 29.4277C353.705 26.4863 356.225 25.0156 359.084 25.0156C359.682 25.0156 360.285 25.0742 360.895 25.1914C362.535 25.5312 363.865 25.7012 364.885 25.7012C366.115 25.7012 366.889 25.4551 367.205 24.9629V26.5273C366.889 26.9961 366.156 27.2305 365.008 27.2305C364.035 27.2305 362.758 27.0605 361.176 26.7207C360.555 26.5918 359.957 26.5273 359.383 26.5273C356.734 26.5273 354.49 27.8867 352.65 30.6055C351.232 32.6914 350.523 35.3281 350.523 38.5156C350.523 38.9141 350.535 39.3184 350.559 39.7285ZM386.664 53H385.1V44.457H373.568V53H372.004V35.7383H373.568V42.8574H385.1V35.7383H386.664V53ZM399.496 34.1738C402.168 34.1738 404.441 35.1172 406.316 37.0039C408.203 38.8906 409.146 41.1699 409.146 43.8418C409.146 46.502 408.203 48.7754 406.316 50.6621C404.441 52.5488 402.168 53.4922 399.496 53.4922C396.836 53.4922 394.562 52.5488 392.676 50.6621C390.789 48.7754 389.846 46.502 389.846 43.8418C389.846 41.1699 390.789 38.8906 392.676 37.0039C394.562 35.1172 396.836 34.1738 399.496 34.1738ZM399.496 35.8613C397.293 35.8613 395.412 36.6406 393.854 38.1992C392.295 39.7578 391.516 41.6387 391.516 43.8418C391.516 46.0449 392.295 47.9258 393.854 49.4844C395.412 51.0312 397.293 51.8047 399.496 51.8047C401.699 51.8047 403.58 51.0312 405.139 49.4844C406.697 47.9258 407.477 46.0449 407.477 43.8418C407.477 41.6387 406.697 39.7578 405.139 38.1992C403.58 36.6406 401.699 35.8613 399.496 35.8613ZM420.484 50.6445L426.936 35.7383H428.623V53H427.041V39.6406L421.258 53H419.693L413.893 39.6406V53H412.328V35.7383H414.016L420.484 50.6445ZM446.201 37.3379V53H444.637V35.7383H453.32V37.3379H446.201ZM465.977 34.1738C468.648 34.1738 470.922 35.1172 472.797 37.0039C474.684 38.8906 475.627 41.1699 475.627 43.8418C475.627 46.502 474.684 48.7754 472.797 50.6621C470.922 52.5488 468.648 53.4922 465.977 53.4922C463.316 53.4922 461.043 52.5488 459.156 50.6621C457.27 48.7754 456.326 46.502 456.326 43.8418C456.326 41.1699 457.27 38.8906 459.156 37.0039C461.043 35.1172 463.316 34.1738 465.977 34.1738ZM465.977 35.8613C463.773 35.8613 461.893 36.6406 460.334 38.1992C458.775 39.7578 457.996 41.6387 457.996 43.8418C457.996 46.0449 458.775 47.9258 460.334 49.4844C461.893 51.0312 463.773 51.8047 465.977 51.8047C468.18 51.8047 470.061 51.0312 471.619 49.4844C473.178 47.9258 473.957 46.0449 473.957 43.8418C473.957 41.6387 473.178 39.7578 471.619 38.1992C470.061 36.6406 468.18 35.8613 465.977 35.8613ZM493.697 51.2773H495.104V59.5918H493.521V53H479.775V59.5918H478.211V51.2773H479.617C479.652 51.2422 479.682 51.2188 479.705 51.207C482.201 48.7227 483.449 45.043 483.449 40.168C483.449 39.1719 483.396 38.2285 483.291 37.3379C483.221 36.7871 483.133 36.2539 483.027 35.7383H493.697V51.2773ZM481.691 51.418H492.133V37.3379H484.908C485.002 38.2285 485.049 39.1719 485.049 40.168C485.049 44.9141 483.93 48.6641 481.691 51.418ZM500.166 59.5742H498.391L502.943 49.8008L496.387 35.7383H498.162L503.822 47.7969L509.518 35.7383H511.275L500.166 59.5742ZM533.793 50.6445L540.244 35.7383H541.932V53H540.35V39.6406L534.566 53H533.002L527.201 39.6406V53H525.637V35.7383H527.324L533.793 50.6445ZM549.438 49.7656C550.926 51.125 552.695 51.8047 554.746 51.8047C556.949 51.8047 558.83 51.0254 560.389 49.4668C560.588 49.2676 560.775 49.0625 560.951 48.8516L562.621 49.4492C562.316 49.8711 561.971 50.2754 561.584 50.6621C559.697 52.5488 557.418 53.4922 554.746 53.4922C552.086 53.4922 549.812 52.5488 547.926 50.6621C546.039 48.7754 545.096 46.4961 545.096 43.8242C545.096 41.1641 546.039 38.8906 547.926 37.0039C549.812 35.1172 552.086 34.1738 554.746 34.1738C557.031 34.1738 559.029 34.8594 560.74 36.2305C561.021 36.4648 561.303 36.7227 561.584 37.0039C561.689 37.1094 561.789 37.2148 561.883 37.3203L560.688 38.5156L549.438 49.7656ZM559.527 37.4434C558.156 36.3887 556.562 35.8613 554.746 35.8613C552.555 35.8613 550.68 36.6406 549.121 38.1992C547.562 39.7461 546.783 41.6211 546.783 43.8242C546.783 45.6406 547.311 47.2344 548.365 48.6055L559.527 37.4434ZM566.857 35.7383H568.439V38.1641C568.732 37.7656 569.066 37.3789 569.441 37.0039C571.328 35.1289 573.602 34.1914 576.262 34.1914C578.934 34.1914 581.207 35.1348 583.082 37.0215C584.969 38.8965 585.912 41.1699 585.912 43.8418C585.912 46.502 584.969 48.7754 583.082 50.6621C581.207 52.5488 578.934 53.4922 576.262 53.4922C573.602 53.4922 571.328 52.5488 569.441 50.6621C569.066 50.2871 568.732 49.9004 568.439 49.502V59.5918H566.857V35.7383ZM568.439 42.1895V45.4941C568.744 47.0059 569.471 48.3359 570.619 49.4844C572.178 51.043 574.059 51.8223 576.262 51.8223C578.465 51.8223 580.346 51.043 581.904 49.4844C583.463 47.9258 584.242 46.0449 584.242 43.8418C584.242 41.6387 583.463 39.7578 581.904 38.1992C580.346 36.6406 578.465 35.8613 576.262 35.8613C574.059 35.8613 572.178 36.6406 570.619 38.1992C569.471 39.3477 568.744 40.6777 568.439 42.1895ZM598.902 34.1738C601.574 34.1738 603.848 35.1172 605.723 37.0039C607.609 38.8906 608.553 41.1699 608.553 43.8418C608.553 46.502 607.609 48.7754 605.723 50.6621C603.848 52.5488 601.574 53.4922 598.902 53.4922C596.242 53.4922 593.969 52.5488 592.082 50.6621C590.195 48.7754 589.252 46.502 589.252 43.8418C589.252 41.1699 590.195 38.8906 592.082 37.0039C593.969 35.1172 596.242 34.1738 598.902 34.1738ZM598.902 35.8613C596.699 35.8613 594.818 36.6406 593.26 38.1992C591.701 39.7578 590.922 41.6387 590.922 43.8418C590.922 46.0449 591.701 47.9258 593.26 49.4844C594.818 51.0312 596.699 51.8047 598.902 51.8047C601.105 51.8047 602.986 51.0312 604.545 49.4844C606.104 47.9258 606.883 46.0449 606.883 43.8418C606.883 41.6387 606.104 39.7578 604.545 38.1992C602.986 36.6406 601.105 35.8613 598.902 35.8613ZM613.492 37.3379V53H611.928V35.7383H626.588V53H625.023V37.3379H613.492ZM631.018 35.7383H632.6V38.1641C632.893 37.7656 633.227 37.3789 633.602 37.0039C635.488 35.1289 637.762 34.1914 640.422 34.1914C643.094 34.1914 645.367 35.1348 647.242 37.0215C649.129 38.8965 650.072 41.1699 650.072 43.8418C650.072 46.502 649.129 48.7754 647.242 50.6621C645.367 52.5488 643.094 53.4922 640.422 53.4922C637.762 53.4922 635.488 52.5488 633.602 50.6621C633.227 50.2871 632.893 49.9004 632.6 49.502V59.5918H631.018V35.7383ZM632.6 42.1895V45.4941C632.904 47.0059 633.631 48.3359 634.779 49.4844C636.338 51.043 638.219 51.8223 640.422 51.8223C642.625 51.8223 644.506 51.043 646.064 49.4844C647.623 47.9258 648.402 46.0449 648.402 43.8418C648.402 41.6387 647.623 39.7578 646.064 38.1992C644.506 36.6406 642.625 35.8613 640.422 35.8613C638.219 35.8613 636.338 36.6406 634.779 38.1992C633.631 39.3477 632.904 40.6777 632.6 42.1895ZM653.623 35.7383H655.188V50.3633L666.227 35.7383H667.932V53H666.35V38.252L655.188 52.9824V53H653.623V35.7383ZM682.012 37.3379H676.668V37.3555C675.52 37.4023 674.576 37.7305 673.838 38.3398C673.088 38.9609 672.713 39.7871 672.713 40.8184C672.713 41.8496 673.088 42.6699 673.838 43.2793C674.576 43.9004 675.52 44.2402 676.668 44.2988V44.3164H682.012V37.3379ZM683.576 35.7383V53H682.012V45.8984H677.775L677.406 46.7246L676.387 48.8867L674.471 53H672.73L676.07 45.8457C674.77 45.6934 673.656 45.207 672.73 44.3867C671.652 43.4492 671.113 42.2656 671.113 40.8359V40.8184C671.113 39.377 671.652 38.1875 672.73 37.25C673.785 36.3242 675.074 35.8262 676.598 35.7559V35.7383H683.576ZM695.863 37.3379V53H694.299V37.3379H687.18V35.7383H703V37.3379H695.863ZM706.393 35.7383H707.957V50.3633L718.996 35.7383H720.701V53H719.119V38.252L707.957 52.9824V53H706.393V35.7383ZM728.418 49.7656C729.906 51.125 731.676 51.8047 733.727 51.8047C735.93 51.8047 737.811 51.0254 739.369 49.4668C739.568 49.2676 739.756 49.0625 739.932 48.8516L741.602 49.4492C741.297 49.8711 740.951 50.2754 740.564 50.6621C738.678 52.5488 736.398 53.4922 733.727 53.4922C731.066 53.4922 728.793 52.5488 726.906 50.6621C725.02 48.7754 724.076 46.4961 724.076 43.8242C724.076 41.1641 725.02 38.8906 726.906 37.0039C728.793 35.1172 731.066 34.1738 733.727 34.1738C736.012 34.1738 738.01 34.8594 739.721 36.2305C740.002 36.4648 740.283 36.7227 740.564 37.0039C740.67 37.1094 740.77 37.2148 740.863 37.3203L739.668 38.5156L728.418 49.7656ZM738.508 37.4434C737.137 36.3887 735.543 35.8613 733.727 35.8613C731.535 35.8613 729.66 36.6406 728.102 38.1992C726.543 39.7461 725.764 41.6211 725.764 43.8242C725.764 45.6406 726.291 47.2344 727.346 48.6055L738.508 37.4434ZM756.754 27.3184C757.023 27.377 757.264 27.5117 757.475 27.7227C757.779 28.0273 757.932 28.4023 757.932 28.8477C757.932 29.2812 757.773 29.6504 757.457 29.9551C757.152 30.2598 756.783 30.4121 756.35 30.4121C755.916 30.4121 755.541 30.2598 755.225 29.9551C754.92 29.6504 754.768 29.2812 754.768 28.8477C754.768 28.6016 754.809 28.373 754.891 28.1621L756.613 24.6816H757.756L756.754 27.3184ZM761.184 27.3184C761.453 27.377 761.693 27.5117 761.904 27.7227C762.209 28.0273 762.361 28.4023 762.361 28.8477C762.361 29.2812 762.203 29.6504 761.887 29.9551C761.582 30.2598 761.213 30.4121 760.779 30.4121C760.346 30.4121 759.971 30.2598 759.654 29.9551C759.35 29.6504 759.197 29.2812 759.197 28.8477C759.197 28.6016 759.238 28.373 759.32 28.1621L761.043 24.6816H762.186L761.184 27.3184ZM768.479 24.875V53H766.896V24.875H768.479ZM781.047 26.457V53H779.465V26.457H772.346V24.875H788.166V26.457H781.047ZM790.873 35.7383H792.455V38.8848C792.783 38.416 793.164 37.9648 793.598 37.5312C794.992 36.1367 796.422 35.4043 797.887 35.334V37.0566C796.891 37.1035 795.859 37.6602 794.793 38.7266C793.293 40.2148 792.514 42.002 792.455 44.0879V53H790.873V35.7383ZM804.637 49.7656C806.125 51.125 807.895 51.8047 809.945 51.8047C812.148 51.8047 814.029 51.0254 815.588 49.4668C815.787 49.2676 815.975 49.0625 816.15 48.8516L817.82 49.4492C817.516 49.8711 817.17 50.2754 816.783 50.6621C814.896 52.5488 812.617 53.4922 809.945 53.4922C807.285 53.4922 805.012 52.5488 803.125 50.6621C801.238 48.7754 800.295 46.4961 800.295 43.8242C800.295 41.1641 801.238 38.8906 803.125 37.0039C805.012 35.1172 807.285 34.1738 809.945 34.1738C812.23 34.1738 814.229 34.8594 815.939 36.2305C816.221 36.4648 816.502 36.7227 816.783 37.0039C816.889 37.1094 816.988 37.2148 817.082 37.3203L815.887 38.5156L804.637 49.7656ZM814.727 37.4434C813.355 36.3887 811.762 35.8613 809.945 35.8613C807.754 35.8613 805.879 36.6406 804.32 38.1992C802.762 39.7461 801.982 41.6211 801.982 43.8242C801.982 45.6406 802.51 47.2344 803.564 48.6055L814.727 37.4434ZM826.803 44.123C825.455 43.3965 824.523 42.7754 824.008 42.2598C823.199 41.4512 822.795 40.4785 822.795 39.3418C822.795 38.1934 823.199 37.2148 824.008 36.4062C824.816 35.5859 825.789 35.1758 826.926 35.1758C828.074 35.1758 829.023 35.5508 829.773 36.3008C830.5 37.0391 830.863 37.877 830.863 38.8145V38.9023L829.492 39.4473C829.375 38.5566 829.094 37.8887 828.648 37.4434C828.215 36.998 827.641 36.7754 826.926 36.7754C826.223 36.7754 825.619 37.0273 825.115 37.5312C824.611 38.0234 824.359 38.627 824.359 39.3418C824.359 40.0449 824.611 40.6484 825.115 41.1523C825.408 41.4453 826.029 41.8906 826.979 42.4883C828.479 43.3086 829.545 44.0352 830.178 44.668C831.174 45.6758 831.672 46.877 831.672 48.2715C831.672 49.7012 831.174 50.9199 830.178 51.9277C829.182 52.9238 827.975 53.4219 826.557 53.4219C825.139 53.4219 823.932 52.9238 822.936 51.9277C821.939 50.9199 821.441 49.8184 821.441 48.623L823.006 48.2188C823.006 49.25 823.352 50.1113 824.043 50.8027C824.746 51.4941 825.584 51.8398 826.557 51.8398C827.529 51.8398 828.361 51.4941 829.053 50.8027C829.756 50.1113 830.107 49.2676 830.107 48.2715C830.107 47.2988 829.762 46.4668 829.07 45.7754C828.695 45.4004 827.939 44.8496 826.803 44.123ZM836.242 27.7754C835.973 27.7168 835.738 27.582 835.539 27.3711C835.223 27.0664 835.064 26.6914 835.064 26.2461C835.064 25.8125 835.217 25.4434 835.521 25.1387C835.838 24.834 836.213 24.6816 836.646 24.6816C837.08 24.6816 837.449 24.834 837.754 25.1387C838.07 25.4434 838.229 25.8125 838.229 26.2461C838.229 26.4922 838.188 26.7207 838.105 26.9316L836.383 30.4121H835.24L836.242 27.7754ZM840.672 27.7754C840.402 27.7168 840.168 27.582 839.969 27.3711C839.652 27.0664 839.494 26.6914 839.494 26.2461C839.494 25.8125 839.646 25.4434 839.951 25.1387C840.268 24.834 840.643 24.6816 841.076 24.6816C841.51 24.6816 841.879 24.834 842.184 25.1387C842.5 25.4434 842.658 25.8125 842.658 26.2461C842.658 26.4922 842.617 26.7207 842.535 26.9316L840.812 30.4121H839.67L840.672 27.7754ZM858.004 50.0996C858.438 50.0996 858.807 50.252 859.111 50.5566C859.428 50.8613 859.586 51.2305 859.586 51.6641C859.586 52.1094 859.428 52.4844 859.111 52.7891C858.807 53.0938 858.438 53.2461 858.004 53.2461C857.57 53.2461 857.195 53.0938 856.879 52.7891C856.574 52.4844 856.422 52.1094 856.422 51.6641C856.422 51.2305 856.574 50.8613 856.879 50.5566C857.195 50.252 857.57 50.0996 858.004 50.0996ZM858.76 24.875V48.1484H857.178V24.875H858.76Z" fill="white"/>
<defs>
<filter id="filter0_d_305_3" x="0.5" y="0.5" width="891" height="86" filterUnits="userSpaceOnUse" color-interpolation-filters="sRGB">
<feFlood flood-opacity="0" result="BackgroundImageFix"/>
<feColorMatrix in="SourceAlpha" type="matrix" values="0 0 0 0 0 0 0 0 0 0 0 0 0 0 0 0 0 0 127 0" result="hardAlpha"/>
<feOffset dy="4"/>
<feGaussianBlur stdDeviation="2"/>
<feComposite in2="hardAlpha" operator="out"/>
<feColorMatrix type="matrix" values="0 0 0 0 0 0 0 0 0 0 0 0 0 0 0 0 0 0 0.25 0"/>
<feBlend mode="normal" in2="BackgroundImageFix" result="effect1_dropShadow_305_3"/>
<feBlend mode="normal" in="SourceGraphic" in2="effect1_dropShadow_305_3" result="shape"/>
</filter>
<linearGradient id="paint0_linear_305_3" x1="446" y1="1" x2="446" y2="78" gradientUnits="userSpaceOnUse">
<stop stop-color="#30273E"/>
<stop offset="1" stop-color="#30273E" stop-opacity="0.5"/>
</linearGradient>
</defs>
</svg>
