<svg width="148" height="148" viewBox="0 0 148 148" fill="none" xmlns="http://www.w3.org/2000/svg">
<g clip-path="url(#clip0_333_28)">
<path d="M112.762 21.15V7.04064C112.762 3.15032 109.597 0 105.714 0C101.824 0 98.6666 3.15032 98.6666 7.04064V21.15C98.6666 25.0403 101.831 28.1906 105.714 28.1906C109.604 28.1904 112.762 25.0401 112.762 21.15Z" fill="white"/>
<path d="M44.0477 28.1904C46.9653 28.1904 49.3333 25.8366 49.3333 22.8907V5.29995C49.3333 2.37501 46.9724 0 44.0477 0H40.5237C37.606 0 35.238 2.35397 35.238 5.29995V22.8837C35.238 25.8156 37.599 28.1904 40.5237 28.1904H44.0477Z" fill="white"/>
<path d="M4.43299 14.0952C1.98035 14.0952 0 16.1459 0 18.6619V143.426C0 145.956 1.98035 148 4.42597 148H143.567C146.02 148 148 145.949 148 143.426V18.6619C148 16.1389 146.012 14.095 143.567 14.095H123.81C121.6 14.095 119.81 15.8858 119.81 18.095V27.281C119.81 31.707 115.074 35.2377 109.231 35.2377H102.198C96.334 35.2377 91.6193 31.6787 91.6193 27.281V18.0952C91.6193 15.8861 89.8284 14.0952 87.6193 14.0952H60.381C58.1718 14.0952 56.381 15.8861 56.381 18.0952V27.2812C56.381 31.7072 51.645 35.2379 45.8024 35.2379H38.769C32.9053 35.2379 28.1904 31.6789 28.1904 27.2812V18.0952C28.1904 15.8861 26.3995 14.0952 24.1904 14.0952H4.43299ZM119.81 67.4285C119.81 65.2194 121.6 63.4285 123.81 63.4285H136.953C139.162 63.4285 140.953 65.2194 140.953 67.4285V80.5713C140.953 82.7804 139.162 84.5713 136.953 84.5713H123.81C121.6 84.5713 119.81 82.7804 119.81 80.5713V67.4285ZM119.81 95.6189C119.81 93.4098 121.6 91.6189 123.81 91.6189H136.953C139.162 91.6189 140.953 93.4098 140.953 95.6189V108.762C140.953 110.971 139.162 112.762 136.953 112.762H123.81C121.6 112.762 119.81 110.971 119.81 108.762V95.6189ZM119.81 123.81C119.81 121.6 121.601 119.81 123.81 119.81H136.953C139.162 119.81 140.953 121.6 140.953 123.81V138.317C140.953 139.768 139.599 140.952 137.922 140.952H123.81C121.601 140.952 119.81 139.161 119.81 136.952L119.81 123.81ZM91.619 67.4285C91.619 65.2194 93.4099 63.4285 95.619 63.4285H108.762C110.971 63.4285 112.762 65.2194 112.762 67.4285V80.5713C112.762 82.7804 110.971 84.5713 108.762 84.5713H95.619C93.4099 84.5713 91.619 82.7804 91.619 80.5713V67.4285ZM91.619 95.6189C91.619 93.4098 93.4099 91.6189 95.619 91.6189H108.762C110.971 91.6189 112.762 93.4098 112.762 95.6189V108.762C112.762 110.971 110.971 112.762 108.762 112.762H95.619C93.4099 112.762 91.619 110.971 91.619 108.762V95.6189ZM91.619 123.81C91.619 121.6 93.4099 119.81 95.619 119.81H108.762C110.971 119.81 112.762 121.6 112.762 123.81V136.952C112.762 139.162 110.971 140.952 108.762 140.952H95.619C93.4099 140.952 91.619 139.162 91.619 136.952V123.81ZM63.4286 67.4285C63.4286 65.2194 65.2195 63.4285 67.4286 63.4285H80.5714C82.7805 63.4285 84.5714 65.2194 84.5714 67.4285V80.5713C84.5714 82.7804 82.7805 84.5713 80.5714 84.5713H67.4286C65.2195 84.5713 63.4286 82.7804 63.4286 80.5713V67.4285ZM63.4286 123.81C63.4286 121.6 65.2195 119.81 67.4286 119.81H80.5714C82.7805 119.81 84.5714 121.6 84.5714 123.81V136.952C84.5714 139.162 82.7805 140.952 80.5714 140.952H67.4286C65.2195 140.952 63.4286 139.162 63.4286 136.952V123.81ZM35.238 67.4285C35.238 65.2194 37.0289 63.4285 39.238 63.4285H52.381C54.5901 63.4285 56.381 65.2194 56.381 67.4285V80.5713C56.381 82.7804 54.5901 84.5713 52.381 84.5713H39.238C37.0289 84.5713 35.238 82.7804 35.238 80.5713V67.4285ZM35.238 95.6189C35.238 93.4098 37.0289 91.6189 39.238 91.6189H52.381C54.5901 91.6189 56.381 93.4098 56.381 95.6189V108.762C56.381 110.971 54.5901 112.762 52.381 112.762H39.238C37.0289 112.762 35.238 110.971 35.238 108.762V95.6189ZM35.238 123.81C35.238 121.6 37.0289 119.81 39.238 119.81H52.381C54.5901 119.81 56.381 121.6 56.381 123.81V136.952C56.381 139.162 54.5901 140.952 52.381 140.952H39.238C37.0289 140.952 35.238 139.162 35.238 136.952V123.81ZM28.1904 136.952C28.1904 139.161 26.3995 140.952 24.1904 140.952H10.078C8.40069 140.952 7.04765 139.775 7.04765 138.317V123.81C7.04765 121.6 8.83852 119.81 11.0477 119.81H24.1904C26.3995 119.81 28.1904 121.6 28.1904 123.81V136.952ZM28.1904 108.762C28.1904 110.971 26.3995 112.762 24.1904 112.762H11.0477C8.83852 112.762 7.04765 110.971 7.04765 108.762V95.6189C7.04765 93.4098 8.83852 91.6189 11.0477 91.6189H24.1904C26.3995 91.6189 28.1904 93.4098 28.1904 95.6189V108.762ZM28.1904 80.5713C28.1904 82.7804 26.3995 84.5713 24.1904 84.5713H11.0477C8.83852 84.5713 7.04765 82.7804 7.04765 80.5713V67.4285C7.04765 65.2194 8.83852 63.4285 11.0477 63.4285H24.1904C26.3995 63.4285 28.1904 65.2194 28.1904 67.4285V80.5713Z" fill="white"/>
</g>
<defs>
<clipPath id="clip0_333_28">
<rect width="148" height="148" fill="white"/>
</clipPath>
</defs>
</svg>
