<svg width="261" height="152" viewBox="0 0 261 152" fill="none" xmlns="http://www.w3.org/2000/svg">
<path d="M240.133 126.504H20.8667L3.5 148L0.5 151.795H260.5L257 147.583L240.133 126.504Z" fill="white"/>
<path d="M240.133 126.504V8.43747C240.133 3.77392 236.359 0 231.7 0H29.3C24.6406 0 20.8667 3.77392 20.8667 8.43747V126.504H240.133Z" fill="#DEDEDE"/>
<rect x="26" y="5" width="209" height="116" rx="6" fill="black"/>
<path d="M42.6445 17.6836C42.6445 16.2148 42.125 14.9648 41.0859 13.9336C40.0469 12.8945 38.793 12.375 37.3242 12.375C35.8555 12.375 34.6016 12.8945 33.5625 13.9336C32.5234 14.9648 32.0039 16.2148 32.0039 17.6836V23.8945C32.0039 25.3633 32.5234 26.6172 33.5625 27.6562C34.6016 28.6875 35.8555 29.2031 37.3242 29.2031C38.793 29.2031 40.0469 28.6875 41.0859 27.6562C42.125 26.6172 42.6445 25.3633 42.6445 23.8945V17.6836ZM43.7578 23.8945C43.7578 25.668 43.1289 27.1836 41.8711 28.4414C40.6211 29.6992 39.1055 30.3281 37.3242 30.3281C35.5508 30.3281 34.0352 29.6992 32.7773 28.4414C31.5195 27.1836 30.8906 25.668 30.8906 23.8945V17.6836C30.8906 15.9102 31.5195 14.3945 32.7773 13.1367C34.0352 11.8789 35.5508 11.25 37.3242 11.25C39.1055 11.25 40.6211 11.8789 41.8711 13.1367C43.1289 14.3945 43.7578 15.9102 43.7578 17.6836V23.8945ZM52.5708 11.25V30H51.5161V13.1016H50.4028L51.8442 11.25H52.5708ZM70.9814 17.6836C70.9814 16.2148 70.4619 14.9648 69.4228 13.9336C68.3838 12.8945 67.1298 12.375 65.6611 12.375C64.1923 12.375 62.9384 12.8945 61.8994 13.9336C60.8603 14.9648 60.3408 16.2148 60.3408 17.6836V23.8945C60.3408 25.3633 60.8603 26.6172 61.8994 27.6562C62.9384 28.6875 64.1923 29.2031 65.6611 29.2031C67.1298 29.2031 68.3838 28.6875 69.4228 27.6562C70.4619 26.6172 70.9814 25.3633 70.9814 23.8945V17.6836ZM72.0947 23.8945C72.0947 25.668 71.4658 27.1836 70.208 28.4414C68.958 29.6992 67.4423 30.3281 65.6611 30.3281C63.8877 30.3281 62.372 29.6992 61.1142 28.4414C59.8564 27.1836 59.2275 25.668 59.2275 23.8945V17.6836C59.2275 15.9102 59.8564 14.3945 61.1142 13.1367C62.372 11.8789 63.8877 11.25 65.6611 11.25C67.4423 11.25 68.958 11.8789 70.208 13.1367C71.4658 14.3945 72.0947 15.9102 72.0947 17.6836V23.8945ZM80.9077 11.25V30H79.853V13.1016H78.7397L80.1811 11.25H80.9077ZM95.0761 11.25V30H94.0214V13.1016H92.9081L94.3495 11.25H95.0761ZM113.487 17.6836C113.487 16.2148 112.967 14.9648 111.928 13.9336C110.889 12.8945 109.635 12.375 108.166 12.375C106.698 12.375 105.444 12.8945 104.405 13.9336C103.366 14.9648 102.846 16.2148 102.846 17.6836V23.8945C102.846 25.3633 103.366 26.6172 104.405 27.6562C105.444 28.6875 106.698 29.2031 108.166 29.2031C109.635 29.2031 110.889 28.6875 111.928 27.6562C112.967 26.6172 113.487 25.3633 113.487 23.8945V17.6836ZM114.6 23.8945C114.6 25.668 113.971 27.1836 112.713 28.4414C111.463 29.6992 109.948 30.3281 108.166 30.3281C106.393 30.3281 104.877 29.6992 103.62 28.4414C102.362 27.1836 101.733 25.668 101.733 23.8945V17.6836C101.733 15.9102 102.362 14.3945 103.62 13.1367C104.877 11.8789 106.393 11.25 108.166 11.25C109.948 11.25 111.463 11.8789 112.713 13.1367C113.971 14.3945 114.6 15.9102 114.6 17.6836V23.8945ZM123.413 11.25V30H122.358V13.1016H121.245L122.686 11.25H123.413ZM141.824 17.6836C141.824 16.2148 141.304 14.9648 140.265 13.9336C139.226 12.8945 137.972 12.375 136.503 12.375C135.035 12.375 133.781 12.8945 132.742 13.9336C131.702 14.9648 131.183 16.2148 131.183 17.6836V23.8945C131.183 25.3633 131.702 26.6172 132.742 27.6562C133.781 28.6875 135.035 29.2031 136.503 29.2031C137.972 29.2031 139.226 28.6875 140.265 27.6562C141.304 26.6172 141.824 25.3633 141.824 23.8945V17.6836ZM142.937 23.8945C142.937 25.668 142.308 27.1836 141.05 28.4414C139.8 29.6992 138.285 30.3281 136.503 30.3281C134.73 30.3281 133.214 29.6992 131.956 28.4414C130.699 27.1836 130.07 25.668 130.07 23.8945V17.6836C130.07 15.9102 130.699 14.3945 131.956 13.1367C133.214 11.8789 134.73 11.25 136.503 11.25C138.285 11.25 139.8 11.8789 141.05 13.1367C142.308 14.3945 142.937 15.9102 142.937 17.6836V23.8945ZM155.992 17.6836C155.992 16.2148 155.473 14.9648 154.433 13.9336C153.394 12.8945 152.14 12.375 150.672 12.375C149.203 12.375 147.949 12.8945 146.91 13.9336C145.871 14.9648 145.351 16.2148 145.351 17.6836V23.8945C145.351 25.3633 145.871 26.6172 146.91 27.6562C147.949 28.6875 149.203 29.2031 150.672 29.2031C152.14 29.2031 153.394 28.6875 154.433 27.6562C155.473 26.6172 155.992 25.3633 155.992 23.8945V17.6836ZM157.105 23.8945C157.105 25.668 156.476 27.1836 155.219 28.4414C153.969 29.6992 152.453 30.3281 150.672 30.3281C148.898 30.3281 147.383 29.6992 146.125 28.4414C144.867 27.1836 144.238 25.668 144.238 23.8945V17.6836C144.238 15.9102 144.867 14.3945 146.125 13.1367C147.383 11.8789 148.898 11.25 150.672 11.25C152.453 11.25 153.969 11.8789 155.219 13.1367C156.476 14.3945 157.105 15.9102 157.105 17.6836V23.8945ZM170.16 17.6836C170.16 16.2148 169.641 14.9648 168.602 13.9336C167.563 12.8945 166.309 12.375 164.84 12.375C163.371 12.375 162.118 12.8945 161.078 13.9336C160.039 14.9648 159.52 16.2148 159.52 17.6836V23.8945C159.52 25.3633 160.039 26.6172 161.078 27.6562C162.118 28.6875 163.371 29.2031 164.84 29.2031C166.309 29.2031 167.563 28.6875 168.602 27.6562C169.641 26.6172 170.16 25.3633 170.16 23.8945V17.6836ZM171.274 23.8945C171.274 25.668 170.645 27.1836 169.387 28.4414C168.137 29.6992 166.621 30.3281 164.84 30.3281C163.067 30.3281 161.551 29.6992 160.293 28.4414C159.035 27.1836 158.407 25.668 158.407 23.8945V17.6836C158.407 15.9102 159.035 14.3945 160.293 13.1367C161.551 11.8789 163.067 11.25 164.84 11.25C166.621 11.25 168.137 11.8789 169.387 13.1367C170.645 14.3945 171.274 15.9102 171.274 17.6836V23.8945ZM180.087 11.25V30H179.032V13.1016H177.919L179.36 11.25H180.087ZM198.497 17.6836C198.497 16.2148 197.978 14.9648 196.939 13.9336C195.9 12.8945 194.646 12.375 193.177 12.375C191.708 12.375 190.454 12.8945 189.415 13.9336C188.376 14.9648 187.857 16.2148 187.857 17.6836V23.8945C187.857 25.3633 188.376 26.6172 189.415 27.6562C190.454 28.6875 191.708 29.2031 193.177 29.2031C194.646 29.2031 195.9 28.6875 196.939 27.6562C197.978 26.6172 198.497 25.3633 198.497 23.8945V17.6836ZM199.611 23.8945C199.611 25.668 198.982 27.1836 197.724 28.4414C196.474 29.6992 194.958 30.3281 193.177 30.3281C191.404 30.3281 189.888 29.6992 188.63 28.4414C187.372 27.1836 186.743 25.668 186.743 23.8945V17.6836C186.743 15.9102 187.372 14.3945 188.63 13.1367C189.888 11.8789 191.404 11.25 193.177 11.25C194.958 11.25 196.474 11.8789 197.724 13.1367C198.982 14.3945 199.611 15.9102 199.611 17.6836V23.8945ZM208.424 11.25V30H207.369V13.1016H206.256L207.697 11.25H208.424ZM226.834 17.6836C226.834 16.2148 226.315 14.9648 225.276 13.9336C224.237 12.8945 222.983 12.375 221.514 12.375C220.045 12.375 218.791 12.8945 217.752 13.9336C216.713 14.9648 216.194 16.2148 216.194 17.6836V23.8945C216.194 25.3633 216.713 26.6172 217.752 27.6562C218.791 28.6875 220.045 29.2031 221.514 29.2031C222.983 29.2031 224.237 28.6875 225.276 27.6562C226.315 26.6172 226.834 25.3633 226.834 23.8945V17.6836ZM227.947 23.8945C227.947 25.668 227.319 27.1836 226.061 28.4414C224.811 29.6992 223.295 30.3281 221.514 30.3281C219.74 30.3281 218.225 29.6992 216.967 28.4414C215.709 27.1836 215.08 25.668 215.08 23.8945V17.6836C215.08 15.9102 215.709 14.3945 216.967 13.1367C218.225 11.8789 219.74 11.25 221.514 11.25C223.295 11.25 224.811 11.8789 226.061 13.1367C227.319 14.3945 227.947 15.9102 227.947 17.6836V23.8945ZM38.4023 35.25V54H37.3477V37.1016H36.2344L37.6758 35.25H38.4023ZM56.813 41.6836C56.813 40.2148 56.2934 38.9648 55.2544 37.9336C54.2153 36.8945 52.9614 36.375 51.4927 36.375C50.0239 36.375 48.77 36.8945 47.7309 37.9336C46.6919 38.9648 46.1723 40.2148 46.1723 41.6836V47.8945C46.1723 49.3633 46.6919 50.6172 47.7309 51.6562C48.77 52.6875 50.0239 53.2031 51.4927 53.2031C52.9614 53.2031 54.2153 52.6875 55.2544 51.6562C56.2934 50.6172 56.813 49.3633 56.813 47.8945V41.6836ZM57.9263 47.8945C57.9263 49.668 57.2973 51.1836 56.0395 52.4414C54.7895 53.6992 53.2739 54.3281 51.4927 54.3281C49.7192 54.3281 48.2036 53.6992 46.9458 52.4414C45.688 51.1836 45.0591 49.668 45.0591 47.8945V41.6836C45.0591 39.9102 45.688 38.3945 46.9458 37.1367C48.2036 35.8789 49.7192 35.25 51.4927 35.25C53.2739 35.25 54.7895 35.8789 56.0395 37.1367C57.2973 38.3945 57.9263 39.9102 57.9263 41.6836V47.8945ZM66.7392 35.25V54H65.6845V37.1016H64.5713L66.0127 35.25H66.7392ZM85.1498 41.6836C85.1498 40.2148 84.6303 38.9648 83.5913 37.9336C82.5522 36.8945 81.2983 36.375 79.8295 36.375C78.3608 36.375 77.1069 36.8945 76.0678 37.9336C75.0288 38.9648 74.5092 40.2148 74.5092 41.6836V47.8945C74.5092 49.3633 75.0288 50.6172 76.0678 51.6562C77.1069 52.6875 78.3608 53.2031 79.8295 53.2031C81.2983 53.2031 82.5522 52.6875 83.5913 51.6562C84.6303 50.6172 85.1498 49.3633 85.1498 47.8945V41.6836ZM86.2631 47.8945C86.2631 49.668 85.6342 51.1836 84.3764 52.4414C83.1264 53.6992 81.6108 54.3281 79.8295 54.3281C78.0561 54.3281 76.5405 53.6992 75.2827 52.4414C74.0248 51.1836 73.3959 49.668 73.3959 47.8945V41.6836C73.3959 39.9102 74.0248 38.3945 75.2827 37.1367C76.5405 35.8789 78.0561 35.25 79.8295 35.25C81.6108 35.25 83.1264 35.8789 84.3764 37.1367C85.6342 38.3945 86.2631 39.9102 86.2631 41.6836V47.8945ZM95.0761 35.25V54H94.0214V37.1016H92.9081L94.3495 35.25H95.0761ZM113.487 41.6836C113.487 40.2148 112.967 38.9648 111.928 37.9336C110.889 36.8945 109.635 36.375 108.166 36.375C106.698 36.375 105.444 36.8945 104.405 37.9336C103.366 38.9648 102.846 40.2148 102.846 41.6836V47.8945C102.846 49.3633 103.366 50.6172 104.405 51.6562C105.444 52.6875 106.698 53.2031 108.166 53.2031C109.635 53.2031 110.889 52.6875 111.928 51.6562C112.967 50.6172 113.487 49.3633 113.487 47.8945V41.6836ZM114.6 47.8945C114.6 49.668 113.971 51.1836 112.713 52.4414C111.463 53.6992 109.948 54.3281 108.166 54.3281C106.393 54.3281 104.877 53.6992 103.62 52.4414C102.362 51.1836 101.733 49.668 101.733 47.8945V41.6836C101.733 39.9102 102.362 38.3945 103.62 37.1367C104.877 35.8789 106.393 35.25 108.166 35.25C109.948 35.25 111.463 35.8789 112.713 37.1367C113.971 38.3945 114.6 39.9102 114.6 41.6836V47.8945ZM123.413 35.25V54H122.358V37.1016H121.245L122.686 35.25H123.413ZM141.824 41.6836C141.824 40.2148 141.304 38.9648 140.265 37.9336C139.226 36.8945 137.972 36.375 136.503 36.375C135.035 36.375 133.781 36.8945 132.742 37.9336C131.702 38.9648 131.183 40.2148 131.183 41.6836V47.8945C131.183 49.3633 131.702 50.6172 132.742 51.6562C133.781 52.6875 135.035 53.2031 136.503 53.2031C137.972 53.2031 139.226 52.6875 140.265 51.6562C141.304 50.6172 141.824 49.3633 141.824 47.8945V41.6836ZM142.937 47.8945C142.937 49.668 142.308 51.1836 141.05 52.4414C139.8 53.6992 138.285 54.3281 136.503 54.3281C134.73 54.3281 133.214 53.6992 131.956 52.4414C130.699 51.1836 130.07 49.668 130.07 47.8945V41.6836C130.07 39.9102 130.699 38.3945 131.956 37.1367C133.214 35.8789 134.73 35.25 136.503 35.25C138.285 35.25 139.8 35.8789 141.05 37.1367C142.308 38.3945 142.937 39.9102 142.937 41.6836V47.8945ZM151.75 35.25V54H150.695V37.1016H149.582L151.023 35.25H151.75ZM170.16 41.6836C170.16 40.2148 169.641 38.9648 168.602 37.9336C167.563 36.8945 166.309 36.375 164.84 36.375C163.371 36.375 162.118 36.8945 161.078 37.9336C160.039 38.9648 159.52 40.2148 159.52 41.6836V47.8945C159.52 49.3633 160.039 50.6172 161.078 51.6562C162.118 52.6875 163.371 53.2031 164.84 53.2031C166.309 53.2031 167.563 52.6875 168.602 51.6562C169.641 50.6172 170.16 49.3633 170.16 47.8945V41.6836ZM171.274 47.8945C171.274 49.668 170.645 51.1836 169.387 52.4414C168.137 53.6992 166.621 54.3281 164.84 54.3281C163.067 54.3281 161.551 53.6992 160.293 52.4414C159.035 51.1836 158.407 49.668 158.407 47.8945V41.6836C158.407 39.9102 159.035 38.3945 160.293 37.1367C161.551 35.8789 163.067 35.25 164.84 35.25C166.621 35.25 168.137 35.8789 169.387 37.1367C170.645 38.3945 171.274 39.9102 171.274 41.6836V47.8945ZM184.329 41.6836C184.329 40.2148 183.809 38.9648 182.77 37.9336C181.731 36.8945 180.477 36.375 179.009 36.375C177.54 36.375 176.286 36.8945 175.247 37.9336C174.208 38.9648 173.688 40.2148 173.688 41.6836V47.8945C173.688 49.3633 174.208 50.6172 175.247 51.6562C176.286 52.6875 177.54 53.2031 179.009 53.2031C180.477 53.2031 181.731 52.6875 182.77 51.6562C183.809 50.6172 184.329 49.3633 184.329 47.8945V41.6836ZM185.442 47.8945C185.442 49.668 184.813 51.1836 183.555 52.4414C182.305 53.6992 180.79 54.3281 179.009 54.3281C177.235 54.3281 175.72 53.6992 174.462 52.4414C173.204 51.1836 172.575 49.668 172.575 47.8945V41.6836C172.575 39.9102 173.204 38.3945 174.462 37.1367C175.72 35.8789 177.235 35.25 179.009 35.25C180.79 35.25 182.305 35.8789 183.555 37.1367C184.813 38.3945 185.442 39.9102 185.442 41.6836V47.8945ZM198.497 41.6836C198.497 40.2148 197.978 38.9648 196.939 37.9336C195.9 36.8945 194.646 36.375 193.177 36.375C191.708 36.375 190.454 36.8945 189.415 37.9336C188.376 38.9648 187.857 40.2148 187.857 41.6836V47.8945C187.857 49.3633 188.376 50.6172 189.415 51.6562C190.454 52.6875 191.708 53.2031 193.177 53.2031C194.646 53.2031 195.9 52.6875 196.939 51.6562C197.978 50.6172 198.497 49.3633 198.497 47.8945V41.6836ZM199.611 47.8945C199.611 49.668 198.982 51.1836 197.724 52.4414C196.474 53.6992 194.958 54.3281 193.177 54.3281C191.404 54.3281 189.888 53.6992 188.63 52.4414C187.372 51.1836 186.743 49.668 186.743 47.8945V41.6836C186.743 39.9102 187.372 38.3945 188.63 37.1367C189.888 35.8789 191.404 35.25 193.177 35.25C194.958 35.25 196.474 35.8789 197.724 37.1367C198.982 38.3945 199.611 39.9102 199.611 41.6836V47.8945ZM212.666 41.6836C212.666 40.2148 212.146 38.9648 211.107 37.9336C210.068 36.8945 208.814 36.375 207.345 36.375C205.877 36.375 204.623 36.8945 203.584 37.9336C202.545 38.9648 202.025 40.2148 202.025 41.6836V47.8945C202.025 49.3633 202.545 50.6172 203.584 51.6562C204.623 52.6875 205.877 53.2031 207.345 53.2031C208.814 53.2031 210.068 52.6875 211.107 51.6562C212.146 50.6172 212.666 49.3633 212.666 47.8945V41.6836ZM213.779 47.8945C213.779 49.668 213.15 51.1836 211.892 52.4414C210.642 53.6992 209.127 54.3281 207.345 54.3281C205.572 54.3281 204.056 53.6992 202.799 52.4414C201.541 51.1836 200.912 49.668 200.912 47.8945V41.6836C200.912 39.9102 201.541 38.3945 202.799 37.1367C204.056 35.8789 205.572 35.25 207.345 35.25C209.127 35.25 210.642 35.8789 211.892 37.1367C213.15 38.3945 213.779 39.9102 213.779 41.6836V47.8945ZM222.592 35.25V54H221.537V37.1016H220.424L221.865 35.25H222.592ZM38.4023 59.25V78H37.3477V61.1016H36.2344L37.6758 59.25H38.4023ZM56.813 65.6836C56.813 64.2148 56.2934 62.9648 55.2544 61.9336C54.2153 60.8945 52.9614 60.375 51.4927 60.375C50.0239 60.375 48.77 60.8945 47.7309 61.9336C46.6919 62.9648 46.1723 64.2148 46.1723 65.6836V71.8945C46.1723 73.3633 46.6919 74.6172 47.7309 75.6562C48.77 76.6875 50.0239 77.2031 51.4927 77.2031C52.9614 77.2031 54.2153 76.6875 55.2544 75.6562C56.2934 74.6172 56.813 73.3633 56.813 71.8945V65.6836ZM57.9263 71.8945C57.9263 73.668 57.2973 75.1836 56.0395 76.4414C54.7895 77.6992 53.2739 78.3281 51.4927 78.3281C49.7192 78.3281 48.2036 77.6992 46.9458 76.4414C45.688 75.1836 45.0591 73.668 45.0591 71.8945V65.6836C45.0591 63.9102 45.688 62.3945 46.9458 61.1367C48.2036 59.8789 49.7192 59.25 51.4927 59.25C53.2739 59.25 54.7895 59.8789 56.0395 61.1367C57.2973 62.3945 57.9263 63.9102 57.9263 65.6836V71.8945ZM70.9814 65.6836C70.9814 64.2148 70.4619 62.9648 69.4228 61.9336C68.3838 60.8945 67.1298 60.375 65.6611 60.375C64.1923 60.375 62.9384 60.8945 61.8994 61.9336C60.8603 62.9648 60.3408 64.2148 60.3408 65.6836V71.8945C60.3408 73.3633 60.8603 74.6172 61.8994 75.6562C62.9384 76.6875 64.1923 77.2031 65.6611 77.2031C67.1298 77.2031 68.3838 76.6875 69.4228 75.6562C70.4619 74.6172 70.9814 73.3633 70.9814 71.8945V65.6836ZM72.0947 71.8945C72.0947 73.668 71.4658 75.1836 70.208 76.4414C68.958 77.6992 67.4423 78.3281 65.6611 78.3281C63.8877 78.3281 62.372 77.6992 61.1142 76.4414C59.8564 75.1836 59.2275 73.668 59.2275 71.8945V65.6836C59.2275 63.9102 59.8564 62.3945 61.1142 61.1367C62.372 59.8789 63.8877 59.25 65.6611 59.25C67.4423 59.25 68.958 59.8789 70.208 61.1367C71.4658 62.3945 72.0947 63.9102 72.0947 65.6836V71.8945ZM80.9077 59.25V78H79.853V61.1016H78.7397L80.1811 59.25H80.9077ZM95.0761 59.25V78H94.0214V61.1016H92.9081L94.3495 59.25H95.0761ZM109.245 59.25V78H108.19V61.1016H107.077L108.518 59.25H109.245ZM123.413 59.25V78H122.358V61.1016H121.245L122.686 59.25H123.413ZM141.824 65.6836C141.824 64.2148 141.304 62.9648 140.265 61.9336C139.226 60.8945 137.972 60.375 136.503 60.375C135.035 60.375 133.781 60.8945 132.742 61.9336C131.702 62.9648 131.183 64.2148 131.183 65.6836V71.8945C131.183 73.3633 131.702 74.6172 132.742 75.6562C133.781 76.6875 135.035 77.2031 136.503 77.2031C137.972 77.2031 139.226 76.6875 140.265 75.6562C141.304 74.6172 141.824 73.3633 141.824 71.8945V65.6836ZM142.937 71.8945C142.937 73.668 142.308 75.1836 141.05 76.4414C139.8 77.6992 138.285 78.3281 136.503 78.3281C134.73 78.3281 133.214 77.6992 131.956 76.4414C130.699 75.1836 130.07 73.668 130.07 71.8945V65.6836C130.07 63.9102 130.699 62.3945 131.956 61.1367C133.214 59.8789 134.73 59.25 136.503 59.25C138.285 59.25 139.8 59.8789 141.05 61.1367C142.308 62.3945 142.937 63.9102 142.937 65.6836V71.8945ZM155.992 65.6836C155.992 64.2148 155.473 62.9648 154.433 61.9336C153.394 60.8945 152.14 60.375 150.672 60.375C149.203 60.375 147.949 60.8945 146.91 61.9336C145.871 62.9648 145.351 64.2148 145.351 65.6836V71.8945C145.351 73.3633 145.871 74.6172 146.91 75.6562C147.949 76.6875 149.203 77.2031 150.672 77.2031C152.14 77.2031 153.394 76.6875 154.433 75.6562C155.473 74.6172 155.992 73.3633 155.992 71.8945V65.6836ZM157.105 71.8945C157.105 73.668 156.476 75.1836 155.219 76.4414C153.969 77.6992 152.453 78.3281 150.672 78.3281C148.898 78.3281 147.383 77.6992 146.125 76.4414C144.867 75.1836 144.238 73.668 144.238 71.8945V65.6836C144.238 63.9102 144.867 62.3945 146.125 61.1367C147.383 59.8789 148.898 59.25 150.672 59.25C152.453 59.25 153.969 59.8789 155.219 61.1367C156.476 62.3945 157.105 63.9102 157.105 65.6836V71.8945ZM165.918 59.25V78H164.864V61.1016H163.75L165.192 59.25H165.918ZM184.329 65.6836C184.329 64.2148 183.809 62.9648 182.77 61.9336C181.731 60.8945 180.477 60.375 179.009 60.375C177.54 60.375 176.286 60.8945 175.247 61.9336C174.208 62.9648 173.688 64.2148 173.688 65.6836V71.8945C173.688 73.3633 174.208 74.6172 175.247 75.6562C176.286 76.6875 177.54 77.2031 179.009 77.2031C180.477 77.2031 181.731 76.6875 182.77 75.6562C183.809 74.6172 184.329 73.3633 184.329 71.8945V65.6836ZM185.442 71.8945C185.442 73.668 184.813 75.1836 183.555 76.4414C182.305 77.6992 180.79 78.3281 179.009 78.3281C177.235 78.3281 175.72 77.6992 174.462 76.4414C173.204 75.1836 172.575 73.668 172.575 71.8945V65.6836C172.575 63.9102 173.204 62.3945 174.462 61.1367C175.72 59.8789 177.235 59.25 179.009 59.25C180.79 59.25 182.305 59.8789 183.555 61.1367C184.813 62.3945 185.442 63.9102 185.442 65.6836V71.8945ZM194.255 59.25V78H193.2V61.1016H192.087L193.529 59.25H194.255ZM208.424 59.25V78H207.369V61.1016H206.256L207.697 59.25H208.424ZM226.834 65.6836C226.834 64.2148 226.315 62.9648 225.276 61.9336C224.237 60.8945 222.983 60.375 221.514 60.375C220.045 60.375 218.791 60.8945 217.752 61.9336C216.713 62.9648 216.194 64.2148 216.194 65.6836V71.8945C216.194 73.3633 216.713 74.6172 217.752 75.6562C218.791 76.6875 220.045 77.2031 221.514 77.2031C222.983 77.2031 224.237 76.6875 225.276 75.6562C226.315 74.6172 226.834 73.3633 226.834 71.8945V65.6836ZM227.947 71.8945C227.947 73.668 227.319 75.1836 226.061 76.4414C224.811 77.6992 223.295 78.3281 221.514 78.3281C219.74 78.3281 218.225 77.6992 216.967 76.4414C215.709 75.1836 215.08 73.668 215.08 71.8945V65.6836C215.08 63.9102 215.709 62.3945 216.967 61.1367C218.225 59.8789 219.74 59.25 221.514 59.25C223.295 59.25 224.811 59.8789 226.061 61.1367C227.319 62.3945 227.947 63.9102 227.947 65.6836V71.8945ZM38.4023 83.25V102H37.3477V85.1016H36.2344L37.6758 83.25H38.4023ZM52.5708 83.25V102H51.5161V85.1016H50.4028L51.8442 83.25H52.5708ZM66.7392 83.25V102H65.6845V85.1016H64.5713L66.0127 83.25H66.7392ZM85.1498 89.6836C85.1498 88.2148 84.6303 86.9648 83.5913 85.9336C82.5522 84.8945 81.2983 84.375 79.8295 84.375C78.3608 84.375 77.1069 84.8945 76.0678 85.9336C75.0288 86.9648 74.5092 88.2148 74.5092 89.6836V95.8945C74.5092 97.3633 75.0288 98.6172 76.0678 99.6562C77.1069 100.688 78.3608 101.203 79.8295 101.203C81.2983 101.203 82.5522 100.688 83.5913 99.6562C84.6303 98.6172 85.1498 97.3633 85.1498 95.8945V89.6836ZM86.2631 95.8945C86.2631 97.668 85.6342 99.1836 84.3764 100.441C83.1264 101.699 81.6108 102.328 79.8295 102.328C78.0561 102.328 76.5405 101.699 75.2827 100.441C74.0248 99.1836 73.3959 97.668 73.3959 95.8945V89.6836C73.3959 87.9102 74.0248 86.3945 75.2827 85.1367C76.5405 83.8789 78.0561 83.25 79.8295 83.25C81.6108 83.25 83.1264 83.8789 84.3764 85.1367C85.6342 86.3945 86.2631 87.9102 86.2631 89.6836V95.8945ZM95.0761 83.25V102H94.0214V85.1016H92.9081L94.3495 83.25H95.0761ZM109.245 83.25V102H108.19V85.1016H107.077L108.518 83.25H109.245ZM127.655 89.6836C127.655 88.2148 127.136 86.9648 126.097 85.9336C125.058 84.8945 123.804 84.375 122.335 84.375C120.866 84.375 119.612 84.8945 118.573 85.9336C117.534 86.9648 117.015 88.2148 117.015 89.6836V95.8945C117.015 97.3633 117.534 98.6172 118.573 99.6562C119.612 100.688 120.866 101.203 122.335 101.203C123.804 101.203 125.058 100.688 126.097 99.6562C127.136 98.6172 127.655 97.3633 127.655 95.8945V89.6836ZM128.768 95.8945C128.768 97.668 128.14 99.1836 126.882 100.441C125.632 101.699 124.116 102.328 122.335 102.328C120.561 102.328 119.046 101.699 117.788 100.441C116.53 99.1836 115.901 97.668 115.901 95.8945V89.6836C115.901 87.9102 116.53 86.3945 117.788 85.1367C119.046 83.8789 120.561 83.25 122.335 83.25C124.116 83.25 125.632 83.8789 126.882 85.1367C128.14 86.3945 128.768 87.9102 128.768 89.6836V95.8945ZM141.824 89.6836C141.824 88.2148 141.304 86.9648 140.265 85.9336C139.226 84.8945 137.972 84.375 136.503 84.375C135.035 84.375 133.781 84.8945 132.742 85.9336C131.702 86.9648 131.183 88.2148 131.183 89.6836V95.8945C131.183 97.3633 131.702 98.6172 132.742 99.6562C133.781 100.688 135.035 101.203 136.503 101.203C137.972 101.203 139.226 100.688 140.265 99.6562C141.304 98.6172 141.824 97.3633 141.824 95.8945V89.6836ZM142.937 95.8945C142.937 97.668 142.308 99.1836 141.05 100.441C139.8 101.699 138.285 102.328 136.503 102.328C134.73 102.328 133.214 101.699 131.956 100.441C130.699 99.1836 130.07 97.668 130.07 95.8945V89.6836C130.07 87.9102 130.699 86.3945 131.956 85.1367C133.214 83.8789 134.73 83.25 136.503 83.25C138.285 83.25 139.8 83.8789 141.05 85.1367C142.308 86.3945 142.937 87.9102 142.937 89.6836V95.8945ZM155.992 89.6836C155.992 88.2148 155.473 86.9648 154.433 85.9336C153.394 84.8945 152.14 84.375 150.672 84.375C149.203 84.375 147.949 84.8945 146.91 85.9336C145.871 86.9648 145.351 88.2148 145.351 89.6836V95.8945C145.351 97.3633 145.871 98.6172 146.91 99.6562C147.949 100.688 149.203 101.203 150.672 101.203C152.14 101.203 153.394 100.688 154.433 99.6562C155.473 98.6172 155.992 97.3633 155.992 95.8945V89.6836ZM157.105 95.8945C157.105 97.668 156.476 99.1836 155.219 100.441C153.969 101.699 152.453 102.328 150.672 102.328C148.898 102.328 147.383 101.699 146.125 100.441C144.867 99.1836 144.238 97.668 144.238 95.8945V89.6836C144.238 87.9102 144.867 86.3945 146.125 85.1367C147.383 83.8789 148.898 83.25 150.672 83.25C152.453 83.25 153.969 83.8789 155.219 85.1367C156.476 86.3945 157.105 87.9102 157.105 89.6836V95.8945ZM165.918 83.25V102H164.864V85.1016H163.75L165.192 83.25H165.918ZM180.087 83.25V102H179.032V85.1016H177.919L179.36 83.25H180.087ZM198.497 89.6836C198.497 88.2148 197.978 86.9648 196.939 85.9336C195.9 84.8945 194.646 84.375 193.177 84.375C191.708 84.375 190.454 84.8945 189.415 85.9336C188.376 86.9648 187.857 88.2148 187.857 89.6836V95.8945C187.857 97.3633 188.376 98.6172 189.415 99.6562C190.454 100.688 191.708 101.203 193.177 101.203C194.646 101.203 195.9 100.688 196.939 99.6562C197.978 98.6172 198.497 97.3633 198.497 95.8945V89.6836ZM199.611 95.8945C199.611 97.668 198.982 99.1836 197.724 100.441C196.474 101.699 194.958 102.328 193.177 102.328C191.404 102.328 189.888 101.699 188.63 100.441C187.372 99.1836 186.743 97.668 186.743 95.8945V89.6836C186.743 87.9102 187.372 86.3945 188.63 85.1367C189.888 83.8789 191.404 83.25 193.177 83.25C194.958 83.25 196.474 83.8789 197.724 85.1367C198.982 86.3945 199.611 87.9102 199.611 89.6836V95.8945ZM208.424 83.25V102H207.369V85.1016H206.256L207.697 83.25H208.424ZM222.592 83.25V102H221.537V85.1016H220.424L221.865 83.25H222.592Z" fill="#89ED93"/>
<g filter="url(#filter0_f_331_27)">
<path d="M42.6445 17.6836C42.6445 16.2148 42.125 14.9648 41.0859 13.9336C40.0469 12.8945 38.793 12.375 37.3242 12.375C35.8555 12.375 34.6016 12.8945 33.5625 13.9336C32.5234 14.9648 32.0039 16.2148 32.0039 17.6836V23.8945C32.0039 25.3633 32.5234 26.6172 33.5625 27.6562C34.6016 28.6875 35.8555 29.2031 37.3242 29.2031C38.793 29.2031 40.0469 28.6875 41.0859 27.6562C42.125 26.6172 42.6445 25.3633 42.6445 23.8945V17.6836ZM43.7578 23.8945C43.7578 25.668 43.1289 27.1836 41.8711 28.4414C40.6211 29.6992 39.1055 30.3281 37.3242 30.3281C35.5508 30.3281 34.0352 29.6992 32.7773 28.4414C31.5195 27.1836 30.8906 25.668 30.8906 23.8945V17.6836C30.8906 15.9102 31.5195 14.3945 32.7773 13.1367C34.0352 11.8789 35.5508 11.25 37.3242 11.25C39.1055 11.25 40.6211 11.8789 41.8711 13.1367C43.1289 14.3945 43.7578 15.9102 43.7578 17.6836V23.8945ZM52.5708 11.25V30H51.5161V13.1016H50.4028L51.8442 11.25H52.5708ZM70.9814 17.6836C70.9814 16.2148 70.4619 14.9648 69.4228 13.9336C68.3838 12.8945 67.1298 12.375 65.6611 12.375C64.1923 12.375 62.9384 12.8945 61.8994 13.9336C60.8603 14.9648 60.3408 16.2148 60.3408 17.6836V23.8945C60.3408 25.3633 60.8603 26.6172 61.8994 27.6562C62.9384 28.6875 64.1923 29.2031 65.6611 29.2031C67.1298 29.2031 68.3838 28.6875 69.4228 27.6562C70.4619 26.6172 70.9814 25.3633 70.9814 23.8945V17.6836ZM72.0947 23.8945C72.0947 25.668 71.4658 27.1836 70.208 28.4414C68.958 29.6992 67.4423 30.3281 65.6611 30.3281C63.8877 30.3281 62.372 29.6992 61.1142 28.4414C59.8564 27.1836 59.2275 25.668 59.2275 23.8945V17.6836C59.2275 15.9102 59.8564 14.3945 61.1142 13.1367C62.372 11.8789 63.8877 11.25 65.6611 11.25C67.4423 11.25 68.958 11.8789 70.208 13.1367C71.4658 14.3945 72.0947 15.9102 72.0947 17.6836V23.8945ZM80.9077 11.25V30H79.853V13.1016H78.7397L80.1811 11.25H80.9077ZM95.0761 11.25V30H94.0214V13.1016H92.9081L94.3495 11.25H95.0761ZM113.487 17.6836C113.487 16.2148 112.967 14.9648 111.928 13.9336C110.889 12.8945 109.635 12.375 108.166 12.375C106.698 12.375 105.444 12.8945 104.405 13.9336C103.366 14.9648 102.846 16.2148 102.846 17.6836V23.8945C102.846 25.3633 103.366 26.6172 104.405 27.6562C105.444 28.6875 106.698 29.2031 108.166 29.2031C109.635 29.2031 110.889 28.6875 111.928 27.6562C112.967 26.6172 113.487 25.3633 113.487 23.8945V17.6836ZM114.6 23.8945C114.6 25.668 113.971 27.1836 112.713 28.4414C111.463 29.6992 109.948 30.3281 108.166 30.3281C106.393 30.3281 104.877 29.6992 103.62 28.4414C102.362 27.1836 101.733 25.668 101.733 23.8945V17.6836C101.733 15.9102 102.362 14.3945 103.62 13.1367C104.877 11.8789 106.393 11.25 108.166 11.25C109.948 11.25 111.463 11.8789 112.713 13.1367C113.971 14.3945 114.6 15.9102 114.6 17.6836V23.8945ZM123.413 11.25V30H122.358V13.1016H121.245L122.686 11.25H123.413ZM141.824 17.6836C141.824 16.2148 141.304 14.9648 140.265 13.9336C139.226 12.8945 137.972 12.375 136.503 12.375C135.035 12.375 133.781 12.8945 132.742 13.9336C131.702 14.9648 131.183 16.2148 131.183 17.6836V23.8945C131.183 25.3633 131.702 26.6172 132.742 27.6562C133.781 28.6875 135.035 29.2031 136.503 29.2031C137.972 29.2031 139.226 28.6875 140.265 27.6562C141.304 26.6172 141.824 25.3633 141.824 23.8945V17.6836ZM142.937 23.8945C142.937 25.668 142.308 27.1836 141.05 28.4414C139.8 29.6992 138.285 30.3281 136.503 30.3281C134.73 30.3281 133.214 29.6992 131.956 28.4414C130.699 27.1836 130.07 25.668 130.07 23.8945V17.6836C130.07 15.9102 130.699 14.3945 131.956 13.1367C133.214 11.8789 134.73 11.25 136.503 11.25C138.285 11.25 139.8 11.8789 141.05 13.1367C142.308 14.3945 142.937 15.9102 142.937 17.6836V23.8945ZM155.992 17.6836C155.992 16.2148 155.473 14.9648 154.433 13.9336C153.394 12.8945 152.14 12.375 150.672 12.375C149.203 12.375 147.949 12.8945 146.91 13.9336C145.871 14.9648 145.351 16.2148 145.351 17.6836V23.8945C145.351 25.3633 145.871 26.6172 146.91 27.6562C147.949 28.6875 149.203 29.2031 150.672 29.2031C152.14 29.2031 153.394 28.6875 154.433 27.6562C155.473 26.6172 155.992 25.3633 155.992 23.8945V17.6836ZM157.105 23.8945C157.105 25.668 156.476 27.1836 155.219 28.4414C153.969 29.6992 152.453 30.3281 150.672 30.3281C148.898 30.3281 147.383 29.6992 146.125 28.4414C144.867 27.1836 144.238 25.668 144.238 23.8945V17.6836C144.238 15.9102 144.867 14.3945 146.125 13.1367C147.383 11.8789 148.898 11.25 150.672 11.25C152.453 11.25 153.969 11.8789 155.219 13.1367C156.476 14.3945 157.105 15.9102 157.105 17.6836V23.8945ZM170.16 17.6836C170.16 16.2148 169.641 14.9648 168.602 13.9336C167.563 12.8945 166.309 12.375 164.84 12.375C163.371 12.375 162.118 12.8945 161.078 13.9336C160.039 14.9648 159.52 16.2148 159.52 17.6836V23.8945C159.52 25.3633 160.039 26.6172 161.078 27.6562C162.118 28.6875 163.371 29.2031 164.84 29.2031C166.309 29.2031 167.563 28.6875 168.602 27.6562C169.641 26.6172 170.16 25.3633 170.16 23.8945V17.6836ZM171.274 23.8945C171.274 25.668 170.645 27.1836 169.387 28.4414C168.137 29.6992 166.621 30.3281 164.84 30.3281C163.067 30.3281 161.551 29.6992 160.293 28.4414C159.035 27.1836 158.407 25.668 158.407 23.8945V17.6836C158.407 15.9102 159.035 14.3945 160.293 13.1367C161.551 11.8789 163.067 11.25 164.84 11.25C166.621 11.25 168.137 11.8789 169.387 13.1367C170.645 14.3945 171.274 15.9102 171.274 17.6836V23.8945ZM180.087 11.25V30H179.032V13.1016H177.919L179.36 11.25H180.087ZM198.497 17.6836C198.497 16.2148 197.978 14.9648 196.939 13.9336C195.9 12.8945 194.646 12.375 193.177 12.375C191.708 12.375 190.454 12.8945 189.415 13.9336C188.376 14.9648 187.857 16.2148 187.857 17.6836V23.8945C187.857 25.3633 188.376 26.6172 189.415 27.6562C190.454 28.6875 191.708 29.2031 193.177 29.2031C194.646 29.2031 195.9 28.6875 196.939 27.6562C197.978 26.6172 198.497 25.3633 198.497 23.8945V17.6836ZM199.611 23.8945C199.611 25.668 198.982 27.1836 197.724 28.4414C196.474 29.6992 194.958 30.3281 193.177 30.3281C191.404 30.3281 189.888 29.6992 188.63 28.4414C187.372 27.1836 186.743 25.668 186.743 23.8945V17.6836C186.743 15.9102 187.372 14.3945 188.63 13.1367C189.888 11.8789 191.404 11.25 193.177 11.25C194.958 11.25 196.474 11.8789 197.724 13.1367C198.982 14.3945 199.611 15.9102 199.611 17.6836V23.8945ZM208.424 11.25V30H207.369V13.1016H206.256L207.697 11.25H208.424ZM226.834 17.6836C226.834 16.2148 226.315 14.9648 225.276 13.9336C224.237 12.8945 222.983 12.375 221.514 12.375C220.045 12.375 218.791 12.8945 217.752 13.9336C216.713 14.9648 216.194 16.2148 216.194 17.6836V23.8945C216.194 25.3633 216.713 26.6172 217.752 27.6562C218.791 28.6875 220.045 29.2031 221.514 29.2031C222.983 29.2031 224.237 28.6875 225.276 27.6562C226.315 26.6172 226.834 25.3633 226.834 23.8945V17.6836ZM227.947 23.8945C227.947 25.668 227.319 27.1836 226.061 28.4414C224.811 29.6992 223.295 30.3281 221.514 30.3281C219.74 30.3281 218.225 29.6992 216.967 28.4414C215.709 27.1836 215.08 25.668 215.08 23.8945V17.6836C215.08 15.9102 215.709 14.3945 216.967 13.1367C218.225 11.8789 219.74 11.25 221.514 11.25C223.295 11.25 224.811 11.8789 226.061 13.1367C227.319 14.3945 227.947 15.9102 227.947 17.6836V23.8945ZM38.4023 35.25V54H37.3477V37.1016H36.2344L37.6758 35.25H38.4023ZM56.813 41.6836C56.813 40.2148 56.2934 38.9648 55.2544 37.9336C54.2153 36.8945 52.9614 36.375 51.4927 36.375C50.0239 36.375 48.77 36.8945 47.7309 37.9336C46.6919 38.9648 46.1723 40.2148 46.1723 41.6836V47.8945C46.1723 49.3633 46.6919 50.6172 47.7309 51.6562C48.77 52.6875 50.0239 53.2031 51.4927 53.2031C52.9614 53.2031 54.2153 52.6875 55.2544 51.6562C56.2934 50.6172 56.813 49.3633 56.813 47.8945V41.6836ZM57.9263 47.8945C57.9263 49.668 57.2973 51.1836 56.0395 52.4414C54.7895 53.6992 53.2739 54.3281 51.4927 54.3281C49.7192 54.3281 48.2036 53.6992 46.9458 52.4414C45.688 51.1836 45.0591 49.668 45.0591 47.8945V41.6836C45.0591 39.9102 45.688 38.3945 46.9458 37.1367C48.2036 35.8789 49.7192 35.25 51.4927 35.25C53.2739 35.25 54.7895 35.8789 56.0395 37.1367C57.2973 38.3945 57.9263 39.9102 57.9263 41.6836V47.8945ZM66.7392 35.25V54H65.6845V37.1016H64.5713L66.0127 35.25H66.7392ZM85.1498 41.6836C85.1498 40.2148 84.6303 38.9648 83.5913 37.9336C82.5522 36.8945 81.2983 36.375 79.8295 36.375C78.3608 36.375 77.1069 36.8945 76.0678 37.9336C75.0288 38.9648 74.5092 40.2148 74.5092 41.6836V47.8945C74.5092 49.3633 75.0288 50.6172 76.0678 51.6562C77.1069 52.6875 78.3608 53.2031 79.8295 53.2031C81.2983 53.2031 82.5522 52.6875 83.5913 51.6562C84.6303 50.6172 85.1498 49.3633 85.1498 47.8945V41.6836ZM86.2631 47.8945C86.2631 49.668 85.6342 51.1836 84.3764 52.4414C83.1264 53.6992 81.6108 54.3281 79.8295 54.3281C78.0561 54.3281 76.5405 53.6992 75.2827 52.4414C74.0248 51.1836 73.3959 49.668 73.3959 47.8945V41.6836C73.3959 39.9102 74.0248 38.3945 75.2827 37.1367C76.5405 35.8789 78.0561 35.25 79.8295 35.25C81.6108 35.25 83.1264 35.8789 84.3764 37.1367C85.6342 38.3945 86.2631 39.9102 86.2631 41.6836V47.8945ZM95.0761 35.25V54H94.0214V37.1016H92.9081L94.3495 35.25H95.0761ZM113.487 41.6836C113.487 40.2148 112.967 38.9648 111.928 37.9336C110.889 36.8945 109.635 36.375 108.166 36.375C106.698 36.375 105.444 36.8945 104.405 37.9336C103.366 38.9648 102.846 40.2148 102.846 41.6836V47.8945C102.846 49.3633 103.366 50.6172 104.405 51.6562C105.444 52.6875 106.698 53.2031 108.166 53.2031C109.635 53.2031 110.889 52.6875 111.928 51.6562C112.967 50.6172 113.487 49.3633 113.487 47.8945V41.6836ZM114.6 47.8945C114.6 49.668 113.971 51.1836 112.713 52.4414C111.463 53.6992 109.948 54.3281 108.166 54.3281C106.393 54.3281 104.877 53.6992 103.62 52.4414C102.362 51.1836 101.733 49.668 101.733 47.8945V41.6836C101.733 39.9102 102.362 38.3945 103.62 37.1367C104.877 35.8789 106.393 35.25 108.166 35.25C109.948 35.25 111.463 35.8789 112.713 37.1367C113.971 38.3945 114.6 39.9102 114.6 41.6836V47.8945ZM123.413 35.25V54H122.358V37.1016H121.245L122.686 35.25H123.413ZM141.824 41.6836C141.824 40.2148 141.304 38.9648 140.265 37.9336C139.226 36.8945 137.972 36.375 136.503 36.375C135.035 36.375 133.781 36.8945 132.742 37.9336C131.702 38.9648 131.183 40.2148 131.183 41.6836V47.8945C131.183 49.3633 131.702 50.6172 132.742 51.6562C133.781 52.6875 135.035 53.2031 136.503 53.2031C137.972 53.2031 139.226 52.6875 140.265 51.6562C141.304 50.6172 141.824 49.3633 141.824 47.8945V41.6836ZM142.937 47.8945C142.937 49.668 142.308 51.1836 141.05 52.4414C139.8 53.6992 138.285 54.3281 136.503 54.3281C134.73 54.3281 133.214 53.6992 131.956 52.4414C130.699 51.1836 130.07 49.668 130.07 47.8945V41.6836C130.07 39.9102 130.699 38.3945 131.956 37.1367C133.214 35.8789 134.73 35.25 136.503 35.25C138.285 35.25 139.8 35.8789 141.05 37.1367C142.308 38.3945 142.937 39.9102 142.937 41.6836V47.8945ZM151.75 35.25V54H150.695V37.1016H149.582L151.023 35.25H151.75ZM170.16 41.6836C170.16 40.2148 169.641 38.9648 168.602 37.9336C167.563 36.8945 166.309 36.375 164.84 36.375C163.371 36.375 162.118 36.8945 161.078 37.9336C160.039 38.9648 159.52 40.2148 159.52 41.6836V47.8945C159.52 49.3633 160.039 50.6172 161.078 51.6562C162.118 52.6875 163.371 53.2031 164.84 53.2031C166.309 53.2031 167.563 52.6875 168.602 51.6562C169.641 50.6172 170.16 49.3633 170.16 47.8945V41.6836ZM171.274 47.8945C171.274 49.668 170.645 51.1836 169.387 52.4414C168.137 53.6992 166.621 54.3281 164.84 54.3281C163.067 54.3281 161.551 53.6992 160.293 52.4414C159.035 51.1836 158.407 49.668 158.407 47.8945V41.6836C158.407 39.9102 159.035 38.3945 160.293 37.1367C161.551 35.8789 163.067 35.25 164.84 35.25C166.621 35.25 168.137 35.8789 169.387 37.1367C170.645 38.3945 171.274 39.9102 171.274 41.6836V47.8945ZM184.329 41.6836C184.329 40.2148 183.809 38.9648 182.77 37.9336C181.731 36.8945 180.477 36.375 179.009 36.375C177.54 36.375 176.286 36.8945 175.247 37.9336C174.208 38.9648 173.688 40.2148 173.688 41.6836V47.8945C173.688 49.3633 174.208 50.6172 175.247 51.6562C176.286 52.6875 177.54 53.2031 179.009 53.2031C180.477 53.2031 181.731 52.6875 182.77 51.6562C183.809 50.6172 184.329 49.3633 184.329 47.8945V41.6836ZM185.442 47.8945C185.442 49.668 184.813 51.1836 183.555 52.4414C182.305 53.6992 180.79 54.3281 179.009 54.3281C177.235 54.3281 175.72 53.6992 174.462 52.4414C173.204 51.1836 172.575 49.668 172.575 47.8945V41.6836C172.575 39.9102 173.204 38.3945 174.462 37.1367C175.72 35.8789 177.235 35.25 179.009 35.25C180.79 35.25 182.305 35.8789 183.555 37.1367C184.813 38.3945 185.442 39.9102 185.442 41.6836V47.8945ZM198.497 41.6836C198.497 40.2148 197.978 38.9648 196.939 37.9336C195.9 36.8945 194.646 36.375 193.177 36.375C191.708 36.375 190.454 36.8945 189.415 37.9336C188.376 38.9648 187.857 40.2148 187.857 41.6836V47.8945C187.857 49.3633 188.376 50.6172 189.415 51.6562C190.454 52.6875 191.708 53.2031 193.177 53.2031C194.646 53.2031 195.9 52.6875 196.939 51.6562C197.978 50.6172 198.497 49.3633 198.497 47.8945V41.6836ZM199.611 47.8945C199.611 49.668 198.982 51.1836 197.724 52.4414C196.474 53.6992 194.958 54.3281 193.177 54.3281C191.404 54.3281 189.888 53.6992 188.63 52.4414C187.372 51.1836 186.743 49.668 186.743 47.8945V41.6836C186.743 39.9102 187.372 38.3945 188.63 37.1367C189.888 35.8789 191.404 35.25 193.177 35.25C194.958 35.25 196.474 35.8789 197.724 37.1367C198.982 38.3945 199.611 39.9102 199.611 41.6836V47.8945ZM212.666 41.6836C212.666 40.2148 212.146 38.9648 211.107 37.9336C210.068 36.8945 208.814 36.375 207.345 36.375C205.877 36.375 204.623 36.8945 203.584 37.9336C202.545 38.9648 202.025 40.2148 202.025 41.6836V47.8945C202.025 49.3633 202.545 50.6172 203.584 51.6562C204.623 52.6875 205.877 53.2031 207.345 53.2031C208.814 53.2031 210.068 52.6875 211.107 51.6562C212.146 50.6172 212.666 49.3633 212.666 47.8945V41.6836ZM213.779 47.8945C213.779 49.668 213.15 51.1836 211.892 52.4414C210.642 53.6992 209.127 54.3281 207.345 54.3281C205.572 54.3281 204.056 53.6992 202.799 52.4414C201.541 51.1836 200.912 49.668 200.912 47.8945V41.6836C200.912 39.9102 201.541 38.3945 202.799 37.1367C204.056 35.8789 205.572 35.25 207.345 35.25C209.127 35.25 210.642 35.8789 211.892 37.1367C213.15 38.3945 213.779 39.9102 213.779 41.6836V47.8945ZM222.592 35.25V54H221.537V37.1016H220.424L221.865 35.25H222.592ZM38.4023 59.25V78H37.3477V61.1016H36.2344L37.6758 59.25H38.4023ZM56.813 65.6836C56.813 64.2148 56.2934 62.9648 55.2544 61.9336C54.2153 60.8945 52.9614 60.375 51.4927 60.375C50.0239 60.375 48.77 60.8945 47.7309 61.9336C46.6919 62.9648 46.1723 64.2148 46.1723 65.6836V71.8945C46.1723 73.3633 46.6919 74.6172 47.7309 75.6562C48.77 76.6875 50.0239 77.2031 51.4927 77.2031C52.9614 77.2031 54.2153 76.6875 55.2544 75.6562C56.2934 74.6172 56.813 73.3633 56.813 71.8945V65.6836ZM57.9263 71.8945C57.9263 73.668 57.2973 75.1836 56.0395 76.4414C54.7895 77.6992 53.2739 78.3281 51.4927 78.3281C49.7192 78.3281 48.2036 77.6992 46.9458 76.4414C45.688 75.1836 45.0591 73.668 45.0591 71.8945V65.6836C45.0591 63.9102 45.688 62.3945 46.9458 61.1367C48.2036 59.8789 49.7192 59.25 51.4927 59.25C53.2739 59.25 54.7895 59.8789 56.0395 61.1367C57.2973 62.3945 57.9263 63.9102 57.9263 65.6836V71.8945ZM70.9814 65.6836C70.9814 64.2148 70.4619 62.9648 69.4228 61.9336C68.3838 60.8945 67.1298 60.375 65.6611 60.375C64.1923 60.375 62.9384 60.8945 61.8994 61.9336C60.8603 62.9648 60.3408 64.2148 60.3408 65.6836V71.8945C60.3408 73.3633 60.8603 74.6172 61.8994 75.6562C62.9384 76.6875 64.1923 77.2031 65.6611 77.2031C67.1298 77.2031 68.3838 76.6875 69.4228 75.6562C70.4619 74.6172 70.9814 73.3633 70.9814 71.8945V65.6836ZM72.0947 71.8945C72.0947 73.668 71.4658 75.1836 70.208 76.4414C68.958 77.6992 67.4423 78.3281 65.6611 78.3281C63.8877 78.3281 62.372 77.6992 61.1142 76.4414C59.8564 75.1836 59.2275 73.668 59.2275 71.8945V65.6836C59.2275 63.9102 59.8564 62.3945 61.1142 61.1367C62.372 59.8789 63.8877 59.25 65.6611 59.25C67.4423 59.25 68.958 59.8789 70.208 61.1367C71.4658 62.3945 72.0947 63.9102 72.0947 65.6836V71.8945ZM80.9077 59.25V78H79.853V61.1016H78.7397L80.1811 59.25H80.9077ZM95.0761 59.25V78H94.0214V61.1016H92.9081L94.3495 59.25H95.0761ZM109.245 59.25V78H108.19V61.1016H107.077L108.518 59.25H109.245ZM123.413 59.25V78H122.358V61.1016H121.245L122.686 59.25H123.413ZM141.824 65.6836C141.824 64.2148 141.304 62.9648 140.265 61.9336C139.226 60.8945 137.972 60.375 136.503 60.375C135.035 60.375 133.781 60.8945 132.742 61.9336C131.702 62.9648 131.183 64.2148 131.183 65.6836V71.8945C131.183 73.3633 131.702 74.6172 132.742 75.6562C133.781 76.6875 135.035 77.2031 136.503 77.2031C137.972 77.2031 139.226 76.6875 140.265 75.6562C141.304 74.6172 141.824 73.3633 141.824 71.8945V65.6836ZM142.937 71.8945C142.937 73.668 142.308 75.1836 141.05 76.4414C139.8 77.6992 138.285 78.3281 136.503 78.3281C134.73 78.3281 133.214 77.6992 131.956 76.4414C130.699 75.1836 130.07 73.668 130.07 71.8945V65.6836C130.07 63.9102 130.699 62.3945 131.956 61.1367C133.214 59.8789 134.73 59.25 136.503 59.25C138.285 59.25 139.8 59.8789 141.05 61.1367C142.308 62.3945 142.937 63.9102 142.937 65.6836V71.8945ZM155.992 65.6836C155.992 64.2148 155.473 62.9648 154.433 61.9336C153.394 60.8945 152.14 60.375 150.672 60.375C149.203 60.375 147.949 60.8945 146.91 61.9336C145.871 62.9648 145.351 64.2148 145.351 65.6836V71.8945C145.351 73.3633 145.871 74.6172 146.91 75.6562C147.949 76.6875 149.203 77.2031 150.672 77.2031C152.14 77.2031 153.394 76.6875 154.433 75.6562C155.473 74.6172 155.992 73.3633 155.992 71.8945V65.6836ZM157.105 71.8945C157.105 73.668 156.476 75.1836 155.219 76.4414C153.969 77.6992 152.453 78.3281 150.672 78.3281C148.898 78.3281 147.383 77.6992 146.125 76.4414C144.867 75.1836 144.238 73.668 144.238 71.8945V65.6836C144.238 63.9102 144.867 62.3945 146.125 61.1367C147.383 59.8789 148.898 59.25 150.672 59.25C152.453 59.25 153.969 59.8789 155.219 61.1367C156.476 62.3945 157.105 63.9102 157.105 65.6836V71.8945ZM165.918 59.25V78H164.864V61.1016H163.75L165.192 59.25H165.918ZM184.329 65.6836C184.329 64.2148 183.809 62.9648 182.77 61.9336C181.731 60.8945 180.477 60.375 179.009 60.375C177.54 60.375 176.286 60.8945 175.247 61.9336C174.208 62.9648 173.688 64.2148 173.688 65.6836V71.8945C173.688 73.3633 174.208 74.6172 175.247 75.6562C176.286 76.6875 177.54 77.2031 179.009 77.2031C180.477 77.2031 181.731 76.6875 182.77 75.6562C183.809 74.6172 184.329 73.3633 184.329 71.8945V65.6836ZM185.442 71.8945C185.442 73.668 184.813 75.1836 183.555 76.4414C182.305 77.6992 180.79 78.3281 179.009 78.3281C177.235 78.3281 175.72 77.6992 174.462 76.4414C173.204 75.1836 172.575 73.668 172.575 71.8945V65.6836C172.575 63.9102 173.204 62.3945 174.462 61.1367C175.72 59.8789 177.235 59.25 179.009 59.25C180.79 59.25 182.305 59.8789 183.555 61.1367C184.813 62.3945 185.442 63.9102 185.442 65.6836V71.8945ZM194.255 59.25V78H193.2V61.1016H192.087L193.529 59.25H194.255ZM208.424 59.25V78H207.369V61.1016H206.256L207.697 59.25H208.424ZM226.834 65.6836C226.834 64.2148 226.315 62.9648 225.276 61.9336C224.237 60.8945 222.983 60.375 221.514 60.375C220.045 60.375 218.791 60.8945 217.752 61.9336C216.713 62.9648 216.194 64.2148 216.194 65.6836V71.8945C216.194 73.3633 216.713 74.6172 217.752 75.6562C218.791 76.6875 220.045 77.2031 221.514 77.2031C222.983 77.2031 224.237 76.6875 225.276 75.6562C226.315 74.6172 226.834 73.3633 226.834 71.8945V65.6836ZM227.947 71.8945C227.947 73.668 227.319 75.1836 226.061 76.4414C224.811 77.6992 223.295 78.3281 221.514 78.3281C219.74 78.3281 218.225 77.6992 216.967 76.4414C215.709 75.1836 215.08 73.668 215.08 71.8945V65.6836C215.08 63.9102 215.709 62.3945 216.967 61.1367C218.225 59.8789 219.74 59.25 221.514 59.25C223.295 59.25 224.811 59.8789 226.061 61.1367C227.319 62.3945 227.947 63.9102 227.947 65.6836V71.8945ZM38.4023 83.25V102H37.3477V85.1016H36.2344L37.6758 83.25H38.4023ZM52.5708 83.25V102H51.5161V85.1016H50.4028L51.8442 83.25H52.5708ZM66.7392 83.25V102H65.6845V85.1016H64.5713L66.0127 83.25H66.7392ZM85.1498 89.6836C85.1498 88.2148 84.6303 86.9648 83.5913 85.9336C82.5522 84.8945 81.2983 84.375 79.8295 84.375C78.3608 84.375 77.1069 84.8945 76.0678 85.9336C75.0288 86.9648 74.5092 88.2148 74.5092 89.6836V95.8945C74.5092 97.3633 75.0288 98.6172 76.0678 99.6562C77.1069 100.688 78.3608 101.203 79.8295 101.203C81.2983 101.203 82.5522 100.688 83.5913 99.6562C84.6303 98.6172 85.1498 97.3633 85.1498 95.8945V89.6836ZM86.2631 95.8945C86.2631 97.668 85.6342 99.1836 84.3764 100.441C83.1264 101.699 81.6108 102.328 79.8295 102.328C78.0561 102.328 76.5405 101.699 75.2827 100.441C74.0248 99.1836 73.3959 97.668 73.3959 95.8945V89.6836C73.3959 87.9102 74.0248 86.3945 75.2827 85.1367C76.5405 83.8789 78.0561 83.25 79.8295 83.25C81.6108 83.25 83.1264 83.8789 84.3764 85.1367C85.6342 86.3945 86.2631 87.9102 86.2631 89.6836V95.8945ZM95.0761 83.25V102H94.0214V85.1016H92.9081L94.3495 83.25H95.0761ZM109.245 83.25V102H108.19V85.1016H107.077L108.518 83.25H109.245ZM127.655 89.6836C127.655 88.2148 127.136 86.9648 126.097 85.9336C125.058 84.8945 123.804 84.375 122.335 84.375C120.866 84.375 119.612 84.8945 118.573 85.9336C117.534 86.9648 117.015 88.2148 117.015 89.6836V95.8945C117.015 97.3633 117.534 98.6172 118.573 99.6562C119.612 100.688 120.866 101.203 122.335 101.203C123.804 101.203 125.058 100.688 126.097 99.6562C127.136 98.6172 127.655 97.3633 127.655 95.8945V89.6836ZM128.768 95.8945C128.768 97.668 128.14 99.1836 126.882 100.441C125.632 101.699 124.116 102.328 122.335 102.328C120.561 102.328 119.046 101.699 117.788 100.441C116.53 99.1836 115.901 97.668 115.901 95.8945V89.6836C115.901 87.9102 116.53 86.3945 117.788 85.1367C119.046 83.8789 120.561 83.25 122.335 83.25C124.116 83.25 125.632 83.8789 126.882 85.1367C128.14 86.3945 128.768 87.9102 128.768 89.6836V95.8945ZM141.824 89.6836C141.824 88.2148 141.304 86.9648 140.265 85.9336C139.226 84.8945 137.972 84.375 136.503 84.375C135.035 84.375 133.781 84.8945 132.742 85.9336C131.702 86.9648 131.183 88.2148 131.183 89.6836V95.8945C131.183 97.3633 131.702 98.6172 132.742 99.6562C133.781 100.688 135.035 101.203 136.503 101.203C137.972 101.203 139.226 100.688 140.265 99.6562C141.304 98.6172 141.824 97.3633 141.824 95.8945V89.6836ZM142.937 95.8945C142.937 97.668 142.308 99.1836 141.05 100.441C139.8 101.699 138.285 102.328 136.503 102.328C134.73 102.328 133.214 101.699 131.956 100.441C130.699 99.1836 130.07 97.668 130.07 95.8945V89.6836C130.07 87.9102 130.699 86.3945 131.956 85.1367C133.214 83.8789 134.73 83.25 136.503 83.25C138.285 83.25 139.8 83.8789 141.05 85.1367C142.308 86.3945 142.937 87.9102 142.937 89.6836V95.8945ZM155.992 89.6836C155.992 88.2148 155.473 86.9648 154.433 85.9336C153.394 84.8945 152.14 84.375 150.672 84.375C149.203 84.375 147.949 84.8945 146.91 85.9336C145.871 86.9648 145.351 88.2148 145.351 89.6836V95.8945C145.351 97.3633 145.871 98.6172 146.91 99.6562C147.949 100.688 149.203 101.203 150.672 101.203C152.14 101.203 153.394 100.688 154.433 99.6562C155.473 98.6172 155.992 97.3633 155.992 95.8945V89.6836ZM157.105 95.8945C157.105 97.668 156.476 99.1836 155.219 100.441C153.969 101.699 152.453 102.328 150.672 102.328C148.898 102.328 147.383 101.699 146.125 100.441C144.867 99.1836 144.238 97.668 144.238 95.8945V89.6836C144.238 87.9102 144.867 86.3945 146.125 85.1367C147.383 83.8789 148.898 83.25 150.672 83.25C152.453 83.25 153.969 83.8789 155.219 85.1367C156.476 86.3945 157.105 87.9102 157.105 89.6836V95.8945ZM165.918 83.25V102H164.864V85.1016H163.75L165.192 83.25H165.918ZM180.087 83.25V102H179.032V85.1016H177.919L179.36 83.25H180.087ZM198.497 89.6836C198.497 88.2148 197.978 86.9648 196.939 85.9336C195.9 84.8945 194.646 84.375 193.177 84.375C191.708 84.375 190.454 84.8945 189.415 85.9336C188.376 86.9648 187.857 88.2148 187.857 89.6836V95.8945C187.857 97.3633 188.376 98.6172 189.415 99.6562C190.454 100.688 191.708 101.203 193.177 101.203C194.646 101.203 195.9 100.688 196.939 99.6562C197.978 98.6172 198.497 97.3633 198.497 95.8945V89.6836ZM199.611 95.8945C199.611 97.668 198.982 99.1836 197.724 100.441C196.474 101.699 194.958 102.328 193.177 102.328C191.404 102.328 189.888 101.699 188.63 100.441C187.372 99.1836 186.743 97.668 186.743 95.8945V89.6836C186.743 87.9102 187.372 86.3945 188.63 85.1367C189.888 83.8789 191.404 83.25 193.177 83.25C194.958 83.25 196.474 83.8789 197.724 85.1367C198.982 86.3945 199.611 87.9102 199.611 89.6836V95.8945ZM208.424 83.25V102H207.369V85.1016H206.256L207.697 83.25H208.424ZM222.592 83.25V102H221.537V85.1016H220.424L221.865 83.25H222.592Z" fill="#89ED93"/>
</g>
<defs>
<filter id="filter0_f_331_27" x="26.8906" y="7.25" width="205.057" height="99.0781" filterUnits="userSpaceOnUse" color-interpolation-filters="sRGB">
<feFlood flood-opacity="0" result="BackgroundImageFix"/>
<feBlend mode="normal" in="SourceGraphic" in2="BackgroundImageFix" result="shape"/>
<feGaussianBlur stdDeviation="2" result="effect1_foregroundBlur_331_27"/>
</filter>
</defs>
</svg>
