<svg width="88" height="86" viewBox="0 0 88 86" fill="none" xmlns="http://www.w3.org/2000/svg">
<path fill-rule="evenodd" clip-rule="evenodd" d="M44 85.6662C68.3005 85.6662 88 66.4892 88 42.8331C88 19.177 68.3005 0 44 0C19.6995 0 0 19.177 0 42.8331C0 66.4892 19.6995 85.6662 44 85.6662ZM43.9999 81.3829C65.8704 81.3829 83.5999 64.1236 83.5999 42.8331C83.5999 21.5426 65.8704 4.28328 43.9999 4.28328C22.1295 4.28328 4.39993 21.5426 4.39993 42.8331C4.39993 64.1236 22.1295 81.3829 43.9999 81.3829Z" fill="#30273E"/>
<path fill-rule="evenodd" clip-rule="evenodd" d="M44 78.5274C64.2505 78.5274 80.6667 62.5465 80.6667 42.8331C80.6667 23.1197 64.2505 7.13885 44 7.13885C23.7496 7.13885 7.33337 23.1197 7.33337 42.8331C7.33337 62.5465 23.7496 78.5274 44 78.5274ZM44 74.2441C61.8204 74.2441 76.2667 60.1809 76.2667 42.8331C76.2667 25.4853 61.8204 11.4222 44 11.4222C26.1797 11.4222 11.7334 25.4853 11.7334 42.8331C11.7334 60.1809 26.1797 74.2441 44 74.2441Z" fill="#30273E"/>
<path fill-rule="evenodd" clip-rule="evenodd" d="M44.0001 71.3886C60.2004 71.3886 73.3334 58.6039 73.3334 42.8332C73.3334 27.0624 60.2004 14.2777 44.0001 14.2777C27.7997 14.2777 14.6667 27.0624 14.6667 42.8332C14.6667 58.6039 27.7997 71.3886 44.0001 71.3886ZM44 67.1053C57.7703 67.1053 68.9334 56.2383 68.9334 42.8331C68.9334 29.428 57.7703 18.561 44 18.561C30.2297 18.561 19.0667 29.428 19.0667 42.8331C19.0667 56.2383 30.2297 67.1053 44 67.1053Z" fill="#30273E"/>
<path fill-rule="evenodd" clip-rule="evenodd" d="M44 64.2497C56.1503 64.2497 66 54.6612 66 42.8332C66 31.0051 56.1503 21.4166 44 21.4166C31.8497 21.4166 22 31.0051 22 42.8332C22 54.6612 31.8497 64.2497 44 64.2497ZM43.9999 59.9664C53.7201 59.9664 61.5999 52.2956 61.5999 42.8331C61.5999 33.3707 53.7201 25.6999 43.9999 25.6999C34.2797 25.6999 26.3999 33.3707 26.3999 42.8331C26.3999 52.2956 34.2797 59.9664 43.9999 59.9664Z" fill="#30273E"/>
<path fill-rule="evenodd" clip-rule="evenodd" d="M44 57.1109C52.1002 57.1109 58.6667 50.7185 58.6667 42.8332C58.6667 34.9478 52.1002 28.5555 44 28.5555C35.8999 28.5555 29.3334 34.9478 29.3334 42.8332C29.3334 50.7185 35.8999 57.1109 44 57.1109ZM44 52.8276C49.6702 52.8276 54.2667 48.3529 54.2667 42.8332C54.2667 37.3134 49.6702 32.8388 44 32.8388C38.3299 32.8388 33.7334 37.3134 33.7334 42.8332C33.7334 48.3529 38.3299 52.8276 44 52.8276Z" fill="#30273E"/>
</svg>
