<svg width="223" height="86" viewBox="0 0 223 86" fill="none" xmlns="http://www.w3.org/2000/svg">
<path fill-rule="evenodd" clip-rule="evenodd" d="M223 60H95V58H223V60Z" fill="#30273E"/>
<path d="M95 54.467V24H98.9728V54.467H95Z" fill="#30273E"/>
<path d="M111.412 54.467V27.553H102.97V24H123.827V27.553H115.385V54.467H111.412Z" fill="#30273E"/>
<path d="M126.071 54.467V31.106H128.87L129.367 34.1705H129.638C129.939 33.2822 130.405 32.468 131.037 31.7278C131.669 30.958 132.542 30.5731 133.656 30.5731C134.167 30.5731 134.589 30.6323 134.92 30.7507C135.251 30.8691 135.416 30.9284 135.416 30.9284V34.7034H134.198C133.415 34.7034 132.678 34.8811 131.985 35.2364C131.323 35.5621 130.781 36.1246 130.36 36.9241C129.969 37.7235 129.773 38.819 129.773 40.2106V54.467H126.071Z" fill="#30273E"/>
<path d="M146.587 55C143.638 55 141.395 54.0525 139.86 52.1576C138.356 50.233 137.603 47.1094 137.603 42.7865C137.603 38.5821 138.341 35.5029 139.815 33.5487C141.32 31.5649 143.562 30.5731 146.542 30.5731C149.13 30.5731 151.072 31.4317 152.366 33.149C153.69 34.8367 154.352 37.6347 154.352 41.543V43.8524H141.486C141.516 46.5764 141.952 48.575 142.795 49.8481C143.638 51.1213 144.932 51.7579 146.678 51.7579C147.851 51.7579 148.814 51.2989 149.567 50.3811C150.319 49.4336 150.695 48.1457 150.695 46.5172H154.352C154.352 49.1227 153.63 51.1953 152.185 52.735C150.771 54.245 148.905 55 146.587 55ZM141.531 40.6103H150.47C150.47 38.3897 150.139 36.702 149.477 35.5473C148.814 34.3926 147.836 33.8152 146.542 33.8152C144.887 33.8152 143.668 34.3926 142.885 35.5473C142.133 36.6724 141.681 38.3601 141.531 40.6103Z" fill="#30273E"/>
<path d="M165.415 55C163.61 55 162.135 54.6743 160.991 54.0229C159.878 53.3419 159.065 52.4833 158.553 51.447C158.042 50.4107 157.786 49.3152 157.786 48.1605C157.786 47.8348 157.786 47.5979 157.786 47.4499C157.816 47.3018 157.831 47.213 157.831 47.1834H161.714V47.6275C161.714 49.0783 162.09 50.1442 162.842 50.8252C163.595 51.4766 164.513 51.8023 165.596 51.8023C166.559 51.8023 167.387 51.5062 168.079 50.914C168.801 50.3219 169.163 49.4632 169.163 48.3381C169.163 47.361 168.892 46.606 168.35 46.0731C167.838 45.5105 167.176 45.0664 166.364 44.7407C165.551 44.3854 164.678 44.0597 163.745 43.7636C162.812 43.4379 161.939 43.0382 161.127 42.5645C160.314 42.0907 159.637 41.4394 159.095 40.6103C158.583 39.7517 158.328 38.6266 158.328 37.235C158.328 35.8434 158.629 34.659 159.231 33.6819C159.832 32.6753 160.69 31.9054 161.804 31.3725C162.917 30.8395 164.227 30.5731 165.732 30.5731C167.206 30.5731 168.44 30.8692 169.433 31.4613C170.457 32.0239 171.224 32.7937 171.736 33.7708C172.278 34.7479 172.549 35.8138 172.549 36.9685C172.549 37.1165 172.533 37.2794 172.503 37.457C172.503 37.6347 172.503 37.7531 172.503 37.8123H168.666V37.4126C168.666 36.4947 168.425 35.6657 167.944 34.9255C167.492 34.1557 166.634 33.7708 165.37 33.7708C164.498 33.7708 163.82 33.9484 163.339 34.3037C162.887 34.659 162.571 35.0883 162.391 35.5917C162.24 36.0654 162.165 36.5244 162.165 36.9685C162.165 37.8271 162.421 38.4933 162.932 38.967C163.474 39.4408 164.151 39.8257 164.964 40.1218C165.777 40.4179 166.649 40.7287 167.582 41.0544C168.516 41.3505 169.388 41.7502 170.201 42.2536C171.014 42.7569 171.676 43.4527 172.187 44.341C172.729 45.1996 173 46.3543 173 47.8052C173 49.4632 172.669 50.8252 172.007 51.8911C171.345 52.957 170.442 53.7416 169.298 54.245C168.184 54.7483 166.89 55 165.415 55Z" fill="#30273E"/>
<path fill-rule="evenodd" clip-rule="evenodd" d="M44 85.6662C68.3005 85.6662 88 66.4892 88 42.8331C88 19.177 68.3005 0 44 0C19.6995 0 0 19.177 0 42.8331C0 66.4892 19.6995 85.6662 44 85.6662ZM43.9999 81.3829C65.8704 81.3829 83.5999 64.1236 83.5999 42.8331C83.5999 21.5426 65.8704 4.28328 43.9999 4.28328C22.1295 4.28328 4.39993 21.5426 4.39993 42.8331C4.39993 64.1236 22.1295 81.3829 43.9999 81.3829Z" fill="#30273E"/>
<path fill-rule="evenodd" clip-rule="evenodd" d="M44 78.5274C64.2505 78.5274 80.6667 62.5465 80.6667 42.8331C80.6667 23.1197 64.2505 7.13885 44 7.13885C23.7496 7.13885 7.33337 23.1197 7.33337 42.8331C7.33337 62.5465 23.7496 78.5274 44 78.5274ZM44 74.2441C61.8204 74.2441 76.2667 60.1809 76.2667 42.8331C76.2667 25.4853 61.8204 11.4222 44 11.4222C26.1797 11.4222 11.7334 25.4853 11.7334 42.8331C11.7334 60.1809 26.1797 74.2441 44 74.2441Z" fill="#30273E"/>
<path fill-rule="evenodd" clip-rule="evenodd" d="M44.0001 71.3886C60.2004 71.3886 73.3334 58.6039 73.3334 42.8332C73.3334 27.0624 60.2004 14.2777 44.0001 14.2777C27.7997 14.2777 14.6667 27.0624 14.6667 42.8332C14.6667 58.6039 27.7997 71.3886 44.0001 71.3886ZM44 67.1053C57.7703 67.1053 68.9334 56.2383 68.9334 42.8331C68.9334 29.428 57.7703 18.561 44 18.561C30.2297 18.561 19.0667 29.428 19.0667 42.8331C19.0667 56.2383 30.2297 67.1053 44 67.1053Z" fill="#30273E"/>
<path fill-rule="evenodd" clip-rule="evenodd" d="M44 64.2497C56.1503 64.2497 66 54.6612 66 42.8332C66 31.0051 56.1503 21.4166 44 21.4166C31.8497 21.4166 22 31.0051 22 42.8332C22 54.6612 31.8497 64.2497 44 64.2497ZM43.9999 59.9664C53.7201 59.9664 61.5999 52.2956 61.5999 42.8331C61.5999 33.3707 53.7201 25.6999 43.9999 25.6999C34.2797 25.6999 26.3999 33.3707 26.3999 42.8331C26.3999 52.2956 34.2797 59.9664 43.9999 59.9664Z" fill="#30273E"/>
<path fill-rule="evenodd" clip-rule="evenodd" d="M44 57.1109C52.1002 57.1109 58.6667 50.7185 58.6667 42.8332C58.6667 34.9478 52.1002 28.5555 44 28.5555C35.8999 28.5555 29.3334 34.9478 29.3334 42.8332C29.3334 50.7185 35.8999 57.1109 44 57.1109ZM44 52.8276C49.6702 52.8276 54.2667 48.3529 54.2667 42.8332C54.2667 37.3134 49.6702 32.8388 44 32.8388C38.3299 32.8388 33.7334 37.3134 33.7334 42.8332C33.7334 48.3529 38.3299 52.8276 44 52.8276Z" fill="#30273E"/>
</svg>
