<svg width="51" height="79" viewBox="0 0 51 79" fill="none" xmlns="http://www.w3.org/2000/svg">
<path d="M4.63365 13.3899L4.63489 13.391L32.4843 39.4967L4.64113 65.5966C4.63991 65.5978 4.6387 65.5989 4.63748 65.6C4.01562 66.1799 3.51279 66.878 3.16618 67.659C2.81869 68.4419 2.63733 69.2879 2.63733 70.1466C2.63733 71.0052 2.81869 71.8512 3.16618 72.6341C3.51202 73.4134 4.0134 74.1102 4.63334 74.6892C5.25026 75.2713 5.97502 75.7258 6.76235 76.0337C7.55251 76.3427 8.395 76.5 9.24253 76.5C10.0901 76.5 10.9325 76.3427 11.7227 76.0337C12.5114 75.7252 13.2373 75.2697 13.8549 74.6862C13.8562 74.685 13.8575 74.6837 13.8588 74.6825L46.4962 44.0466C46.4975 44.0454 46.4988 44.0442 46.5001 44.043C47.1218 43.4632 47.6246 42.7652 47.9711 41.9843C48.3186 41.2014 48.5 40.3554 48.5 39.4967C48.5 38.638 48.3186 37.7921 47.9711 37.0091C47.6246 36.2283 47.1218 35.5303 46.5001 34.9505C46.4988 34.9493 46.4975 34.948 46.4962 34.9468L13.8514 4.30396C12.6036 3.13269 10.9432 2.5 9.24253 2.5C7.54182 2.5 5.88143 3.13269 4.63365 4.30396C3.38051 5.48025 2.64429 7.11071 2.64429 8.8469C2.64429 10.5831 3.38051 12.2136 4.63365 13.3899Z" fill="#30273E" stroke="white" stroke-width="5"/>
</svg>
