<svg width="56" height="89" viewBox="0 0 56 89" fill="none" xmlns="http://www.w3.org/2000/svg">
<path d="M4.30733 13.164L4.30832 13.1649L37.5659 44.4962L4.31329 75.8227C4.3124 75.8236 4.31152 75.8244 4.31064 75.8252C3.67261 76.4229 3.15941 77.14 2.80665 77.9388C2.45326 78.739 2.26953 79.6018 2.26953 80.4764C2.26953 81.351 2.45326 82.2138 2.80665 83.014C3.15882 83.8114 3.6709 84.5275 4.30746 85.1246C4.94022 85.7249 5.68613 86.1958 6.49963 86.5155C7.3156 86.8362 8.18705 87 9.06468 87C9.94231 87 10.8138 86.8362 11.6297 86.5155C12.4445 86.1953 13.1915 85.7234 13.8249 85.1217C13.8259 85.1208 13.827 85.1198 13.828 85.1188L51.9561 49.1498C51.9571 49.1489 51.958 49.148 51.959 49.1471C52.5969 48.5495 53.11 47.8324 53.4627 47.0338C53.8161 46.2336 53.9999 45.3707 53.9999 44.4962C53.9999 43.6216 53.8161 42.7588 53.4627 41.9586C53.11 41.1599 52.5969 40.4428 51.959 39.8452C51.958 39.8443 51.9571 39.8434 51.9561 39.8425L13.822 3.86788C12.5415 2.65984 10.8283 2 9.06468 2C7.30105 2 5.58789 2.65984 4.30733 3.86788C3.02281 5.07965 2.27767 6.74893 2.27767 8.51593C2.27767 10.2829 3.02281 11.9522 4.30733 13.164Z" fill="white" stroke="#30273E" stroke-width="4"/>
</svg>
