<svg width="172" height="172" viewBox="0 0 172 172" fill="none" xmlns="http://www.w3.org/2000/svg">
<path d="M86 121.833C80.3303 121.833 74.7879 120.152 70.0737 117.002C65.3594 113.852 61.6852 109.375 59.5154 104.137C57.3457 98.8988 56.778 93.1349 57.8842 87.5741C58.9903 82.0133 61.7205 76.9054 65.7296 72.8963C69.7387 68.8872 74.8466 66.1569 80.4074 65.0508C85.9682 63.9447 91.7321 64.5124 96.9703 66.6821C102.208 68.8518 106.686 72.5261 109.835 77.2403C112.985 81.9545 114.667 87.4969 114.667 93.1667C114.667 100.77 111.646 108.061 106.27 113.437C100.894 118.813 93.6029 121.833 86 121.833ZM129 150.5C129 144.798 126.735 139.329 122.703 135.297C118.671 131.265 113.202 129 107.5 129H64.5C58.7978 129 53.3292 131.265 49.2972 135.297C45.2652 139.329 43 144.798 43 150.5V167C43 169.761 45.2386 172 48 172H124C126.761 172 129 169.761 129 167V150.5ZM129 57.3333C123.33 57.3333 117.788 55.6521 113.074 52.5021C108.359 49.3522 104.685 44.8751 102.515 39.6369C100.346 34.3988 99.778 28.6349 100.884 23.0741C101.99 17.5133 104.72 12.4054 108.73 8.39629C112.739 4.38718 117.847 1.65694 123.407 0.550835C128.968 -0.555275 134.732 0.0124207 139.97 2.18213C145.208 4.35184 149.686 8.02612 152.835 12.7403C155.985 17.4545 157.667 22.9969 157.667 28.6667C157.667 36.2696 154.646 43.561 149.27 48.9371C143.894 54.3131 136.603 57.3333 129 57.3333ZM43 57.3333C37.3303 57.3333 31.7879 55.6521 27.0737 52.5021C22.3594 49.3522 18.6852 44.8751 16.5155 39.6369C14.3457 34.3988 13.778 28.6349 14.8842 23.0741C15.9903 17.5133 18.7205 12.4054 22.7296 8.39629C26.7387 4.38718 31.8466 1.65694 37.4074 0.550835C42.9682 -0.555275 48.7321 0.0124207 53.9703 2.18213C59.2084 4.35184 63.6855 8.02612 66.8355 12.7403C69.9854 17.4545 71.6667 22.9969 71.6667 28.6667C71.6667 36.2696 68.6464 43.561 63.2704 48.9371C57.8944 54.3131 50.6029 57.3333 43 57.3333ZM43 93.1667C42.9976 86.3607 44.618 79.7097 47.6595 73.7385C49.6255 69.8786 47.1013 64.5 42.7695 64.5H21.5C15.7978 64.5 10.3292 66.7652 6.2972 70.7972C2.26517 74.8292 0 80.2979 0 86V102.5C0 105.261 2.23858 107.5 5 107.5H38.4018C41.8607 107.5 44.2851 104.053 43.6737 100.648C43.2311 98.1835 43.0048 95.6801 43 93.1667ZM128.329 100.645C127.718 104.05 130.142 107.5 133.602 107.5H167C169.761 107.5 172 105.261 172 102.5V86C172 80.2979 169.735 74.8292 165.703 70.7972C161.671 66.7652 156.202 64.5 150.5 64.5H129.246C124.912 64.5 122.387 69.8858 124.354 73.7479C126.127 77.2298 127.422 80.9546 128.188 84.8227C129.225 90.0621 129.265 95.4283 128.329 100.645Z" fill="white"/>
<path d="M86 121.833C80.3303 121.833 74.7879 120.152 70.0737 117.002C65.3594 113.852 61.6852 109.375 59.5154 104.137C57.3457 98.8988 56.778 93.1349 57.8842 87.5741C58.9903 82.0133 61.7205 76.9054 65.7296 72.8963C69.7387 68.8872 74.8466 66.1569 80.4074 65.0508C85.9682 63.9447 91.7321 64.5124 96.9703 66.6821C102.208 68.8518 106.686 72.5261 109.835 77.2403C112.985 81.9545 114.667 87.4969 114.667 93.1667C114.667 100.77 111.646 108.061 106.27 113.437C100.894 118.813 93.6029 121.833 86 121.833ZM129 150.5C129 144.798 126.735 139.329 122.703 135.297C118.671 131.265 113.202 129 107.5 129H64.5C58.7978 129 53.3292 131.265 49.2972 135.297C45.2652 139.329 43 144.798 43 150.5V167C43 169.761 45.2386 172 48 172H124C126.761 172 129 169.761 129 167V150.5ZM129 57.3333C123.33 57.3333 117.788 55.6521 113.074 52.5021C108.359 49.3522 104.685 44.8751 102.515 39.6369C100.346 34.3988 99.778 28.6349 100.884 23.0741C101.99 17.5133 104.72 12.4054 108.73 8.39629C112.739 4.38718 117.847 1.65694 123.407 0.550835C128.968 -0.555275 134.732 0.0124207 139.97 2.18213C145.208 4.35184 149.686 8.02612 152.835 12.7403C155.985 17.4545 157.667 22.9969 157.667 28.6667C157.667 36.2696 154.646 43.561 149.27 48.9371C143.894 54.3131 136.603 57.3333 129 57.3333ZM43 57.3333C37.3303 57.3333 31.7879 55.6521 27.0737 52.5021C22.3594 49.3522 18.6852 44.8751 16.5155 39.6369C14.3457 34.3988 13.778 28.6349 14.8842 23.0741C15.9903 17.5133 18.7205 12.4054 22.7296 8.39629C26.7387 4.38718 31.8466 1.65694 37.4074 0.550835C42.9682 -0.555275 48.7321 0.0124207 53.9703 2.18213C59.2084 4.35184 63.6855 8.02612 66.8355 12.7403C69.9854 17.4545 71.6667 22.9969 71.6667 28.6667C71.6667 36.2696 68.6464 43.561 63.2704 48.9371C57.8944 54.3131 50.6029 57.3333 43 57.3333ZM43 93.1667C42.9976 86.3607 44.618 79.7097 47.6595 73.7385C49.6255 69.8786 47.1013 64.5 42.7695 64.5H21.5C15.7978 64.5 10.3292 66.7652 6.2972 70.7972C2.26517 74.8292 0 80.2979 0 86V102.5C0 105.261 2.23858 107.5 5 107.5H38.4018C41.8607 107.5 44.2851 104.053 43.6737 100.648C43.2311 98.1835 43.0048 95.6801 43 93.1667ZM128.329 100.645C127.718 104.05 130.142 107.5 133.602 107.5H167C169.761 107.5 172 105.261 172 102.5V86C172 80.2979 169.735 74.8292 165.703 70.7972C161.671 66.7652 156.202 64.5 150.5 64.5H129.246C124.912 64.5 122.387 69.8858 124.354 73.7479C126.127 77.2298 127.422 80.9546 128.188 84.8227C129.225 90.0621 129.265 95.4283 128.329 100.645Z" stroke="white"/>
</svg>
