<svg width="435" height="901" viewBox="0 0 435 901" fill="none" xmlns="http://www.w3.org/2000/svg">
<g filter="url(#filter0_b_79_230)">
<rect x="2.63495" y="4.61121" width="429.499" height="884.689" rx="55" fill="url(#paint0_linear_79_230)" fill-opacity="0.38"/>
</g>
<path fill-rule="evenodd" clip-rule="evenodd" d="M32.9371 0C14.7464 0 0 14.7464 0 32.9371V867.562C0 885.753 14.7464 900.499 32.9371 900.499H401.832C420.023 900.499 434.769 885.753 434.769 867.562V32.9371C434.769 14.7464 420.023 0 401.832 0H32.9371ZM40.1832 15.151C21.9926 15.151 7.24615 29.8974 7.24615 48.0881V828.038C7.24615 846.228 21.9926 860.975 40.1832 860.975H394.586C412.777 860.975 427.523 846.228 427.523 828.038V48.0881C427.523 29.8975 412.777 15.151 394.586 15.151H40.1832Z" fill="#30273E"/>
<circle cx="270.413" cy="36.5601" r="8.893" fill="#30273E"/>
<rect x="179.178" y="27.6671" width="76.414" height="17.786" rx="8.89301" fill="#30273E"/>
<path d="M172.234 381H169.627V366.762H150.408V381H147.801V352.23H150.408V364.096H169.627V352.23H172.234V381ZM210.35 381H207.713V375.141C207.205 375.824 206.648 376.479 206.043 377.104C202.898 380.248 199.1 381.82 194.646 381.82C190.213 381.82 186.424 380.248 183.279 377.104C180.135 373.959 178.562 370.17 178.562 365.736C178.562 361.283 180.135 357.484 183.279 354.34C186.424 351.195 190.213 349.623 194.646 349.623C199.1 349.623 202.898 351.195 206.043 354.34C206.648 354.965 207.205 355.619 207.713 356.303V352.23H210.35V381ZM207.713 368.344V363.129C207.225 360.551 206.004 358.285 204.051 356.332C201.453 353.734 198.318 352.436 194.646 352.436C190.975 352.436 187.84 353.734 185.242 356.332C182.645 358.93 181.346 362.064 181.346 365.736C181.346 369.408 182.645 372.543 185.242 375.141C187.84 377.719 190.975 379.008 194.646 379.008C198.318 379.008 201.453 377.709 204.051 375.111C206.004 373.158 207.225 370.902 207.713 368.344ZM217.732 352.23H220.398V378.334H233.201V352.23H235.867V378.334H248.699V352.23H251.336V380.971H217.732V352.23ZM264.227 375.609C266.707 377.875 269.656 379.008 273.074 379.008C276.746 379.008 279.881 377.709 282.479 375.111C282.811 374.779 283.123 374.437 283.416 374.086L286.199 375.082C285.691 375.785 285.115 376.459 284.471 377.104C281.326 380.248 277.527 381.82 273.074 381.82C268.641 381.82 264.852 380.248 261.707 377.104C258.562 373.959 256.99 370.16 256.99 365.707C256.99 361.273 258.562 357.484 261.707 354.34C264.852 351.195 268.641 349.623 273.074 349.623C276.883 349.623 280.213 350.766 283.064 353.051C283.533 353.441 284.002 353.871 284.471 354.34C284.646 354.516 284.812 354.691 284.969 354.867L282.977 356.859L264.227 375.609ZM281.043 355.072C278.758 353.314 276.102 352.436 273.074 352.436C269.422 352.436 266.297 353.734 263.699 356.332C261.102 358.91 259.803 362.035 259.803 365.707C259.803 368.734 260.682 371.391 262.439 373.676L281.043 355.072ZM51.9707 534.896V561H49.3633V532.23H73.7969V561H71.1895V534.896H51.9707ZM95.5059 529.623C99.959 529.623 103.748 531.195 106.873 534.34C110.018 537.484 111.59 541.283 111.59 545.736C111.59 550.17 110.018 553.959 106.873 557.103C103.748 560.248 99.959 561.82 95.5059 561.82C91.0723 561.82 87.2832 560.248 84.1387 557.103C80.9941 553.959 79.4219 550.17 79.4219 545.736C79.4219 541.283 80.9941 537.484 84.1387 534.34C87.2832 531.195 91.0723 529.623 95.5059 529.623ZM95.5059 532.436C91.834 532.436 88.6992 533.734 86.1016 536.332C83.5039 538.93 82.2051 542.064 82.2051 545.736C82.2051 549.408 83.5039 552.543 86.1016 555.141C88.6992 557.719 91.834 559.008 95.5059 559.008C99.1777 559.008 102.312 557.719 104.91 555.141C107.508 552.543 108.807 549.408 108.807 545.736C108.807 542.064 107.508 538.93 104.91 536.332C102.312 533.734 99.1777 532.436 95.5059 532.436ZM118.621 532.23H121.258V536.273C121.746 535.609 122.303 534.965 122.928 534.34C126.072 531.215 129.861 529.652 134.295 529.652C138.748 529.652 142.537 531.225 145.662 534.369C148.807 537.494 150.379 541.283 150.379 545.736C150.379 550.17 148.807 553.959 145.662 557.103C142.537 560.248 138.748 561.82 134.295 561.82C129.861 561.82 126.072 560.248 122.928 557.103C122.303 556.478 121.746 555.834 121.258 555.17V571.986H118.621V532.23ZM121.258 542.982V548.49C121.766 551.01 122.977 553.227 124.891 555.141C127.488 557.738 130.623 559.037 134.295 559.037C137.967 559.037 141.102 557.738 143.699 555.141C146.297 552.543 147.596 549.408 147.596 545.736C147.596 542.064 146.297 538.93 143.699 536.332C141.102 533.734 137.967 532.436 134.295 532.436C130.623 532.436 127.488 533.734 124.891 536.332C122.977 538.246 121.766 540.463 121.258 542.982ZM170.447 534.896V561H167.84V534.896H155.975V532.23H182.342V534.896H170.447ZM218.934 542.484V549.047C219.5 551.332 220.672 553.363 222.449 555.141C225.047 557.738 228.182 559.037 231.854 559.037C235.506 559.037 238.631 557.748 241.229 555.17C243.826 552.572 245.125 549.437 245.125 545.766C245.125 542.094 243.826 538.959 241.229 536.361C238.631 533.744 235.506 532.436 231.854 532.436C228.182 532.436 225.047 533.734 222.449 536.332C220.672 538.109 219.5 540.16 218.934 542.484ZM216.297 549.047V542.484C215.75 540.16 214.578 538.109 212.781 536.332C210.203 533.734 207.078 532.436 203.406 532.436C199.734 532.436 196.6 533.744 194.002 536.361C191.404 538.959 190.105 542.094 190.105 545.766C190.105 549.437 191.404 552.572 194.002 555.17C196.6 557.748 199.734 559.037 203.406 559.037C207.078 559.037 210.203 557.738 212.781 555.141C214.578 553.363 215.75 551.332 216.297 549.047ZM218.934 536.156C219.402 535.531 219.92 534.926 220.486 534.34C223.631 531.234 227.42 529.682 231.854 529.682C236.307 529.682 240.096 531.244 243.221 534.369C246.346 537.494 247.908 541.293 247.908 545.766C247.908 550.18 246.346 553.959 243.221 557.103C240.096 560.248 236.307 561.82 231.854 561.82C227.42 561.82 223.631 560.248 220.486 557.103C219.92 556.537 219.402 555.951 218.934 555.346V571.488H216.297V555.346C215.828 555.951 215.32 556.537 214.773 557.103C211.609 560.248 207.82 561.82 203.406 561.82C198.934 561.82 195.135 560.248 192.01 557.103C188.885 553.959 187.322 550.18 187.322 545.766C187.322 541.293 188.885 537.494 192.01 534.369C195.135 531.244 198.934 529.682 203.406 529.682C207.82 529.682 211.609 531.234 214.773 534.34C215.32 534.926 215.828 535.531 216.297 536.156V520.014H218.934V536.156ZM269.002 529.623C273.455 529.623 277.244 531.195 280.369 534.34C283.514 537.484 285.086 541.283 285.086 545.736C285.086 550.17 283.514 553.959 280.369 557.103C277.244 560.248 273.455 561.82 269.002 561.82C264.568 561.82 260.779 560.248 257.635 557.103C254.49 553.959 252.918 550.17 252.918 545.736C252.918 541.283 254.49 537.484 257.635 534.34C260.779 531.195 264.568 529.623 269.002 529.623ZM269.002 532.436C265.33 532.436 262.195 533.734 259.598 536.332C257 538.93 255.701 542.064 255.701 545.736C255.701 549.408 257 552.543 259.598 555.141C262.195 557.719 265.33 559.008 269.002 559.008C272.674 559.008 275.809 557.719 278.406 555.141C281.004 552.543 282.303 549.408 282.303 545.736C282.303 542.064 281.004 538.93 278.406 536.332C275.809 533.734 272.674 532.436 269.002 532.436ZM317.371 532.23V561H314.764V534.896H295.545V554.379C295.545 558.48 293.494 560.697 289.393 561.029V558.422C291.756 558.148 292.937 556.82 292.937 554.437V532.23H317.371ZM323.348 532.23H325.955V556.605L344.353 532.23H347.195V561H344.559V536.42L325.955 560.971V561H323.348V532.23ZM368.904 529.623C373.357 529.623 377.146 531.195 380.271 534.34C383.416 537.484 384.988 541.283 384.988 545.736C384.988 550.17 383.416 553.959 380.271 557.103C377.146 560.248 373.357 561.82 368.904 561.82C364.471 561.82 360.682 560.248 357.537 557.103C354.393 553.959 352.82 550.17 352.82 545.736C352.82 541.283 354.393 537.484 357.537 534.34C360.682 531.195 364.471 529.623 368.904 529.623ZM368.904 532.436C365.232 532.436 362.098 533.734 359.5 536.332C356.902 538.93 355.603 542.064 355.603 545.736C355.603 549.408 356.902 552.543 359.5 555.141C362.098 557.719 365.232 559.008 368.904 559.008C372.576 559.008 375.711 557.719 378.309 555.141C380.906 552.543 382.205 549.408 382.205 545.736C382.205 542.064 380.906 538.93 378.309 536.332C375.711 533.734 372.576 532.436 368.904 532.436Z" fill="#30273E"/>
<path d="M112.516 132.955V214.986H107.901V141.055H103.031L109.337 132.955H112.516ZM147.84 214.986C149.412 204.39 153.018 196.99 158.658 192.786C164.332 188.548 169.339 184.805 173.68 181.558C178.021 178.277 182.054 174.603 185.78 170.535C189.505 166.468 191.368 161.734 191.368 156.333C191.368 150.899 189.454 146.268 185.626 142.439C181.798 138.611 177.166 136.697 171.732 136.697C166.366 136.697 161.751 138.611 157.889 142.439C154.608 145.721 152.728 149.634 152.249 154.18L147.584 152.488C148.37 147.361 150.66 142.884 154.454 139.056C159.239 134.236 164.998 131.827 171.732 131.827C178.499 131.827 184.259 134.219 189.01 139.004C193.795 143.79 196.187 149.566 196.187 156.333C196.187 163.067 193.846 168.946 189.163 173.97C185.985 177.422 182.225 180.772 177.884 184.019C173.543 187.266 168.656 190.923 163.221 194.991C157.786 199.058 154.403 204.185 153.07 210.372H196.187V214.986H147.84ZM214.952 206.526C216.217 206.526 217.293 206.971 218.182 207.859C219.105 208.748 219.566 209.825 219.566 211.089C219.566 212.388 219.105 213.482 218.182 214.371C217.293 215.259 216.217 215.704 214.952 215.704C213.687 215.704 212.594 215.259 211.671 214.371C210.782 213.482 210.338 212.388 210.338 211.089C210.338 209.825 210.782 208.748 211.671 207.859C212.594 206.971 213.687 206.526 214.952 206.526ZM214.952 174.893C216.217 174.893 217.293 175.337 218.182 176.226C219.105 177.115 219.566 178.191 219.566 179.456C219.566 180.755 219.105 181.849 218.182 182.737C217.293 183.626 216.217 184.07 214.952 184.07C213.687 184.07 212.594 183.626 211.671 182.737C210.782 181.849 210.338 180.755 210.338 179.456C210.338 178.191 210.782 177.115 211.671 176.226C212.594 175.337 213.687 174.893 214.952 174.893ZM255.147 169.202L251.302 169.1V164.485C254.481 164.451 257.078 164.041 259.095 163.255C261.146 162.469 263.35 160.811 265.709 158.282C268.101 155.752 269.298 152.745 269.298 149.258C269.298 145.738 268.067 142.764 265.606 140.337C263.145 137.876 260.172 136.646 256.685 136.646C253.233 136.646 250.26 137.859 247.765 140.286C246.397 141.687 245.389 143.26 244.74 145.003L240.33 143.26C241.082 140.867 242.398 138.765 244.278 136.954C247.73 133.536 251.866 131.827 256.685 131.827C261.573 131.827 265.709 133.553 269.093 137.005C272.511 140.423 274.22 144.507 274.22 149.258C274.22 154.112 272.921 157.94 270.323 160.743C267.725 163.511 265.299 165.357 263.043 166.28C267.965 167.92 272.049 170.484 275.296 173.97C279.979 178.995 282.32 184.874 282.32 191.607C282.32 198.375 279.928 204.151 275.142 208.936C270.391 213.721 264.632 216.114 257.865 216.114C251.131 216.114 245.372 213.704 240.587 208.885C236.793 205.057 234.503 200.579 233.717 195.452L238.382 193.76C238.861 198.306 240.741 202.22 244.022 205.501C247.884 209.329 252.498 211.243 257.865 211.243C263.299 211.243 267.931 209.329 271.759 205.501C275.587 201.673 277.501 197.041 277.501 191.607C277.501 186.207 275.638 181.473 271.912 177.405C268.187 173.338 262.598 170.604 255.147 169.202ZM345.382 161.102C345.382 154.676 343.109 149.207 338.563 144.695C334.017 140.149 328.531 137.876 322.105 137.876C315.68 137.876 310.194 140.149 305.648 144.695C301.102 149.207 298.829 154.676 298.829 161.102V188.274C298.829 194.7 301.102 200.186 305.648 204.732C310.194 209.244 315.68 211.5 322.105 211.5C328.531 211.5 334.017 209.244 338.563 204.732C343.109 200.186 345.382 194.7 345.382 188.274V161.102ZM350.252 188.274C350.252 196.033 347.501 202.664 341.998 208.167C336.529 213.67 329.898 216.421 322.105 216.421C314.347 216.421 307.716 213.67 302.213 208.167C296.71 202.664 293.958 196.033 293.958 188.274V161.102C293.958 153.343 296.71 146.712 302.213 141.209C307.716 135.706 314.347 132.955 322.105 132.955C329.898 132.955 336.529 135.706 341.998 141.209C347.501 146.712 350.252 153.343 350.252 161.102V188.274Z" fill="white"/>
<rect x="126" y="399" width="185" height="96" rx="24" fill="#30273E" stroke="white" stroke-width="2"/>
<path d="M179.64 468.304V424.922H185.205V468.304H179.64Z" fill="white"/>
<path d="M202.63 468.304V429.981H190.804V424.922H220.021V429.981H208.195V468.304H202.63Z" fill="white"/>
<path d="M223.164 468.304V435.04H227.085L227.781 439.403H228.16C228.582 438.139 229.235 436.979 230.12 435.925C231.006 434.829 232.228 434.281 233.788 434.281C234.505 434.281 235.095 434.365 235.559 434.534C236.023 434.703 236.255 434.787 236.255 434.787V440.162H234.547C233.451 440.162 232.418 440.415 231.448 440.921C230.521 441.385 229.762 442.186 229.172 443.324C228.624 444.463 228.35 446.022 228.35 448.004V468.304H223.164Z" fill="white"/>
<path d="M251.902 469.063C247.771 469.063 244.63 467.713 242.48 465.015C240.372 462.275 239.318 457.827 239.318 451.672C239.318 445.685 240.351 441.301 242.416 438.518C244.524 435.693 247.665 434.281 251.839 434.281C255.465 434.281 258.184 435.504 259.997 437.949C261.852 440.352 262.779 444.336 262.779 449.901V453.19H244.756C244.798 457.068 245.41 459.914 246.59 461.727C247.771 463.54 249.584 464.446 252.029 464.446C253.673 464.446 255.022 463.793 256.076 462.486C257.13 461.137 257.657 459.303 257.657 456.984H262.779C262.779 460.694 261.768 463.645 259.744 465.837C257.762 467.987 255.149 469.063 251.902 469.063ZM244.82 448.573H257.341C257.341 445.411 256.877 443.008 255.95 441.364C255.022 439.72 253.652 438.897 251.839 438.897C249.52 438.897 247.813 439.72 246.717 441.364C245.663 442.966 245.03 445.369 244.82 448.573Z" fill="white"/>
<path d="M278.276 469.063C275.747 469.063 273.681 468.599 272.079 467.671C270.519 466.702 269.381 465.479 268.664 464.003C267.947 462.528 267.589 460.968 267.589 459.324C267.589 458.86 267.589 458.523 267.589 458.312C267.631 458.101 267.652 457.975 267.652 457.932H273.091V458.565C273.091 460.631 273.618 462.148 274.672 463.118C275.726 464.046 277.012 464.509 278.529 464.509C279.879 464.509 281.038 464.088 282.008 463.245C283.019 462.401 283.525 461.179 283.525 459.577C283.525 458.185 283.146 457.11 282.387 456.351C281.67 455.55 280.743 454.918 279.605 454.454C278.466 453.948 277.244 453.485 275.937 453.063C274.63 452.599 273.407 452.03 272.269 451.356C271.13 450.681 270.182 449.754 269.423 448.573C268.706 447.35 268.348 445.748 268.348 443.767C268.348 441.785 268.77 440.099 269.613 438.708C270.456 437.274 271.657 436.178 273.217 435.419C274.777 434.66 276.611 434.281 278.719 434.281C280.785 434.281 282.514 434.703 283.905 435.546C285.338 436.347 286.413 437.443 287.13 438.834C287.889 440.226 288.268 441.743 288.268 443.387C288.268 443.598 288.247 443.83 288.205 444.083C288.205 444.336 288.205 444.505 288.205 444.589H282.83V444.02C282.83 442.713 282.492 441.532 281.818 440.478C281.185 439.382 279.984 438.834 278.213 438.834C276.991 438.834 276.042 439.087 275.367 439.593C274.735 440.099 274.292 440.71 274.039 441.427C273.829 442.102 273.723 442.755 273.723 443.387C273.723 444.61 274.082 445.559 274.798 446.233C275.557 446.908 276.506 447.456 277.644 447.877C278.782 448.299 280.005 448.742 281.312 449.205C282.619 449.627 283.842 450.196 284.98 450.913C286.118 451.63 287.046 452.62 287.762 453.885C288.521 455.108 288.901 456.752 288.901 458.818C288.901 461.179 288.437 463.118 287.509 464.636C286.582 466.154 285.317 467.271 283.715 467.987C282.155 468.704 280.342 469.063 278.276 469.063Z" fill="white"/>
<path d="M146.34 468.962L148.869 457.643H144.822V452.836H149.944L152.094 443.034H147.288V438.228H153.169L156.142 424.948H160.948L157.976 438.228H163.667L166.639 424.948H171.445L168.473 438.228H172.268V443.034H167.398L165.248 452.836H169.738V457.643H164.173L161.643 468.962H156.837L159.367 457.643H153.675L151.146 468.962H146.34ZM154.75 452.836H160.442L162.592 443.034H156.9L154.75 452.836Z" fill="white"/>
<defs>
<filter id="filter0_b_79_230" x="-31.465" y="-29.4888" width="497.699" height="952.889" filterUnits="userSpaceOnUse" color-interpolation-filters="sRGB">
<feFlood flood-opacity="0" result="BackgroundImageFix"/>
<feGaussianBlur in="BackgroundImageFix" stdDeviation="17.05"/>
<feComposite in2="SourceAlpha" operator="in" result="effect1_backgroundBlur_79_230"/>
<feBlend mode="normal" in="SourceGraphic" in2="effect1_backgroundBlur_79_230" result="shape"/>
</filter>
<linearGradient id="paint0_linear_79_230" x1="217.385" y1="4.61121" x2="217.385" y2="889.301" gradientUnits="userSpaceOnUse">
<stop stop-color="#6A5F77"/>
<stop offset="1" stop-color="#6A5F77" stop-opacity="0"/>
</linearGradient>
</defs>
</svg>
