<svg width="446" height="905" viewBox="0 0 446 905" fill="none" xmlns="http://www.w3.org/2000/svg">
<g filter="url(#filter0_b_79_230)">
<rect x="4.63495" y="6.61121" width="429.499" height="884.689" rx="55" fill="url(#paint0_linear_79_230)" fill-opacity="0.38"/>
</g>
<path fill-rule="evenodd" clip-rule="evenodd" d="M34.9371 2C16.7464 2 2 16.7464 2 34.9371V869.562C2 887.753 16.7464 902.499 34.9371 902.499H403.832C422.023 902.499 436.769 887.753 436.769 869.562V34.9371C436.769 16.7464 422.023 2 403.832 2H34.9371ZM42.1832 17.151C23.9926 17.151 9.24615 31.8974 9.24615 50.0881V830.038C9.24615 848.228 23.9926 862.975 42.1832 862.975H396.586C414.777 862.975 429.523 848.228 429.523 830.038V50.0881C429.523 31.8975 414.777 17.151 396.586 17.151H42.1832Z" fill="#30273E"/>
<circle cx="272.413" cy="38.5601" r="8.893" fill="#30273E"/>
<rect x="181.178" y="29.6671" width="76.414" height="17.786" rx="8.89301" fill="#30273E"/>
<rect x="443.357" y="106.081" width="140.312" height="9.88111" rx="4.94056" transform="rotate(90 443.357 106.081)" fill="#30273E"/>
<rect x="443.357" y="275.377" width="76.414" height="9.88111" rx="4.94056" transform="rotate(90 443.357 275.377)" fill="#30273E"/>
<path d="M437.769 869.562V352.757C437.982 352.78 438.197 352.791 438.416 352.791C441.697 352.791 444.357 350.132 444.357 346.851V280.318C444.357 277.037 441.697 274.377 438.416 274.377C438.197 274.377 437.982 274.389 437.769 274.412V247.358C437.982 247.381 438.197 247.393 438.416 247.393C441.697 247.393 444.357 244.733 444.357 241.453V111.022C444.357 107.741 441.697 105.081 438.416 105.081C438.197 105.081 437.982 105.093 437.769 105.116V34.9371C437.769 16.1941 422.575 1 403.832 1H34.9371C16.1941 1 1 16.1941 1 34.9371V869.562C1 888.305 16.1941 903.499 34.9371 903.499H403.832C422.575 903.499 437.769 888.305 437.769 869.562Z" stroke="white" stroke-width="2"/>
<path d="M174.234 383H171.627V368.762H152.408V383H149.801V354.23H152.408V366.096H171.627V354.23H174.234V383ZM212.35 383H209.713V377.141C209.205 377.824 208.648 378.479 208.043 379.104C204.898 382.248 201.1 383.82 196.646 383.82C192.213 383.82 188.424 382.248 185.279 379.104C182.135 375.959 180.562 372.17 180.562 367.736C180.562 363.283 182.135 359.484 185.279 356.34C188.424 353.195 192.213 351.623 196.646 351.623C201.1 351.623 204.898 353.195 208.043 356.34C208.648 356.965 209.205 357.619 209.713 358.303V354.23H212.35V383ZM209.713 370.344V365.129C209.225 362.551 208.004 360.285 206.051 358.332C203.453 355.734 200.318 354.436 196.646 354.436C192.975 354.436 189.84 355.734 187.242 358.332C184.645 360.93 183.346 364.064 183.346 367.736C183.346 371.408 184.645 374.543 187.242 377.141C189.84 379.719 192.975 381.008 196.646 381.008C200.318 381.008 203.453 379.709 206.051 377.111C208.004 375.158 209.225 372.902 209.713 370.344ZM219.732 354.23H222.398V380.334H235.201V354.23H237.867V380.334H250.699V354.23H253.336V382.971H219.732V354.23ZM266.227 377.609C268.707 379.875 271.656 381.008 275.074 381.008C278.746 381.008 281.881 379.709 284.479 377.111C284.811 376.779 285.123 376.437 285.416 376.086L288.199 377.082C287.691 377.785 287.115 378.459 286.471 379.104C283.326 382.248 279.527 383.82 275.074 383.82C270.641 383.82 266.852 382.248 263.707 379.104C260.562 375.959 258.99 372.16 258.99 367.707C258.99 363.273 260.562 359.484 263.707 356.34C266.852 353.195 270.641 351.623 275.074 351.623C278.883 351.623 282.213 352.766 285.064 355.051C285.533 355.441 286.002 355.871 286.471 356.34C286.646 356.516 286.812 356.691 286.969 356.867L284.977 358.859L266.227 377.609ZM283.043 357.072C280.758 355.314 278.102 354.436 275.074 354.436C271.422 354.436 268.297 355.734 265.699 358.332C263.102 360.91 261.803 364.035 261.803 367.707C261.803 370.734 262.682 373.391 264.439 375.676L283.043 357.072ZM53.9707 536.896V563H51.3633V534.23H75.7969V563H73.1895V536.896H53.9707ZM97.5059 531.623C101.959 531.623 105.748 533.195 108.873 536.34C112.018 539.484 113.59 543.283 113.59 547.736C113.59 552.17 112.018 555.959 108.873 559.103C105.748 562.248 101.959 563.82 97.5059 563.82C93.0723 563.82 89.2832 562.248 86.1387 559.103C82.9941 555.959 81.4219 552.17 81.4219 547.736C81.4219 543.283 82.9941 539.484 86.1387 536.34C89.2832 533.195 93.0723 531.623 97.5059 531.623ZM97.5059 534.436C93.834 534.436 90.6992 535.734 88.1016 538.332C85.5039 540.93 84.2051 544.064 84.2051 547.736C84.2051 551.408 85.5039 554.543 88.1016 557.141C90.6992 559.719 93.834 561.008 97.5059 561.008C101.178 561.008 104.312 559.719 106.91 557.141C109.508 554.543 110.807 551.408 110.807 547.736C110.807 544.064 109.508 540.93 106.91 538.332C104.312 535.734 101.178 534.436 97.5059 534.436ZM120.621 534.23H123.258V538.273C123.746 537.609 124.303 536.965 124.928 536.34C128.072 533.215 131.861 531.652 136.295 531.652C140.748 531.652 144.537 533.225 147.662 536.369C150.807 539.494 152.379 543.283 152.379 547.736C152.379 552.17 150.807 555.959 147.662 559.103C144.537 562.248 140.748 563.82 136.295 563.82C131.861 563.82 128.072 562.248 124.928 559.103C124.303 558.478 123.746 557.834 123.258 557.17V573.986H120.621V534.23ZM123.258 544.982V550.49C123.766 553.01 124.977 555.227 126.891 557.141C129.488 559.738 132.623 561.037 136.295 561.037C139.967 561.037 143.102 559.738 145.699 557.141C148.297 554.543 149.596 551.408 149.596 547.736C149.596 544.064 148.297 540.93 145.699 538.332C143.102 535.734 139.967 534.436 136.295 534.436C132.623 534.436 129.488 535.734 126.891 538.332C124.977 540.246 123.766 542.463 123.258 544.982ZM172.447 536.896V563H169.84V536.896H157.975V534.23H184.342V536.896H172.447ZM220.934 544.484V551.047C221.5 553.332 222.672 555.363 224.449 557.141C227.047 559.738 230.182 561.037 233.854 561.037C237.506 561.037 240.631 559.748 243.229 557.17C245.826 554.572 247.125 551.437 247.125 547.766C247.125 544.094 245.826 540.959 243.229 538.361C240.631 535.744 237.506 534.436 233.854 534.436C230.182 534.436 227.047 535.734 224.449 538.332C222.672 540.109 221.5 542.16 220.934 544.484ZM218.297 551.047V544.484C217.75 542.16 216.578 540.109 214.781 538.332C212.203 535.734 209.078 534.436 205.406 534.436C201.734 534.436 198.6 535.744 196.002 538.361C193.404 540.959 192.105 544.094 192.105 547.766C192.105 551.437 193.404 554.572 196.002 557.17C198.6 559.748 201.734 561.037 205.406 561.037C209.078 561.037 212.203 559.738 214.781 557.141C216.578 555.363 217.75 553.332 218.297 551.047ZM220.934 538.156C221.402 537.531 221.92 536.926 222.486 536.34C225.631 533.234 229.42 531.682 233.854 531.682C238.307 531.682 242.096 533.244 245.221 536.369C248.346 539.494 249.908 543.293 249.908 547.766C249.908 552.18 248.346 555.959 245.221 559.103C242.096 562.248 238.307 563.82 233.854 563.82C229.42 563.82 225.631 562.248 222.486 559.103C221.92 558.537 221.402 557.951 220.934 557.346V573.488H218.297V557.346C217.828 557.951 217.32 558.537 216.773 559.103C213.609 562.248 209.82 563.82 205.406 563.82C200.934 563.82 197.135 562.248 194.01 559.103C190.885 555.959 189.322 552.18 189.322 547.766C189.322 543.293 190.885 539.494 194.01 536.369C197.135 533.244 200.934 531.682 205.406 531.682C209.82 531.682 213.609 533.234 216.773 536.34C217.32 536.926 217.828 537.531 218.297 538.156V522.014H220.934V538.156ZM271.002 531.623C275.455 531.623 279.244 533.195 282.369 536.34C285.514 539.484 287.086 543.283 287.086 547.736C287.086 552.17 285.514 555.959 282.369 559.103C279.244 562.248 275.455 563.82 271.002 563.82C266.568 563.82 262.779 562.248 259.635 559.103C256.49 555.959 254.918 552.17 254.918 547.736C254.918 543.283 256.49 539.484 259.635 536.34C262.779 533.195 266.568 531.623 271.002 531.623ZM271.002 534.436C267.33 534.436 264.195 535.734 261.598 538.332C259 540.93 257.701 544.064 257.701 547.736C257.701 551.408 259 554.543 261.598 557.141C264.195 559.719 267.33 561.008 271.002 561.008C274.674 561.008 277.809 559.719 280.406 557.141C283.004 554.543 284.303 551.408 284.303 547.736C284.303 544.064 283.004 540.93 280.406 538.332C277.809 535.734 274.674 534.436 271.002 534.436ZM319.371 534.23V563H316.764V536.896H297.545V556.379C297.545 560.48 295.494 562.697 291.393 563.029V560.422C293.756 560.148 294.937 558.82 294.937 556.437V534.23H319.371ZM325.348 534.23H327.955V558.605L346.353 534.23H349.195V563H346.559V538.42L327.955 562.971V563H325.348V534.23ZM370.904 531.623C375.357 531.623 379.146 533.195 382.271 536.34C385.416 539.484 386.988 543.283 386.988 547.736C386.988 552.17 385.416 555.959 382.271 559.103C379.146 562.248 375.357 563.82 370.904 563.82C366.471 563.82 362.682 562.248 359.537 559.103C356.393 555.959 354.82 552.17 354.82 547.736C354.82 543.283 356.393 539.484 359.537 536.34C362.682 533.195 366.471 531.623 370.904 531.623ZM370.904 534.436C367.232 534.436 364.098 535.734 361.5 538.332C358.902 540.93 357.603 544.064 357.603 547.736C357.603 551.408 358.902 554.543 361.5 557.141C364.098 559.719 367.232 561.008 370.904 561.008C374.576 561.008 377.711 559.719 380.309 557.141C382.906 554.543 384.205 551.408 384.205 547.736C384.205 544.064 382.906 540.93 380.309 538.332C377.711 535.734 374.576 534.436 370.904 534.436Z" fill="#30273E"/>
<path d="M114.516 134.955V216.986H109.901V143.055H105.031L111.337 134.955H114.516ZM149.84 216.986C151.412 206.39 155.018 198.99 160.658 194.786C166.332 190.548 171.339 186.805 175.68 183.558C180.021 180.277 184.054 176.603 187.78 172.535C191.505 168.468 193.368 163.734 193.368 158.333C193.368 152.899 191.454 148.268 187.626 144.439C183.798 140.611 179.166 138.697 173.732 138.697C168.366 138.697 163.751 140.611 159.889 144.439C156.608 147.721 154.728 151.634 154.249 156.18L149.584 154.488C150.37 149.361 152.66 144.884 156.454 141.056C161.239 136.236 166.998 133.827 173.732 133.827C180.499 133.827 186.259 136.219 191.01 141.004C195.795 145.79 198.187 151.566 198.187 158.333C198.187 165.067 195.846 170.946 191.163 175.97C187.985 179.422 184.225 182.772 179.884 186.019C175.543 189.266 170.656 192.923 165.221 196.991C159.786 201.058 156.403 206.185 155.07 212.372H198.187V216.986H149.84ZM216.952 208.526C218.217 208.526 219.293 208.971 220.182 209.859C221.105 210.748 221.566 211.825 221.566 213.089C221.566 214.388 221.105 215.482 220.182 216.371C219.293 217.259 218.217 217.704 216.952 217.704C215.687 217.704 214.594 217.259 213.671 216.371C212.782 215.482 212.338 214.388 212.338 213.089C212.338 211.825 212.782 210.748 213.671 209.859C214.594 208.971 215.687 208.526 216.952 208.526ZM216.952 176.893C218.217 176.893 219.293 177.337 220.182 178.226C221.105 179.115 221.566 180.191 221.566 181.456C221.566 182.755 221.105 183.849 220.182 184.737C219.293 185.626 218.217 186.07 216.952 186.07C215.687 186.07 214.594 185.626 213.671 184.737C212.782 183.849 212.338 182.755 212.338 181.456C212.338 180.191 212.782 179.115 213.671 178.226C214.594 177.337 215.687 176.893 216.952 176.893ZM257.147 171.202L253.302 171.1V166.485C256.481 166.451 259.078 166.041 261.095 165.255C263.146 164.469 265.35 162.811 267.709 160.282C270.101 157.752 271.298 154.745 271.298 151.258C271.298 147.738 270.067 144.764 267.606 142.337C265.145 139.876 262.172 138.646 258.685 138.646C255.233 138.646 252.26 139.859 249.765 142.286C248.397 143.687 247.389 145.26 246.74 147.003L242.33 145.26C243.082 142.867 244.398 140.765 246.278 138.954C249.73 135.536 253.866 133.827 258.685 133.827C263.573 133.827 267.709 135.553 271.093 139.005C274.511 142.423 276.22 146.507 276.22 151.258C276.22 156.112 274.921 159.94 272.323 162.743C269.725 165.511 267.299 167.357 265.043 168.28C269.965 169.92 274.049 172.484 277.296 175.97C281.979 180.995 284.32 186.874 284.32 193.607C284.32 200.375 281.928 206.151 277.142 210.936C272.391 215.721 266.632 218.114 259.865 218.114C253.131 218.114 247.372 215.704 242.587 210.885C238.793 207.057 236.503 202.579 235.717 197.452L240.382 195.76C240.861 200.306 242.741 204.22 246.022 207.501C249.884 211.329 254.498 213.243 259.865 213.243C265.299 213.243 269.931 211.329 273.759 207.501C277.587 203.673 279.501 199.041 279.501 193.607C279.501 188.207 277.638 183.473 273.912 179.405C270.187 175.338 264.598 172.604 257.147 171.202ZM347.382 163.102C347.382 156.676 345.109 151.207 340.563 146.695C336.017 142.149 330.531 139.876 324.105 139.876C317.68 139.876 312.194 142.149 307.648 146.695C303.102 151.207 300.829 156.676 300.829 163.102V190.274C300.829 196.7 303.102 202.186 307.648 206.732C312.194 211.244 317.68 213.5 324.105 213.5C330.531 213.5 336.017 211.244 340.563 206.732C345.109 202.186 347.382 196.7 347.382 190.274V163.102ZM352.252 190.274C352.252 198.033 349.501 204.664 343.998 210.167C338.529 215.67 331.898 218.421 324.105 218.421C316.347 218.421 309.716 215.67 304.213 210.167C298.71 204.664 295.958 198.033 295.958 190.274V163.102C295.958 155.343 298.71 148.712 304.213 143.209C309.716 137.706 316.347 134.955 324.105 134.955C331.898 134.955 338.529 137.706 343.998 143.209C349.501 148.712 352.252 155.343 352.252 163.102V190.274Z" fill="white"/>
<rect x="128" y="401" width="185" height="96" rx="24" fill="#30273E" stroke="white" stroke-width="2"/>
<path d="M181.64 470.304V426.922H187.205V470.304H181.64Z" fill="white"/>
<path d="M204.63 470.304V431.981H192.804V426.922H222.021V431.981H210.195V470.304H204.63Z" fill="white"/>
<path d="M225.164 470.304V437.04H229.085L229.781 441.403H230.16C230.582 440.139 231.235 438.979 232.12 437.925C233.006 436.829 234.228 436.281 235.788 436.281C236.505 436.281 237.095 436.365 237.559 436.534C238.023 436.703 238.255 436.787 238.255 436.787V442.162H236.547C235.451 442.162 234.418 442.415 233.448 442.921C232.521 443.385 231.762 444.186 231.172 445.324C230.624 446.463 230.35 448.022 230.35 450.004V470.304H225.164Z" fill="white"/>
<path d="M253.902 471.063C249.771 471.063 246.63 469.713 244.48 467.015C242.372 464.275 241.318 459.827 241.318 453.672C241.318 447.685 242.351 443.301 244.416 440.518C246.524 437.693 249.665 436.281 253.839 436.281C257.465 436.281 260.184 437.504 261.997 439.949C263.852 442.352 264.779 446.336 264.779 451.901V455.19H246.756C246.798 459.068 247.41 461.914 248.59 463.727C249.771 465.54 251.584 466.446 254.029 466.446C255.673 466.446 257.022 465.793 258.076 464.486C259.13 463.137 259.657 461.303 259.657 458.984H264.779C264.779 462.694 263.768 465.645 261.744 467.837C259.762 469.987 257.149 471.063 253.902 471.063ZM246.82 450.573H259.341C259.341 447.411 258.877 445.008 257.95 443.364C257.022 441.72 255.652 440.897 253.839 440.897C251.52 440.897 249.813 441.72 248.717 443.364C247.663 444.966 247.03 447.369 246.82 450.573Z" fill="white"/>
<path d="M280.276 471.063C277.747 471.063 275.681 470.599 274.079 469.671C272.519 468.702 271.381 467.479 270.664 466.003C269.947 464.528 269.589 462.968 269.589 461.324C269.589 460.86 269.589 460.523 269.589 460.312C269.631 460.101 269.652 459.975 269.652 459.932H275.091V460.565C275.091 462.631 275.618 464.148 276.672 465.118C277.726 466.046 279.012 466.509 280.529 466.509C281.879 466.509 283.038 466.088 284.008 465.245C285.019 464.401 285.525 463.179 285.525 461.577C285.525 460.185 285.146 459.11 284.387 458.351C283.67 457.55 282.743 456.918 281.605 456.454C280.466 455.948 279.244 455.485 277.937 455.063C276.63 454.599 275.407 454.03 274.269 453.356C273.13 452.681 272.182 451.754 271.423 450.573C270.706 449.35 270.348 447.748 270.348 445.767C270.348 443.785 270.77 442.099 271.613 440.708C272.456 439.274 273.657 438.178 275.217 437.419C276.777 436.66 278.611 436.281 280.719 436.281C282.785 436.281 284.514 436.703 285.905 437.546C287.338 438.347 288.413 439.443 289.13 440.834C289.889 442.226 290.268 443.743 290.268 445.387C290.268 445.598 290.247 445.83 290.205 446.083C290.205 446.336 290.205 446.505 290.205 446.589H284.83V446.02C284.83 444.713 284.492 443.532 283.818 442.478C283.185 441.382 281.984 440.834 280.213 440.834C278.991 440.834 278.042 441.087 277.367 441.593C276.735 442.099 276.292 442.71 276.039 443.427C275.829 444.102 275.723 444.755 275.723 445.387C275.723 446.61 276.082 447.559 276.798 448.233C277.557 448.908 278.506 449.456 279.644 449.877C280.782 450.299 282.005 450.742 283.312 451.205C284.619 451.627 285.842 452.196 286.98 452.913C288.118 453.63 289.046 454.62 289.762 455.885C290.521 457.108 290.901 458.752 290.901 460.818C290.901 463.179 290.437 465.118 289.509 466.636C288.582 468.154 287.317 469.271 285.715 469.987C284.155 470.704 282.342 471.063 280.276 471.063Z" fill="white"/>
<path d="M148.34 470.962L150.869 459.643H146.822V454.836H151.944L154.094 445.034H149.288V440.228H155.169L158.142 426.948H162.948L159.976 440.228H165.667L168.639 426.948H173.445L170.473 440.228H174.268V445.034H169.398L167.248 454.836H171.738V459.643H166.173L163.643 470.962H158.837L161.367 459.643H155.675L153.146 470.962H148.34ZM156.75 454.836H162.442L164.592 445.034H158.9L156.75 454.836Z" fill="white"/>
<defs>
<filter id="filter0_b_79_230" x="-29.465" y="-27.4888" width="497.699" height="952.889" filterUnits="userSpaceOnUse" color-interpolation-filters="sRGB">
<feFlood flood-opacity="0" result="BackgroundImageFix"/>
<feGaussianBlur in="BackgroundImageFix" stdDeviation="17.05"/>
<feComposite in2="SourceAlpha" operator="in" result="effect1_backgroundBlur_79_230"/>
<feBlend mode="normal" in="SourceGraphic" in2="effect1_backgroundBlur_79_230" result="shape"/>
</filter>
<linearGradient id="paint0_linear_79_230" x1="219.385" y1="6.61121" x2="219.385" y2="891.301" gradientUnits="userSpaceOnUse">
<stop stop-color="#6A5F77"/>
<stop offset="1" stop-color="#6A5F77" stop-opacity="0"/>
</linearGradient>
</defs>
</svg>
