<svg width="256" height="59" viewBox="0 0 256 59" fill="none" xmlns="http://www.w3.org/2000/svg">
<g filter="url(#filter0_d_305_2)">
<rect x="5" y="1" width="246" height="49" rx="24.5" fill="url(#paint0_linear_305_2)" shape-rendering="crispEdges"/>
<rect x="4.75" y="0.75" width="246.5" height="49.5" rx="24.75" stroke="white" stroke-width="0.5" shape-rendering="crispEdges"/>
</g>
<path d="M45.0332 10.875V39H43.4512V13.6523H41.7812L43.9434 10.875H45.0332ZM67.0059 10.875V39H65.4238V13.6523H63.7539L65.916 10.875H67.0059ZM79.7148 36.0996C80.1484 36.0996 80.5176 36.252 80.8223 36.5566C81.1387 36.8613 81.2969 37.2305 81.2969 37.6641C81.2969 38.1094 81.1387 38.4844 80.8223 38.7891C80.5176 39.0938 80.1484 39.2461 79.7148 39.2461C79.2812 39.2461 78.9062 39.0938 78.5898 38.7891C78.2852 38.4844 78.1328 38.1094 78.1328 37.6641C78.1328 37.2305 78.2852 36.8613 78.5898 36.5566C78.9062 36.252 79.2812 36.0996 79.7148 36.0996ZM95.6582 10.875V39H94.0762V13.6523H92.4062L94.5684 10.875H95.6582ZM117.631 10.875V39H116.049V13.6523H114.379L116.541 10.875H117.631ZM130.34 36.0996C130.773 36.0996 131.143 36.252 131.447 36.5566C131.764 36.8613 131.922 37.2305 131.922 37.6641C131.922 38.1094 131.764 38.4844 131.447 38.7891C131.143 39.0938 130.773 39.2461 130.34 39.2461C129.906 39.2461 129.531 39.0938 129.215 38.7891C128.91 38.4844 128.758 38.1094 128.758 37.6641C128.758 37.2305 128.91 36.8613 129.215 36.5566C129.531 36.252 129.906 36.0996 130.34 36.0996ZM136.422 39C136.961 35.3672 138.197 32.8301 140.131 31.3887C142.076 29.9355 143.793 28.6523 145.281 27.5391C146.77 26.4141 148.152 25.1543 149.43 23.7598C150.707 22.3652 151.346 20.7422 151.346 18.8906C151.346 17.0273 150.689 15.4395 149.377 14.127C148.064 12.8145 146.477 12.1582 144.613 12.1582C142.773 12.1582 141.191 12.8145 139.867 14.127C138.742 15.252 138.098 16.5938 137.934 18.1523L136.334 17.5723C136.604 15.8145 137.389 14.2793 138.689 12.9668C140.33 11.3145 142.305 10.4883 144.613 10.4883C146.934 10.4883 148.908 11.3086 150.537 12.9492C152.178 14.5898 152.998 16.5703 152.998 18.8906C152.998 21.1992 152.195 23.2148 150.59 24.9375C149.5 26.1211 148.211 27.2695 146.723 28.3828C145.234 29.4961 143.559 30.75 141.695 32.1445C139.832 33.5391 138.672 35.2969 138.215 37.418H152.998V39H136.422ZM174.619 20.5254C174.619 18.3223 173.84 16.4473 172.281 14.9004C170.723 13.3418 168.842 12.5625 166.639 12.5625C164.436 12.5625 162.555 13.3418 160.996 14.9004C159.438 16.4473 158.658 18.3223 158.658 20.5254V29.8418C158.658 32.0449 159.438 33.9258 160.996 35.4844C162.555 37.0312 164.436 37.8047 166.639 37.8047C168.842 37.8047 170.723 37.0312 172.281 35.4844C173.84 33.9258 174.619 32.0449 174.619 29.8418V20.5254ZM176.289 29.8418C176.289 32.502 175.346 34.7754 173.459 36.6621C171.584 38.5488 169.311 39.4922 166.639 39.4922C163.979 39.4922 161.705 38.5488 159.818 36.6621C157.932 34.7754 156.988 32.502 156.988 29.8418V20.5254C156.988 17.8652 157.932 15.5918 159.818 13.7051C161.705 11.8184 163.979 10.875 166.639 10.875C169.311 10.875 171.584 11.8184 173.459 13.7051C175.346 15.5918 176.289 17.8652 176.289 20.5254V29.8418ZM190.229 10.875V39H188.646V13.6523H186.977L189.139 10.875H190.229ZM202.34 39C202.879 35.3672 204.115 32.8301 206.049 31.3887C207.994 29.9355 209.711 28.6523 211.199 27.5391C212.688 26.4141 214.07 25.1543 215.348 23.7598C216.625 22.3652 217.264 20.7422 217.264 18.8906C217.264 17.0273 216.607 15.4395 215.295 14.127C213.982 12.8145 212.395 12.1582 210.531 12.1582C208.691 12.1582 207.109 12.8145 205.785 14.127C204.66 15.252 204.016 16.5938 203.852 18.1523L202.252 17.5723C202.521 15.8145 203.307 14.2793 204.607 12.9668C206.248 11.3145 208.223 10.4883 210.531 10.4883C212.852 10.4883 214.826 11.3086 216.455 12.9492C218.096 14.5898 218.916 16.5703 218.916 18.8906C218.916 21.1992 218.113 23.2148 216.508 24.9375C215.418 26.1211 214.129 27.2695 212.641 28.3828C211.152 29.4961 209.477 30.75 207.613 32.1445C205.75 33.5391 204.59 35.2969 204.133 37.418H218.916V39H202.34Z" fill="white"/>
<defs>
<filter id="filter0_d_305_2" x="0.5" y="0.5" width="255" height="58" filterUnits="userSpaceOnUse" color-interpolation-filters="sRGB">
<feFlood flood-opacity="0" result="BackgroundImageFix"/>
<feColorMatrix in="SourceAlpha" type="matrix" values="0 0 0 0 0 0 0 0 0 0 0 0 0 0 0 0 0 0 127 0" result="hardAlpha"/>
<feOffset dy="4"/>
<feGaussianBlur stdDeviation="2"/>
<feComposite in2="hardAlpha" operator="out"/>
<feColorMatrix type="matrix" values="0 0 0 0 0 0 0 0 0 0 0 0 0 0 0 0 0 0 0.25 0"/>
<feBlend mode="normal" in2="BackgroundImageFix" result="effect1_dropShadow_305_2"/>
<feBlend mode="normal" in="SourceGraphic" in2="effect1_dropShadow_305_2" result="shape"/>
</filter>
<linearGradient id="paint0_linear_305_2" x1="128" y1="1" x2="128" y2="50" gradientUnits="userSpaceOnUse">
<stop stop-color="#30273E"/>
<stop offset="1" stop-color="#30273E" stop-opacity="0.5"/>
</linearGradient>
</defs>
</svg>
