<svg width="53" height="53" viewBox="0 0 53 53" fill="none" xmlns="http://www.w3.org/2000/svg">
<path d="M26.4167 0.583344C19.5431 0.583344 12.9511 3.31384 8.09082 8.17416C3.2305 13.0345 0.5 19.6265 0.5 26.5C0.5 33.3735 3.2305 39.9655 8.09082 44.8259C12.9511 49.6862 19.5431 52.4167 26.4167 52.4167C33.2902 52.4167 39.8822 49.6862 44.7425 44.8259C49.6028 39.9655 52.3333 33.3735 52.3333 26.5C52.3333 19.6265 49.6028 13.0345 44.7425 8.17416C39.8822 3.31384 33.2902 0.583344 26.4167 0.583344Z" fill="#198FD2" stroke="white"/>
<path d="M39.0615 15.0625L34.3009 39.3685C34.3009 39.3685 34.0963 40.4792 32.7187 40.4792C31.9867 40.4792 31.6093 40.131 31.6093 40.131L21.2978 31.5744L16.2525 29.0315L9.77765 27.3095C9.77765 27.3095 8.625 26.9766 8.625 26.0234C8.625 25.2292 9.81069 24.8505 9.81069 24.8505L36.8998 14.089C36.8998 14.089 37.7271 13.7904 38.3307 13.7917C38.7018 13.7917 39.125 13.9505 39.125 14.4271C39.125 14.7448 39.0615 15.0625 39.0615 15.0625Z" fill="white"/>
<path d="M25.1459 34.7668L20.792 39.0546C20.792 39.0546 20.6027 39.2007 20.3498 39.2071C20.2621 39.2096 20.1681 39.1956 20.0715 39.1524L21.2966 31.5719L25.1459 34.7668Z" fill="#B0BEC5"/>
<path d="M33.9107 19.1241C33.6959 18.8445 33.2994 18.7937 33.0199 19.0059L16.2499 29.0417C16.2499 29.0417 18.9263 36.5294 19.3343 37.8257C19.7435 39.1232 20.0713 39.1537 20.0713 39.1537L21.2964 31.5732L33.7913 20.0137C34.0708 19.8014 34.1229 19.4037 33.9107 19.1241Z" fill="#CFD8DC"/>
</svg>
