<svg width="51" height="51" viewBox="0 0 51 51" fill="none" xmlns="http://www.w3.org/2000/svg">
<path d="M25.5 0.0833435C18.7591 0.0833435 12.2942 2.76116 7.52768 7.52771C2.76113 12.2943 0.083313 18.7591 0.083313 25.5C0.083313 32.2409 2.76113 38.7058 7.52768 43.4723C12.2942 48.2389 18.7591 50.9167 25.5 50.9167C32.2409 50.9167 38.7057 48.2389 43.4723 43.4723C48.2388 38.7058 50.9166 32.2409 50.9166 25.5C50.9166 18.7591 48.2388 12.2943 43.4723 7.52771C38.7057 2.76116 32.2409 0.0833435 25.5 0.0833435Z" fill="#196ED2"/>
<path d="M40.6699 17.9271C40.7284 17.7352 40.7563 17.5573 40.7487 17.3984C40.7296 16.9384 40.4132 16.6042 39.6685 16.6042H36.3415C35.5014 16.6042 35.1138 17.1125 34.8876 17.6221C34.8876 17.6221 32.8136 21.8908 30.4232 24.7057C29.648 25.5203 29.254 25.5 28.8346 25.5C28.6097 25.5 28.0416 25.2281 28.0416 24.4821V17.8928C28.0416 17.0108 27.8218 16.6042 27.1114 16.6042H21.2033C20.6861 16.6042 20.4166 17.0108 20.4166 17.4188C20.4166 18.2664 21.5579 18.4698 21.6875 20.8449V25.4492C21.6875 26.5675 21.493 26.7708 21.0737 26.7708C19.9426 26.7708 17.7161 22.9583 16.2254 17.9614C15.9026 16.9778 15.5799 16.6042 14.7398 16.6042H11.381C10.4114 16.6042 10.25 17.0795 10.25 17.5878C10.25 18.5041 11.0125 23.4578 15.1745 29.1537C18.1927 33.2839 22.1691 35.6667 25.6893 35.6667C27.8218 35.6667 28.0404 35.124 28.0404 34.2764V30.4995C28.0416 29.4815 28.2742 29.3125 28.9528 29.3125C29.437 29.3125 30.4245 29.6302 32.3307 31.8542C34.5292 34.4187 34.9283 35.6667 36.189 35.6667H39.516C40.2887 35.6667 40.7322 35.3426 40.75 34.7136C40.7538 34.5534 40.7309 34.3742 40.6788 34.1747C40.4323 33.4427 39.3012 31.6534 37.8906 29.9479C37.109 29.0037 36.3376 28.0684 35.9831 27.56C35.7454 27.2283 35.6552 26.9945 35.6666 26.7708C35.6781 26.5357 35.8001 26.3121 35.9831 25.9994C35.95 25.9994 40.2505 19.9617 40.6699 17.9271Z" fill="white"/>
</svg>
